%TF.GenerationSoftware,KiCad,Pcbnew,9.0.6*%
%TF.CreationDate,2026-07-09T21:59:02-04:00*%
%TF.ProjectId,EasyDev,45617379-4465-4762-9e6b-696361645f70,rev?*%
%TF.SameCoordinates,Original*%
%TF.FileFunction,Copper,L2,Bot*%
%TF.FilePolarity,Positive*%
%FSLAX46Y46*%
G04 Gerber Fmt 4.6, Leading zero omitted, Abs format (unit mm)*
G04 Created by KiCad (PCBNEW 9.0.6) date 2026-07-09 21:59:02*
%MOMM*%
%LPD*%
G01*
G04 APERTURE LIST*
%TA.AperFunction,ComponentPad*%
%ADD10R,1.700000X1.700000*%
%TD*%
%TA.AperFunction,ComponentPad*%
%ADD11C,1.700000*%
%TD*%
%TA.AperFunction,HeatsinkPad*%
%ADD12O,1.000000X2.100000*%
%TD*%
%TA.AperFunction,HeatsinkPad*%
%ADD13O,1.000000X1.600000*%
%TD*%
%TA.AperFunction,ViaPad*%
%ADD14C,0.600000*%
%TD*%
%TA.AperFunction,ViaPad*%
%ADD15C,0.400000*%
%TD*%
%TA.AperFunction,ViaPad*%
%ADD16C,0.300000*%
%TD*%
%TA.AperFunction,Conductor*%
%ADD17C,0.160000*%
%TD*%
%TA.AperFunction,Conductor*%
%ADD18C,0.120000*%
%TD*%
%TA.AperFunction,Conductor*%
%ADD19C,0.200000*%
%TD*%
G04 APERTURE END LIST*
D10*
%TO.P,J3,1,Pin_1*%
%TO.N,VBUS*%
X172005625Y-55641875D03*
D11*
%TO.P,J3,2,Pin_2*%
%TO.N,GPIO29_ADC3*%
X172005625Y-58181875D03*
%TO.P,J3,3,Pin_3*%
%TO.N,GND*%
X172005625Y-60721875D03*
%TO.P,J3,4,Pin_4*%
%TO.N,GPIO28_ADC2*%
X172005625Y-63261875D03*
%TO.P,J3,5,Pin_5*%
%TO.N,+3V3*%
X172005625Y-65801875D03*
%TO.P,J3,6,Pin_6*%
%TO.N,GPIO27_ADC1*%
X172005625Y-68341875D03*
%TO.P,J3,7,Pin_7*%
%TO.N,GPIO26_ADC0*%
X172005625Y-70881875D03*
%TO.P,J3,8,Pin_8*%
%TO.N,GND*%
X172005625Y-73421875D03*
%TO.P,J3,9,Pin_9*%
%TO.N,GPIO24*%
X172005625Y-75961875D03*
%TO.P,J3,10,Pin_10*%
%TO.N,GPIO23*%
X172005625Y-78501875D03*
%TO.P,J3,11,Pin_11*%
%TO.N,RUN*%
X172005625Y-81041875D03*
%TO.P,J3,12,Pin_12*%
%TO.N,GPIO22*%
X172005625Y-83581875D03*
%TO.P,J3,13,Pin_13*%
%TO.N,GND*%
X172005625Y-86121875D03*
%TO.P,J3,14,Pin_14*%
%TO.N,GPIO21*%
X172005625Y-88661875D03*
%TO.P,J3,15,Pin_15*%
%TO.N,GPIO20*%
X172005625Y-91201875D03*
%TO.P,J3,16,Pin_16*%
%TO.N,GPIO19*%
X172005625Y-93741875D03*
%TO.P,J3,17,Pin_17*%
%TO.N,GPIO18*%
X172005625Y-96281875D03*
%TO.P,J3,18,Pin_18*%
%TO.N,GND*%
X172005625Y-98821875D03*
%TO.P,J3,19,Pin_19*%
%TO.N,GPIO17*%
X172005625Y-101361875D03*
%TO.P,J3,20,Pin_20*%
%TO.N,GPIO16*%
X172005625Y-103901875D03*
%TD*%
D12*
%TO.P,J1,S1,SHIELD*%
%TO.N,GND*%
X167435625Y-59901875D03*
D13*
X167435625Y-55721875D03*
D12*
X158795625Y-59901875D03*
D13*
X158795625Y-55721875D03*
%TD*%
D10*
%TO.P,J4,1,Pin_1*%
%TO.N,SWCLK*%
X160575625Y-103661875D03*
D11*
%TO.P,J4,2,Pin_2*%
%TO.N,GND*%
X163115625Y-103661875D03*
%TO.P,J4,3,Pin_3*%
%TO.N,SWD*%
X165655625Y-103661875D03*
%TD*%
D10*
%TO.P,J2,1,Pin_1*%
%TO.N,GPIO0*%
X154225625Y-55641875D03*
D11*
%TO.P,J2,2,Pin_2*%
%TO.N,GPIO1*%
X154225625Y-58181875D03*
%TO.P,J2,3,Pin_3*%
%TO.N,GND*%
X154225625Y-60721875D03*
%TO.P,J2,4,Pin_4*%
%TO.N,GPIO2*%
X154225625Y-63261875D03*
%TO.P,J2,5,Pin_5*%
%TO.N,GPIO3*%
X154225625Y-65801875D03*
%TO.P,J2,6,Pin_6*%
%TO.N,GPIO4*%
X154225625Y-68341875D03*
%TO.P,J2,7,Pin_7*%
%TO.N,GPIO5*%
X154225625Y-70881875D03*
%TO.P,J2,8,Pin_8*%
%TO.N,GND*%
X154225625Y-73421875D03*
%TO.P,J2,9,Pin_9*%
%TO.N,GPIO6*%
X154225625Y-75961875D03*
%TO.P,J2,10,Pin_10*%
%TO.N,GPIO7*%
X154225625Y-78501875D03*
%TO.P,J2,11,Pin_11*%
%TO.N,GPIO8*%
X154225625Y-81041875D03*
%TO.P,J2,12,Pin_12*%
%TO.N,GPIO9*%
X154225625Y-83581875D03*
%TO.P,J2,13,Pin_13*%
%TO.N,GND*%
X154225625Y-86121875D03*
%TO.P,J2,14,Pin_14*%
%TO.N,GPIO10*%
X154225625Y-88661875D03*
%TO.P,J2,15,Pin_15*%
%TO.N,GPIO11*%
X154225625Y-91201875D03*
%TO.P,J2,16,Pin_16*%
%TO.N,GPIO12*%
X154225625Y-93741875D03*
%TO.P,J2,17,Pin_17*%
%TO.N,GPIO13*%
X154225625Y-96281875D03*
%TO.P,J2,18,Pin_18*%
%TO.N,GND*%
X154225625Y-98821875D03*
%TO.P,J2,19,Pin_19*%
%TO.N,GPIO14*%
X154225625Y-101361875D03*
%TO.P,J2,20,Pin_20*%
%TO.N,GPIO15*%
X154225625Y-103901875D03*
%TD*%
D14*
%TO.N,GND*%
X163440698Y-62519032D03*
X157272669Y-103398883D03*
D15*
X159312875Y-74418061D03*
X157495210Y-93807374D03*
X162884704Y-81788269D03*
X157139434Y-90120960D03*
X155248916Y-75243975D03*
X160976438Y-82023513D03*
D14*
X163453052Y-63532352D03*
X166312567Y-62151458D03*
D15*
X162121531Y-70327155D03*
X162328472Y-74948805D03*
X161346271Y-90269341D03*
X170208634Y-99934252D03*
X161636642Y-85172876D03*
X158033669Y-92482359D03*
X155859446Y-88106250D03*
X162177565Y-86439327D03*
X165937724Y-78060642D03*
X158256405Y-94473881D03*
X164650241Y-95548255D03*
X159769093Y-80555735D03*
X169750060Y-87284152D03*
X157090010Y-85079673D03*
X160496868Y-96360587D03*
D16*
X155386434Y-89806189D03*
D15*
X167029762Y-78561389D03*
X170208634Y-96514598D03*
X165140138Y-89805087D03*
X168757812Y-80837647D03*
X168789238Y-76910851D03*
X163903420Y-68112897D03*
X166916826Y-73157379D03*
X168059886Y-97631250D03*
X166720377Y-71332683D03*
X163065625Y-95250000D03*
X166571036Y-95948355D03*
X159983129Y-68560590D03*
X169126556Y-72691967D03*
X164234454Y-81931860D03*
X166687571Y-97631179D03*
X159983823Y-78205655D03*
X166544407Y-99217637D03*
X167112166Y-100257072D03*
X165134333Y-91618788D03*
X156580977Y-74027887D03*
X161636642Y-85172876D03*
X161282995Y-93897388D03*
D14*
X161883539Y-64669698D03*
D15*
X161859489Y-100199509D03*
D16*
X156712500Y-97631250D03*
D15*
X159974394Y-70097906D03*
X169645243Y-90153517D03*
X159527311Y-93622243D03*
D14*
X163463319Y-66276151D03*
D15*
X157820517Y-97083872D03*
D14*
X163546271Y-91969341D03*
X165064844Y-100182456D03*
X159543750Y-100012500D03*
X161373806Y-63592210D03*
D15*
X159553515Y-97723208D03*
X159777743Y-90649262D03*
X164217871Y-71424397D03*
X158033669Y-92482359D03*
D14*
X164394777Y-63568838D03*
D15*
X164981125Y-82664171D03*
%TO.N,+3V3*%
X165140138Y-88933848D03*
X167994375Y-95865886D03*
X169068750Y-90487500D03*
D14*
X166687500Y-73818750D03*
D15*
X166239442Y-97157320D03*
X161977707Y-81163204D03*
D14*
X163515625Y-77166666D03*
D16*
X163365625Y-80334375D03*
D14*
X169068750Y-78581250D03*
X161925000Y-69056250D03*
D15*
%TO.N,+1V1*%
X166258185Y-88811561D03*
X164517288Y-81267986D03*
%TO.N,GPIO5*%
X155876625Y-78700490D03*
%TO.N,GPIO15*%
X161236540Y-86272875D03*
D14*
%TO.N,GPIO2*%
X157974002Y-82136985D03*
%TO.N,GPIO0*%
X158740625Y-81194452D03*
D15*
%TO.N,GPIO10*%
X160504859Y-85423430D03*
D14*
%TO.N,GPIO6*%
X156948894Y-83978673D03*
D15*
%TO.N,GPIO7*%
X160415011Y-84306559D03*
D14*
%TO.N,GPIO1*%
X157943116Y-81257569D03*
%TO.N,GPIO29_ADC3*%
X169069750Y-69564735D03*
X165703717Y-81623195D03*
D15*
%TO.N,RUN*%
X164645525Y-85899622D03*
%TO.N,GPIO24*%
X165615625Y-83958866D03*
%TO.N,GPIO16*%
X165415625Y-86437565D03*
D14*
%TO.N,GPIO28_ADC2*%
X170503595Y-68307394D03*
X169452625Y-79377365D03*
D15*
%TO.N,GPIO21*%
X165719325Y-85159866D03*
%TO.N,SWCLK*%
X162766787Y-86301608D03*
%TO.N,SWD*%
X161023217Y-85107477D03*
%TO.N,SS*%
X156029101Y-86481497D03*
X157966352Y-78948911D03*
X158743707Y-87245250D03*
X159241370Y-92810943D03*
X156040116Y-81170268D03*
X154861213Y-84807464D03*
X157197304Y-89398021D03*
X156237759Y-79231490D03*
%TD*%
D17*
%TO.N,GND*%
X160976438Y-82023513D02*
X160515625Y-81562700D01*
X155356219Y-84991281D02*
X154225625Y-86121875D01*
X156712500Y-97631250D02*
X157273139Y-97631250D01*
X159942744Y-85904987D02*
X160904531Y-85904987D01*
X169126556Y-72691967D02*
X167999773Y-73818750D01*
D18*
X163065625Y-95250000D02*
X161955038Y-96360587D01*
D17*
X157783826Y-90765352D02*
X157139434Y-90120960D01*
X158033669Y-92482359D02*
X157783826Y-92232516D01*
X167999773Y-73818750D02*
X167578197Y-73818750D01*
X159983823Y-78205655D02*
X159312875Y-77534707D01*
X159507846Y-87265768D02*
X159507846Y-86339885D01*
X159843619Y-74948805D02*
X162328472Y-74948805D01*
X155730001Y-84991281D02*
X155356219Y-84991281D01*
X160515625Y-81302267D02*
X159769093Y-80555735D01*
X162177565Y-85713799D02*
X161636642Y-85172876D01*
X159312875Y-77534707D02*
X159312875Y-74418061D01*
X160515625Y-81562700D02*
X160515625Y-81302267D01*
X156465004Y-74027887D02*
X156580977Y-74027887D01*
X157783826Y-92232516D02*
X157783826Y-90765352D01*
X155859446Y-88106250D02*
X156240446Y-87725250D01*
D18*
X166700442Y-97618308D02*
X166700442Y-96077761D01*
D17*
X159507846Y-86339885D02*
X159942744Y-85904987D01*
X157273139Y-97631250D02*
X157820517Y-97083872D01*
X172005625Y-73421875D02*
X168789238Y-76638262D01*
D18*
X161955038Y-96360587D02*
X160496868Y-96360587D01*
D17*
X157001618Y-84991281D02*
X157090010Y-85079673D01*
X162177565Y-86439327D02*
X162177565Y-85713799D01*
X155386434Y-88579262D02*
X155386434Y-89806189D01*
X155248916Y-75243975D02*
X156465004Y-74027887D01*
X159312875Y-74418061D02*
X159843619Y-74948805D01*
X155730001Y-84991281D02*
X157001618Y-84991281D01*
X159048364Y-87725250D02*
X159507846Y-87265768D01*
X167578197Y-73818750D02*
X166916826Y-73157379D01*
D18*
X166687571Y-97631179D02*
X166700442Y-97618308D01*
D17*
X168789238Y-76638262D02*
X168789238Y-76910851D01*
D18*
X166700442Y-96077761D02*
X166571036Y-95948355D01*
D17*
X155859446Y-88106250D02*
X155386434Y-88579262D01*
X156240446Y-87725250D02*
X159048364Y-87725250D01*
X160904531Y-85904987D02*
X161636642Y-85172876D01*
D18*
%TO.N,+3V3*%
X163723083Y-94559351D02*
X166213268Y-92069166D01*
X166213268Y-92069166D02*
X166213268Y-90534104D01*
X163620291Y-83317404D02*
X163620291Y-85937473D01*
X163642797Y-87486108D02*
X163620291Y-87508615D01*
X164783701Y-88933848D02*
X165140138Y-88933848D01*
X163642797Y-85961393D02*
X163642797Y-87486108D01*
X163620291Y-85937473D02*
X163628080Y-85945263D01*
X165140138Y-88933848D02*
X166213268Y-90006978D01*
D19*
X168751250Y-69056250D02*
X172005625Y-65801875D01*
D18*
X166213641Y-97157391D02*
X164889417Y-97157391D01*
X169068750Y-90487500D02*
X169068750Y-94791511D01*
X166213712Y-97157320D02*
X166213641Y-97157391D01*
X163620291Y-87508615D02*
X163620291Y-87770438D01*
D19*
X163365625Y-77316666D02*
X163365625Y-80334375D01*
D18*
X163620291Y-87770438D02*
X164783701Y-88933848D01*
D19*
X161925000Y-69056250D02*
X168751250Y-69056250D01*
D18*
X163723083Y-95991057D02*
X163723083Y-94559351D01*
D19*
X166687500Y-76200000D02*
X169068750Y-78581250D01*
X166687500Y-73818750D02*
X166687500Y-76200000D01*
X161977707Y-81163204D02*
X162536796Y-81163204D01*
D18*
X169068750Y-94791511D02*
X167994375Y-95865886D01*
D19*
X162536796Y-81163204D02*
X163365625Y-80334375D01*
D18*
X164889417Y-97157391D02*
X163723083Y-95991057D01*
X166213268Y-90006978D02*
X166213268Y-90534104D01*
X161977707Y-81674820D02*
X163620291Y-83317404D01*
D19*
X163515625Y-77166666D02*
X163365625Y-77316666D01*
D18*
X161977707Y-81163204D02*
X161977707Y-81674820D01*
X166239442Y-97157320D02*
X166213712Y-97157320D01*
X163628080Y-85946675D02*
X163642797Y-85961393D01*
X163628080Y-85945263D02*
X163628080Y-85946675D01*
%TO.N,+1V1*%
X165296160Y-88472848D02*
X164636180Y-87812868D01*
X164695454Y-81446152D02*
X164517288Y-81267986D01*
X164695454Y-82122813D02*
X164695454Y-81446152D01*
X164636180Y-87812868D02*
X164636180Y-86542230D01*
X164184525Y-86090575D02*
X164184525Y-82633742D01*
X165331091Y-88472848D02*
X165296160Y-88472848D01*
X164636180Y-86542230D02*
X164184525Y-86090575D01*
X166258185Y-88811561D02*
X165634873Y-88811561D01*
X165601138Y-88777826D02*
X165601138Y-88742895D01*
X165601138Y-88742895D02*
X165331091Y-88472848D01*
X164184525Y-82633742D02*
X164695454Y-82122813D01*
X165634873Y-88811561D02*
X165601138Y-88777826D01*
D19*
%TO.N,GPIO5*%
X155765412Y-76934562D02*
X155765412Y-75266295D01*
X156788498Y-74528887D02*
X157081977Y-74235408D01*
X155876625Y-78700490D02*
X155777625Y-78601490D01*
X157081977Y-74235408D02*
X157081977Y-73820366D01*
X156788498Y-73495401D02*
X155765412Y-72472315D01*
X155765412Y-72472315D02*
X155765412Y-72421662D01*
X155777625Y-76946775D02*
X155765412Y-76934562D01*
X155765412Y-72421662D02*
X154225625Y-70881875D01*
X157081977Y-73820366D02*
X156788498Y-73526887D01*
X156502820Y-74528887D02*
X156788498Y-74528887D01*
X155765412Y-75266295D02*
X156502820Y-74528887D01*
X155777625Y-78601490D02*
X155777625Y-76946775D01*
X156788498Y-73526887D02*
X156788498Y-73495401D01*
%TO.N,GPIO15*%
X156600139Y-88106250D02*
X155767434Y-88938955D01*
X158355823Y-88106250D02*
X158326052Y-88136021D01*
X159665662Y-87646768D02*
X159206179Y-88106250D01*
X155837434Y-89993000D02*
X155573245Y-90257189D01*
X155573245Y-90257189D02*
X155379626Y-90257189D01*
X155767434Y-89549378D02*
X155837434Y-89619378D01*
X157704290Y-88136021D02*
X157674519Y-88106250D01*
X159206179Y-88106250D02*
X158355823Y-88106250D01*
X155767434Y-88938955D02*
X155767434Y-89549378D01*
X155837434Y-89619378D02*
X155837434Y-89993000D01*
X157674519Y-88106250D02*
X156600139Y-88106250D01*
X155379626Y-90257189D02*
X155379626Y-102747874D01*
X161064841Y-86283493D02*
X159701565Y-87646768D01*
X159701565Y-87646768D02*
X159665662Y-87646768D01*
X158326052Y-88136021D02*
X157704290Y-88136021D01*
X155379626Y-102747874D02*
X154225625Y-103901875D01*
X161225922Y-86283493D02*
X161064841Y-86283493D01*
X161236540Y-86272875D02*
X161225922Y-86283493D01*
%TO.N,GPIO2*%
X158129875Y-76797179D02*
X158129875Y-78024721D01*
X157342116Y-81008626D02*
X157342116Y-81506512D01*
X157342116Y-81506512D02*
X157694173Y-81858569D01*
X157694173Y-81858569D02*
X157695586Y-81858569D01*
X157695586Y-81858569D02*
X157974002Y-82136985D01*
X157542116Y-80808626D02*
X157342116Y-81008626D01*
X157377675Y-63261875D02*
X157938625Y-63822825D01*
X158129875Y-78024721D02*
X158680823Y-78575669D01*
X157938625Y-63822825D02*
X157938625Y-76605929D01*
X158680823Y-78575669D02*
X158680823Y-78745376D01*
X154225625Y-63261875D02*
X157377675Y-63261875D01*
X157938625Y-76605929D02*
X158129875Y-76797179D01*
X158699815Y-79293784D02*
X157542116Y-80451483D01*
X158699815Y-78764368D02*
X158699815Y-79293784D01*
X158680823Y-78745376D02*
X158699815Y-78764368D01*
X157542116Y-80451483D02*
X157542116Y-80808626D01*
%TO.N,GPIO0*%
X159543750Y-69820029D02*
X159543750Y-68829732D01*
X159473394Y-69890385D02*
X159543750Y-69820029D01*
X159268093Y-80348214D02*
X159543750Y-80072557D01*
X159482823Y-78413176D02*
X159482823Y-78243471D01*
X159482129Y-68768111D02*
X159482129Y-68353069D01*
X159543750Y-73940415D02*
X159543750Y-70375783D01*
X159543750Y-80072557D02*
X159543750Y-78474103D01*
X159482823Y-78243471D02*
X158931875Y-77692522D01*
X159543750Y-68291448D02*
X159543750Y-64293750D01*
X158811875Y-74210540D02*
X159105354Y-73917061D01*
X158931875Y-77692522D02*
X158931875Y-74745582D01*
X158740625Y-81194452D02*
X159268093Y-80666984D01*
X159543750Y-70375783D02*
X159473394Y-70305427D01*
X158811875Y-74625582D02*
X158811875Y-74210540D01*
X159105354Y-73917061D02*
X159520396Y-73917061D01*
X158931875Y-74745582D02*
X158811875Y-74625582D01*
X159543750Y-78474103D02*
X159482823Y-78413176D01*
X157162500Y-57150000D02*
X155654375Y-55641875D01*
X159520396Y-73917061D02*
X159543750Y-73940415D01*
X159543750Y-64293750D02*
X157162500Y-61912500D01*
X159543750Y-68829732D02*
X159482129Y-68768111D01*
X159482129Y-68353069D02*
X159543750Y-68291448D01*
X159473394Y-70305427D02*
X159473394Y-69890385D01*
X155654375Y-55641875D02*
X154225625Y-55641875D01*
X159268093Y-80666984D02*
X159268093Y-80348214D01*
X157162500Y-61912500D02*
X157162500Y-57150000D01*
%TO.N,GPIO10*%
X159501046Y-84628616D02*
X158258884Y-84628616D01*
X159543750Y-84675996D02*
X159543750Y-84585912D01*
X159543750Y-84585912D02*
X159501046Y-84628616D01*
X156037778Y-85725000D02*
X155529101Y-86233677D01*
X160068252Y-85200498D02*
X159543750Y-84675996D01*
X160504859Y-85423430D02*
X160504859Y-85415736D01*
X158258884Y-84628616D02*
X157162500Y-85725000D01*
X155529101Y-87358399D02*
X154225625Y-88661875D01*
X157162500Y-85725000D02*
X156037778Y-85725000D01*
X155529101Y-86233677D02*
X155529101Y-87358399D01*
X160289621Y-85200498D02*
X160068252Y-85200498D01*
X160504859Y-85415736D02*
X160289621Y-85200498D01*
%TO.N,GPIO6*%
X155376625Y-79191857D02*
X155376625Y-77112875D01*
X156941116Y-81671198D02*
X156941116Y-80576403D01*
X156948894Y-83978673D02*
X156948894Y-81678976D01*
X156065646Y-79700933D02*
X155885701Y-79700933D01*
X155885701Y-79700933D02*
X155376625Y-79191857D01*
X156948894Y-81678976D02*
X156941116Y-81671198D01*
X155376625Y-77112875D02*
X154225625Y-75961875D01*
X156941116Y-80576403D02*
X156065646Y-79700933D01*
%TO.N,GPIO7*%
X156540116Y-80888542D02*
X156506210Y-80888542D01*
X159543750Y-84018812D02*
X159334946Y-84227616D01*
X156547894Y-82550643D02*
X156540116Y-82542865D01*
X156347894Y-83729730D02*
X156547894Y-83529730D01*
X154225625Y-78607957D02*
X154225625Y-78501875D01*
X156506210Y-80888542D02*
X154225625Y-78607957D01*
X160415011Y-84306559D02*
X160415011Y-84296415D01*
X156547894Y-83529730D02*
X156547894Y-82550643D01*
X160137408Y-84018812D02*
X159543750Y-84018812D01*
X157549894Y-84227616D02*
X157197837Y-84579673D01*
X156347894Y-84227616D02*
X156347894Y-83729730D01*
X160415011Y-84296415D02*
X160137408Y-84018812D01*
X159334946Y-84227616D02*
X157549894Y-84227616D01*
X156699951Y-84579673D02*
X156347894Y-84227616D01*
X156540116Y-82542865D02*
X156540116Y-80888542D01*
X157197837Y-84579673D02*
X156699951Y-84579673D01*
%TO.N,GPIO1*%
X158339625Y-63656725D02*
X156761500Y-62078600D01*
X158530875Y-77858621D02*
X158530875Y-76315970D01*
X157943116Y-81257569D02*
X157943116Y-80617583D01*
X159081823Y-78579276D02*
X159081823Y-78409571D01*
X159142750Y-78640203D02*
X159081823Y-78579276D01*
X158339625Y-76124720D02*
X158339625Y-63656725D01*
X159081823Y-78409571D02*
X158530875Y-77858621D01*
X159142750Y-79417949D02*
X159142750Y-78640203D01*
X156761500Y-62078600D02*
X156761500Y-60717750D01*
X156761500Y-60717750D02*
X154225625Y-58181875D01*
X157943116Y-80617583D02*
X159142750Y-79417949D01*
X158530875Y-76315970D02*
X158339625Y-76124720D01*
%TO.N,GPIO29_ADC3*%
X165677663Y-76452346D02*
X165677663Y-73689435D01*
X169651703Y-80122287D02*
X169347604Y-80122287D01*
X165677663Y-73689435D02*
X167343312Y-72023786D01*
X169068750Y-69565735D02*
X169069750Y-69564735D01*
X169068750Y-71437500D02*
X169068750Y-69565735D01*
X169386827Y-83549020D02*
X169621614Y-83314233D01*
X169937513Y-81611091D02*
X169937513Y-80408097D01*
X167629542Y-83549020D02*
X169386827Y-83549020D01*
X169937513Y-80408097D02*
X169651703Y-80122287D01*
X169621614Y-81926990D02*
X169937513Y-81611091D01*
X169621614Y-83314233D02*
X169621614Y-81926990D01*
X168482464Y-72023786D02*
X169068750Y-71437500D01*
X169347604Y-80122287D02*
X165677663Y-76452346D01*
X167343312Y-72023786D02*
X168482464Y-72023786D01*
X165703717Y-81623195D02*
X167629542Y-83549020D01*
%TO.N,RUN*%
X170739513Y-82307987D02*
X172005625Y-81041875D01*
D18*
X164645525Y-85281023D02*
X164645525Y-85899622D01*
D19*
X169542090Y-84559866D02*
X170739513Y-83362443D01*
X164710007Y-84559866D02*
X169542090Y-84559866D01*
D18*
X164572379Y-85207877D02*
X164645525Y-85281023D01*
X164572379Y-84697494D02*
X164572379Y-85207877D01*
D19*
X164572379Y-84697494D02*
X164710007Y-84559866D01*
X170739513Y-83362443D02*
X170739513Y-82307987D01*
%TO.N,GPIO24*%
X165615625Y-83958866D02*
X165624471Y-83950020D01*
X170854625Y-77112875D02*
X172005625Y-75961875D01*
X170854625Y-79851583D02*
X170854625Y-77112875D01*
X170338513Y-80367695D02*
X170854625Y-79851583D01*
X170338513Y-81777191D02*
X170338513Y-80367695D01*
X169584836Y-83950020D02*
X169584836Y-83918111D01*
X165624471Y-83950020D02*
X169584836Y-83950020D01*
X169584836Y-83918111D02*
X170022614Y-83480333D01*
X170022614Y-83480333D02*
X170022614Y-82093090D01*
X170022614Y-82093090D02*
X170338513Y-81777191D01*
D18*
%TO.N,GPIO16*%
X167354797Y-98711203D02*
X172005625Y-103362031D01*
X165415625Y-86437565D02*
X167354797Y-88376737D01*
X167354797Y-88376737D02*
X167354797Y-98711203D01*
X172005625Y-103362031D02*
X172005625Y-103901875D01*
D19*
%TO.N,GPIO28_ADC2*%
X169068750Y-72004600D02*
X169469750Y-71603600D01*
X169334077Y-73192967D02*
X169627556Y-72899488D01*
X169627556Y-72484446D02*
X169334077Y-72190967D01*
X168273887Y-77219287D02*
X168273887Y-74083452D01*
X169627556Y-72899488D02*
X169627556Y-72484446D01*
X169669750Y-78332307D02*
X169317693Y-77980250D01*
X169452625Y-79377365D02*
X169257510Y-79182250D01*
X169469750Y-71603600D02*
X169469750Y-70014678D01*
X169317693Y-79182250D02*
X169669750Y-78830193D01*
X169670750Y-69315792D02*
X169582974Y-69228015D01*
X168273887Y-74083452D02*
X169164372Y-73192967D01*
X169582974Y-69228015D02*
X170503595Y-68307394D01*
X169334077Y-72190967D02*
X169068750Y-72190967D01*
X169257510Y-79182250D02*
X169317693Y-79182250D01*
X169469750Y-70014678D02*
X169670750Y-69813678D01*
X169317693Y-77980250D02*
X169034850Y-77980250D01*
X169034850Y-77980250D02*
X168273887Y-77219287D01*
X169068750Y-72190967D02*
X169068750Y-72004600D01*
X169670750Y-69813678D02*
X169670750Y-69315792D01*
X169164372Y-73192967D02*
X169334077Y-73192967D01*
X169669750Y-78830193D02*
X169669750Y-78332307D01*
%TO.N,GPIO21*%
X167090541Y-85175494D02*
X169249060Y-87334013D01*
X169542539Y-87785152D02*
X169700199Y-87785152D01*
X169249060Y-87491673D02*
X169542539Y-87785152D01*
X165734953Y-85175494D02*
X167090541Y-85175494D01*
X169249060Y-87334013D02*
X169249060Y-87491673D01*
X165719325Y-85159866D02*
X165734953Y-85175494D01*
X169700199Y-87785152D02*
X170576922Y-88661875D01*
X170576922Y-88661875D02*
X172005625Y-88661875D01*
%TO.N,SWCLK*%
X159867665Y-88047768D02*
X159831762Y-88047768D01*
D17*
X162376802Y-86920327D02*
X161296761Y-86920327D01*
X162766787Y-86301608D02*
X162766080Y-86302315D01*
X162766080Y-86302315D02*
X162766080Y-86531049D01*
D19*
X158604108Y-88507250D02*
X158574337Y-88537021D01*
X159831762Y-88047768D02*
X159372278Y-88507250D01*
X158574337Y-88537021D02*
X156736468Y-88537021D01*
X155780626Y-101011876D02*
X157162500Y-102393750D01*
X160575625Y-103425625D02*
X160575625Y-103661875D01*
X157162500Y-102393750D02*
X159543750Y-102393750D01*
X156238434Y-89035055D02*
X156238434Y-90159100D01*
X160995106Y-86920327D02*
X159867665Y-88047768D01*
X161296761Y-86920327D02*
X160995106Y-86920327D01*
X159372278Y-88507250D02*
X158604108Y-88507250D01*
X155780626Y-90616908D02*
X155780626Y-101011876D01*
X159543750Y-102393750D02*
X160575625Y-103425625D01*
X156736468Y-88537021D02*
X156238434Y-89035055D01*
X156238434Y-90159100D02*
X155780626Y-90616908D01*
D17*
X162766080Y-86531049D02*
X162376802Y-86920327D01*
D19*
%TO.N,SWD*%
X163281797Y-86110924D02*
X163281797Y-87336577D01*
X156639434Y-90325200D02*
X156181626Y-90783008D01*
X156181626Y-90783008D02*
X156181626Y-100845776D01*
D17*
X156894284Y-88918021D02*
X157974271Y-88918021D01*
D19*
X163281797Y-87336577D02*
X161657803Y-88960571D01*
X161023217Y-85107477D02*
X161135642Y-85107477D01*
X161844163Y-84671876D02*
X162137642Y-84965355D01*
X162137642Y-85107477D02*
X162278350Y-85107477D01*
D17*
X156619434Y-89192871D02*
X156894284Y-88918021D01*
D19*
X163267080Y-86096207D02*
X163281797Y-86110924D01*
X161135642Y-84965355D02*
X161429121Y-84671876D01*
X156639434Y-89735232D02*
X156639434Y-90325200D01*
D17*
X156639434Y-89735232D02*
X156619434Y-89715232D01*
D19*
X163986500Y-101992750D02*
X165655625Y-103661875D01*
D17*
X157974271Y-88918021D02*
X157994271Y-88938021D01*
D19*
X156181626Y-100845776D02*
X157328600Y-101992750D01*
X157328600Y-101992750D02*
X163986500Y-101992750D01*
D17*
X157994271Y-88938021D02*
X161635253Y-88938021D01*
D19*
X161657803Y-88960571D02*
X161635253Y-88938021D01*
D17*
X156619434Y-89715232D02*
X156619434Y-89192871D01*
D19*
X162972188Y-85801315D02*
X162973601Y-85801315D01*
X162278350Y-85107477D02*
X162972188Y-85801315D01*
X162973601Y-85801315D02*
X163267080Y-86094794D01*
X162137642Y-84965355D02*
X162137642Y-85107477D01*
X163267080Y-86094794D02*
X163267080Y-86096207D01*
X161135642Y-85107477D02*
X161135642Y-84965355D01*
X161429121Y-84671876D02*
X161844163Y-84671876D01*
D18*
%TO.N,SS*%
X158743707Y-87245250D02*
X156792854Y-87245250D01*
X159241370Y-91561874D02*
X157791401Y-90111905D01*
X156237759Y-79231490D02*
X156520338Y-78948911D01*
X156520338Y-78948911D02*
X157966352Y-78948911D01*
X154861213Y-84517479D02*
X156179116Y-83199576D01*
X156138404Y-81071980D02*
X156040116Y-81170268D01*
X154861213Y-84807464D02*
X154861213Y-84517479D01*
X157791401Y-90111905D02*
X157197304Y-89517808D01*
X159241370Y-92810943D02*
X159241370Y-91561874D01*
X156179116Y-83199576D02*
X156179116Y-81071980D01*
X156179116Y-81071980D02*
X156138404Y-81071980D01*
X157197304Y-89517808D02*
X157197304Y-89398021D01*
X156792854Y-87245250D02*
X156029101Y-86481497D01*
%TD*%
%TA.AperFunction,Conductor*%
%TO.N,GND*%
G36*
X156185329Y-102266260D02*
G01*
X156191807Y-102272292D01*
X156681978Y-102762463D01*
X156681980Y-102762466D01*
X156793784Y-102874270D01*
X156840732Y-102901375D01*
X156895964Y-102933263D01*
X156930709Y-102953324D01*
X156930710Y-102953325D01*
X156930712Y-102953325D01*
X156930715Y-102953327D01*
X157083443Y-102994251D01*
X157083446Y-102994251D01*
X157249153Y-102994251D01*
X157249169Y-102994250D01*
X159101125Y-102994250D01*
X159168164Y-103013935D01*
X159213919Y-103066739D01*
X159225125Y-103118250D01*
X159225125Y-104559745D01*
X159225126Y-104559751D01*
X159232363Y-104627071D01*
X159230967Y-104627220D01*
X159227675Y-104688631D01*
X159186807Y-104745302D01*
X159121788Y-104770882D01*
X159110739Y-104771375D01*
X155500644Y-104771375D01*
X155433605Y-104751690D01*
X155387850Y-104698886D01*
X155377906Y-104629728D01*
X155390159Y-104591080D01*
X155415339Y-104541661D01*
X155477182Y-104420287D01*
X155542871Y-104218118D01*
X155576125Y-104008162D01*
X155576125Y-103795588D01*
X155542871Y-103585632D01*
X155529131Y-103543348D01*
X155527137Y-103473510D01*
X155559380Y-103417353D01*
X155738132Y-103238602D01*
X155738137Y-103238598D01*
X155748340Y-103228394D01*
X155748342Y-103228394D01*
X155860146Y-103116590D01*
X155930777Y-102994253D01*
X155930778Y-102994252D01*
X155934196Y-102988330D01*
X155939203Y-102979659D01*
X155980127Y-102826931D01*
X155980127Y-102668817D01*
X155980127Y-102661222D01*
X155980126Y-102661204D01*
X155980126Y-102359973D01*
X155999811Y-102292934D01*
X156052615Y-102247179D01*
X156121773Y-102237235D01*
X156185329Y-102266260D01*
G37*
%TD.AperFunction*%
%TA.AperFunction,Conductor*%
G36*
X164230895Y-104423592D02*
G01*
X164230895Y-104423591D01*
X164270247Y-104369430D01*
X164274857Y-104360382D01*
X164322830Y-104309584D01*
X164390650Y-104292787D01*
X164456786Y-104315322D01*
X164495829Y-104360379D01*
X164500574Y-104369692D01*
X164625515Y-104541661D01*
X164643548Y-104559694D01*
X164677033Y-104621017D01*
X164672049Y-104690709D01*
X164630177Y-104746642D01*
X164564713Y-104771059D01*
X164555867Y-104771375D01*
X163922933Y-104771375D01*
X163855894Y-104751690D01*
X163835252Y-104735056D01*
X163245033Y-104144837D01*
X163308618Y-104127800D01*
X163422632Y-104061974D01*
X163515724Y-103968882D01*
X163581550Y-103854868D01*
X163598587Y-103791284D01*
X164230895Y-104423592D01*
G37*
%TD.AperFunction*%
%TA.AperFunction,Conductor*%
G36*
X163305731Y-88264390D02*
G01*
X163350078Y-88292891D01*
X164330848Y-89273661D01*
X164330858Y-89273672D01*
X164439547Y-89382361D01*
X164491409Y-89412303D01*
X164546338Y-89444016D01*
X164567356Y-89456151D01*
X164707043Y-89493580D01*
X164710178Y-89494602D01*
X164714448Y-89497528D01*
X164740636Y-89509394D01*
X164808320Y-89554619D01*
X164808333Y-89554626D01*
X164915914Y-89599187D01*
X164935810Y-89607428D01*
X165005327Y-89621256D01*
X165067235Y-89653639D01*
X165068815Y-89655191D01*
X165616449Y-90202825D01*
X165649934Y-90264148D01*
X165652768Y-90290506D01*
X165652768Y-91785637D01*
X165633083Y-91852676D01*
X165616449Y-91873318D01*
X163274572Y-94215194D01*
X163200780Y-94343004D01*
X163172820Y-94447356D01*
X163162583Y-94485560D01*
X163162583Y-95917265D01*
X163162583Y-96064849D01*
X163174203Y-96108216D01*
X163194330Y-96183332D01*
X163198181Y-96197703D01*
X163200780Y-96207402D01*
X163261418Y-96312431D01*
X163274572Y-96335213D01*
X163385993Y-96446634D01*
X163385999Y-96446639D01*
X164436564Y-97497204D01*
X164436574Y-97497215D01*
X164440904Y-97501545D01*
X164440905Y-97501546D01*
X164545262Y-97605903D01*
X164672949Y-97679623D01*
X164673072Y-97679694D01*
X164815625Y-97717891D01*
X164815626Y-97717891D01*
X165779915Y-97717891D01*
X165846954Y-97737576D01*
X165848797Y-97738783D01*
X165907631Y-97778095D01*
X165907632Y-97778095D01*
X165907633Y-97778096D01*
X165907635Y-97778097D01*
X166035109Y-97830898D01*
X166035114Y-97830900D01*
X166035118Y-97830900D01*
X166035119Y-97830901D01*
X166170446Y-97857820D01*
X166170449Y-97857820D01*
X166308437Y-97857820D01*
X166399483Y-97839709D01*
X166443770Y-97830900D01*
X166571253Y-97778095D01*
X166601405Y-97757947D01*
X166668081Y-97737069D01*
X166735462Y-97755552D01*
X166782153Y-97807530D01*
X166794297Y-97861049D01*
X166794297Y-98784994D01*
X166832494Y-98927548D01*
X166858327Y-98972293D01*
X166906286Y-99055359D01*
X167017707Y-99166780D01*
X167017713Y-99166785D01*
X170857497Y-103006569D01*
X170890982Y-103067892D01*
X170885998Y-103137584D01*
X170870136Y-103167132D01*
X170850577Y-103194053D01*
X170850573Y-103194060D01*
X170754069Y-103383460D01*
X170688378Y-103585635D01*
X170688378Y-103585637D01*
X170655125Y-103795588D01*
X170655125Y-104008162D01*
X170688379Y-104218118D01*
X170737628Y-104369691D01*
X170754069Y-104420289D01*
X170841091Y-104591080D01*
X170853987Y-104659750D01*
X170827711Y-104724490D01*
X170770604Y-104764747D01*
X170730606Y-104771375D01*
X166755383Y-104771375D01*
X166688344Y-104751690D01*
X166642589Y-104698886D01*
X166632645Y-104629728D01*
X166661670Y-104566172D01*
X166667702Y-104559694D01*
X166685729Y-104541667D01*
X166685731Y-104541663D01*
X166685734Y-104541661D01*
X166810673Y-104369695D01*
X166810675Y-104369692D01*
X166810676Y-104369691D01*
X166907182Y-104180287D01*
X166972871Y-103978118D01*
X167006125Y-103768162D01*
X167006125Y-103555588D01*
X166972871Y-103345632D01*
X166907182Y-103143463D01*
X166810676Y-102954059D01*
X166810674Y-102954056D01*
X166810673Y-102954054D01*
X166685734Y-102782088D01*
X166535411Y-102631765D01*
X166363445Y-102506826D01*
X166174039Y-102410319D01*
X166174038Y-102410318D01*
X166174037Y-102410318D01*
X165971868Y-102344629D01*
X165971866Y-102344628D01*
X165971865Y-102344628D01*
X165810582Y-102319083D01*
X165761912Y-102311375D01*
X165549338Y-102311375D01*
X165520631Y-102315921D01*
X165339382Y-102344628D01*
X165297098Y-102358367D01*
X165227257Y-102360361D01*
X165171101Y-102328116D01*
X164474090Y-101631105D01*
X164474088Y-101631102D01*
X164355217Y-101512231D01*
X164355209Y-101512225D01*
X164265472Y-101460416D01*
X164265470Y-101460415D01*
X164218290Y-101433175D01*
X164218289Y-101433174D01*
X164205763Y-101429817D01*
X164065557Y-101392249D01*
X163907443Y-101392249D01*
X163899847Y-101392249D01*
X163899831Y-101392250D01*
X157628697Y-101392250D01*
X157561658Y-101372565D01*
X157541016Y-101355931D01*
X156818445Y-100633360D01*
X156784960Y-100572037D01*
X156782126Y-100545679D01*
X156782126Y-91083104D01*
X156801811Y-91016065D01*
X156818441Y-90995427D01*
X156997940Y-90815927D01*
X156997945Y-90815924D01*
X157008148Y-90805720D01*
X157008150Y-90805720D01*
X157119954Y-90693916D01*
X157177929Y-90593500D01*
X157199011Y-90556985D01*
X157200029Y-90553182D01*
X157205558Y-90543113D01*
X157225700Y-90523061D01*
X157243524Y-90500939D01*
X157250134Y-90498737D01*
X157255075Y-90493820D01*
X157282860Y-90487841D01*
X157309815Y-90478867D01*
X157316566Y-90480589D01*
X157323382Y-90479123D01*
X157349985Y-90489114D01*
X157377517Y-90496138D01*
X157385784Y-90502559D01*
X157388791Y-90503689D01*
X157390924Y-90506552D01*
X157401936Y-90515106D01*
X158644551Y-91757721D01*
X158678036Y-91819044D01*
X158680870Y-91845402D01*
X158680870Y-92351308D01*
X158661185Y-92418347D01*
X158659972Y-92420199D01*
X158620598Y-92479125D01*
X158620591Y-92479138D01*
X158567791Y-92606610D01*
X158567788Y-92606620D01*
X158540870Y-92741947D01*
X158540870Y-92741950D01*
X158540870Y-92879936D01*
X158540870Y-92879938D01*
X158540869Y-92879938D01*
X158567788Y-93015265D01*
X158567791Y-93015275D01*
X158620591Y-93142747D01*
X158620598Y-93142760D01*
X158697255Y-93257484D01*
X158697258Y-93257488D01*
X158794824Y-93355054D01*
X158794828Y-93355057D01*
X158909552Y-93431714D01*
X158909565Y-93431721D01*
X159037037Y-93484521D01*
X159037042Y-93484523D01*
X159037046Y-93484523D01*
X159037047Y-93484524D01*
X159172374Y-93511443D01*
X159172377Y-93511443D01*
X159310365Y-93511443D01*
X159401411Y-93493332D01*
X159445698Y-93484523D01*
X159573181Y-93431718D01*
X159687912Y-93355057D01*
X159785484Y-93257485D01*
X159862145Y-93142754D01*
X159914950Y-93015271D01*
X159941870Y-92879936D01*
X159941870Y-92741950D01*
X159941870Y-92741947D01*
X159914951Y-92606620D01*
X159914950Y-92606619D01*
X159914950Y-92606615D01*
X159900330Y-92571319D01*
X159862148Y-92479138D01*
X159862141Y-92479125D01*
X159822768Y-92420199D01*
X159801890Y-92353521D01*
X159801870Y-92351308D01*
X159801870Y-91488085D01*
X159801870Y-91488083D01*
X159763673Y-91345529D01*
X159689882Y-91217719D01*
X159585525Y-91113362D01*
X159585524Y-91113361D01*
X158202363Y-89730201D01*
X158168879Y-89668879D01*
X158173863Y-89599187D01*
X158215735Y-89543254D01*
X158281199Y-89518837D01*
X158290045Y-89518521D01*
X161403621Y-89518521D01*
X161435712Y-89522745D01*
X161578746Y-89561072D01*
X161578749Y-89561072D01*
X161736859Y-89561072D01*
X161736861Y-89561072D01*
X161889588Y-89520148D01*
X162026519Y-89441091D01*
X162138323Y-89329287D01*
X162138323Y-89329285D01*
X162148527Y-89319082D01*
X162148531Y-89319077D01*
X163174718Y-88292889D01*
X163236039Y-88259406D01*
X163305731Y-88264390D01*
G37*
%TD.AperFunction*%
%TA.AperFunction,Conductor*%
G36*
X166857483Y-85795679D02*
G01*
X166878125Y-85812313D01*
X168629462Y-87563650D01*
X168634362Y-87572138D01*
X168641323Y-87577389D01*
X168658123Y-87608429D01*
X168660088Y-87613757D01*
X168689483Y-87723458D01*
X168714798Y-87767305D01*
X168756145Y-87838920D01*
X168768541Y-87860390D01*
X168887409Y-87979258D01*
X168887415Y-87979263D01*
X169057678Y-88149526D01*
X169057688Y-88149537D01*
X169062018Y-88153867D01*
X169062019Y-88153868D01*
X169173823Y-88265672D01*
X169255925Y-88313073D01*
X169310754Y-88344729D01*
X169421097Y-88374295D01*
X169427016Y-88376550D01*
X169443806Y-88389301D01*
X169470559Y-88404747D01*
X170208206Y-89142395D01*
X170208208Y-89142396D01*
X170208212Y-89142399D01*
X170345131Y-89221448D01*
X170345138Y-89221452D01*
X170497865Y-89262376D01*
X170497867Y-89262376D01*
X170663576Y-89262376D01*
X170663592Y-89262375D01*
X170719906Y-89262375D01*
X170786945Y-89282060D01*
X170830390Y-89330080D01*
X170850572Y-89369689D01*
X170850573Y-89369690D01*
X170975515Y-89541661D01*
X171125838Y-89691984D01*
X171297807Y-89816925D01*
X171306571Y-89821391D01*
X171357367Y-89869366D01*
X171374161Y-89937187D01*
X171351623Y-90003322D01*
X171306571Y-90042359D01*
X171297807Y-90046824D01*
X171125838Y-90171765D01*
X170975515Y-90322088D01*
X170850576Y-90494054D01*
X170754069Y-90683460D01*
X170688378Y-90885635D01*
X170655125Y-91095588D01*
X170655125Y-91308161D01*
X170688378Y-91518114D01*
X170754069Y-91720289D01*
X170850576Y-91909695D01*
X170975515Y-92081661D01*
X171125838Y-92231984D01*
X171297807Y-92356925D01*
X171306571Y-92361391D01*
X171357367Y-92409366D01*
X171374161Y-92477187D01*
X171351623Y-92543322D01*
X171306571Y-92582359D01*
X171297807Y-92586824D01*
X171125838Y-92711765D01*
X170975515Y-92862088D01*
X170850576Y-93034054D01*
X170754069Y-93223460D01*
X170688378Y-93425635D01*
X170655125Y-93635588D01*
X170655125Y-93848162D01*
X170688379Y-94058118D01*
X170739416Y-94215194D01*
X170754069Y-94260289D01*
X170850576Y-94449695D01*
X170975515Y-94621661D01*
X171125838Y-94771984D01*
X171297807Y-94896925D01*
X171306571Y-94901391D01*
X171357367Y-94949366D01*
X171374161Y-95017187D01*
X171351623Y-95083322D01*
X171306571Y-95122359D01*
X171297807Y-95126824D01*
X171125838Y-95251765D01*
X170975515Y-95402088D01*
X170850576Y-95574054D01*
X170754069Y-95763460D01*
X170688378Y-95965635D01*
X170655125Y-96175588D01*
X170655125Y-96388161D01*
X170688184Y-96596891D01*
X170688379Y-96598118D01*
X170696576Y-96623347D01*
X170754069Y-96800289D01*
X170850576Y-96989695D01*
X170975515Y-97161661D01*
X171125838Y-97311984D01*
X171297804Y-97436923D01*
X171297806Y-97436924D01*
X171297809Y-97436926D01*
X171307118Y-97441669D01*
X171357915Y-97489641D01*
X171374712Y-97557462D01*
X171352177Y-97623597D01*
X171307130Y-97662635D01*
X171298071Y-97667251D01*
X171298065Y-97667255D01*
X171243907Y-97706602D01*
X171243907Y-97706603D01*
X171876216Y-98338912D01*
X171812632Y-98355950D01*
X171698618Y-98421776D01*
X171605526Y-98514868D01*
X171539700Y-98628882D01*
X171522662Y-98692466D01*
X170890353Y-98060157D01*
X170890352Y-98060157D01*
X170851005Y-98114314D01*
X170754529Y-98303657D01*
X170688867Y-98505744D01*
X170688867Y-98505747D01*
X170655625Y-98715628D01*
X170655625Y-98928121D01*
X170688867Y-99138002D01*
X170688867Y-99138005D01*
X170754529Y-99340092D01*
X170851000Y-99529425D01*
X170890353Y-99583591D01*
X171522662Y-98951283D01*
X171539700Y-99014868D01*
X171605526Y-99128882D01*
X171698618Y-99221974D01*
X171812632Y-99287800D01*
X171876215Y-99304837D01*
X171243907Y-99937144D01*
X171243907Y-99937145D01*
X171298077Y-99976501D01*
X171298076Y-99976501D01*
X171307120Y-99981109D01*
X171357917Y-100029083D01*
X171374712Y-100096904D01*
X171352175Y-100163039D01*
X171307124Y-100202077D01*
X171297807Y-100206824D01*
X171125838Y-100331765D01*
X170975515Y-100482088D01*
X170850576Y-100654054D01*
X170754069Y-100843458D01*
X170700270Y-101009036D01*
X170660832Y-101066711D01*
X170596473Y-101093909D01*
X170527627Y-101081994D01*
X170494658Y-101058398D01*
X167951616Y-98515356D01*
X167918131Y-98454033D01*
X167915297Y-98427675D01*
X167915297Y-96690386D01*
X167934982Y-96623347D01*
X167987786Y-96577592D01*
X168039297Y-96566386D01*
X168063370Y-96566386D01*
X168154416Y-96548275D01*
X168198703Y-96539466D01*
X168326186Y-96486661D01*
X168440917Y-96410000D01*
X168538489Y-96312428D01*
X168615150Y-96197697D01*
X168667955Y-96070214D01*
X168681782Y-96000694D01*
X168714166Y-95938787D01*
X168715659Y-95937267D01*
X169517262Y-95135666D01*
X169591053Y-95007856D01*
X169629250Y-94865302D01*
X169629250Y-94717719D01*
X169629250Y-90947133D01*
X169648935Y-90880094D01*
X169650148Y-90878242D01*
X169689525Y-90819311D01*
X169742330Y-90691828D01*
X169761889Y-90593500D01*
X169769250Y-90556495D01*
X169769250Y-90418504D01*
X169742331Y-90283177D01*
X169742330Y-90283176D01*
X169742330Y-90283172D01*
X169724093Y-90239144D01*
X169689528Y-90155695D01*
X169689521Y-90155682D01*
X169612864Y-90040958D01*
X169612861Y-90040954D01*
X169515295Y-89943388D01*
X169515291Y-89943385D01*
X169400567Y-89866728D01*
X169400554Y-89866721D01*
X169273082Y-89813921D01*
X169273072Y-89813918D01*
X169137745Y-89787000D01*
X169137743Y-89787000D01*
X168999757Y-89787000D01*
X168999755Y-89787000D01*
X168864427Y-89813918D01*
X168864417Y-89813921D01*
X168736945Y-89866721D01*
X168736932Y-89866728D01*
X168622208Y-89943385D01*
X168622204Y-89943388D01*
X168524638Y-90040954D01*
X168524635Y-90040958D01*
X168447978Y-90155682D01*
X168447971Y-90155695D01*
X168395171Y-90283167D01*
X168395168Y-90283177D01*
X168368250Y-90418504D01*
X168368250Y-90418507D01*
X168368250Y-90556493D01*
X168368250Y-90556495D01*
X168368249Y-90556495D01*
X168395168Y-90691822D01*
X168395171Y-90691832D01*
X168447972Y-90819306D01*
X168447973Y-90819307D01*
X168447975Y-90819311D01*
X168487352Y-90878242D01*
X168508230Y-90944919D01*
X168508250Y-90947133D01*
X168508250Y-94507982D01*
X168488565Y-94575021D01*
X168471931Y-94595663D01*
X168126978Y-94940616D01*
X168065655Y-94974101D01*
X167995963Y-94969117D01*
X167940030Y-94927245D01*
X167915613Y-94861781D01*
X167915297Y-94852935D01*
X167915297Y-88302946D01*
X167911629Y-88289258D01*
X167877100Y-88160392D01*
X167864161Y-88137981D01*
X167819277Y-88060240D01*
X167803311Y-88032585D01*
X167803310Y-88032584D01*
X167803309Y-88032582D01*
X167698952Y-87928225D01*
X167698951Y-87928224D01*
X167694621Y-87923894D01*
X167694610Y-87923884D01*
X166136968Y-86366242D01*
X166103483Y-86304919D01*
X166103058Y-86302884D01*
X166089205Y-86233237D01*
X166077724Y-86205520D01*
X166036403Y-86105760D01*
X166036396Y-86105747D01*
X165956355Y-85985958D01*
X165957466Y-85985215D01*
X165949600Y-85966695D01*
X165935843Y-85943507D01*
X165936146Y-85935018D01*
X165932826Y-85927201D01*
X165937375Y-85900624D01*
X165938339Y-85873682D01*
X165943182Y-85866706D01*
X165944616Y-85858334D01*
X165962812Y-85838436D01*
X165978189Y-85816291D01*
X165988846Y-85809968D01*
X165991768Y-85806773D01*
X166008526Y-85798290D01*
X166039572Y-85785430D01*
X166087020Y-85775994D01*
X166790444Y-85775994D01*
X166857483Y-85795679D01*
G37*
%TD.AperFunction*%
%TA.AperFunction,Conductor*%
G36*
X173078806Y-99541502D02*
G01*
X173112291Y-99602825D01*
X173115125Y-99629183D01*
X173115125Y-100262117D01*
X173095440Y-100329156D01*
X173042636Y-100374911D01*
X172973478Y-100384855D01*
X172909922Y-100355830D01*
X172903444Y-100349798D01*
X172885411Y-100331765D01*
X172713442Y-100206824D01*
X172704129Y-100202079D01*
X172653332Y-100154105D01*
X172636537Y-100086284D01*
X172659074Y-100020149D01*
X172704132Y-99981107D01*
X172713180Y-99976497D01*
X172767341Y-99937145D01*
X172767342Y-99937145D01*
X172135033Y-99304837D01*
X172198618Y-99287800D01*
X172312632Y-99221974D01*
X172405724Y-99128882D01*
X172471550Y-99014868D01*
X172488587Y-98951283D01*
X173078806Y-99541502D01*
G37*
%TD.AperFunction*%
%TA.AperFunction,Conductor*%
G36*
X153759700Y-99014868D02*
G01*
X153825526Y-99128882D01*
X153918618Y-99221974D01*
X154032632Y-99287800D01*
X154096214Y-99304837D01*
X153463907Y-99937144D01*
X153463907Y-99937145D01*
X153518077Y-99976501D01*
X153518076Y-99976501D01*
X153527120Y-99981109D01*
X153577917Y-100029083D01*
X153594712Y-100096904D01*
X153572175Y-100163039D01*
X153527124Y-100202077D01*
X153517807Y-100206824D01*
X153345838Y-100331765D01*
X153345834Y-100331769D01*
X153327806Y-100349798D01*
X153266483Y-100383283D01*
X153196791Y-100378299D01*
X153140858Y-100336427D01*
X153116441Y-100270963D01*
X153116125Y-100262117D01*
X153116125Y-99629183D01*
X153135810Y-99562144D01*
X153152444Y-99541502D01*
X153742662Y-98951283D01*
X153759700Y-99014868D01*
G37*
%TD.AperFunction*%
%TA.AperFunction,Conductor*%
G36*
X153321328Y-97287920D02*
G01*
X153327806Y-97293952D01*
X153345838Y-97311984D01*
X153517804Y-97436923D01*
X153517806Y-97436924D01*
X153517809Y-97436926D01*
X153527118Y-97441669D01*
X153577915Y-97489641D01*
X153594712Y-97557462D01*
X153572177Y-97623597D01*
X153527130Y-97662635D01*
X153518071Y-97667251D01*
X153518065Y-97667255D01*
X153463907Y-97706602D01*
X153463907Y-97706603D01*
X154096216Y-98338912D01*
X154032632Y-98355950D01*
X153918618Y-98421776D01*
X153825526Y-98514868D01*
X153759700Y-98628882D01*
X153742662Y-98692466D01*
X153152444Y-98102248D01*
X153118959Y-98040925D01*
X153116125Y-98014567D01*
X153116125Y-97381633D01*
X153135810Y-97314594D01*
X153188614Y-97268839D01*
X153257772Y-97258895D01*
X153321328Y-97287920D01*
G37*
%TD.AperFunction*%
%TA.AperFunction,Conductor*%
G36*
X173034459Y-97265451D02*
G01*
X173090392Y-97307323D01*
X173114809Y-97372787D01*
X173115125Y-97381633D01*
X173115125Y-98014567D01*
X173095440Y-98081606D01*
X173078806Y-98102248D01*
X172488587Y-98692466D01*
X172471550Y-98628882D01*
X172405724Y-98514868D01*
X172312632Y-98421776D01*
X172198618Y-98355950D01*
X172135034Y-98338912D01*
X172767341Y-97706603D01*
X172713172Y-97667248D01*
X172713172Y-97667247D01*
X172704125Y-97662638D01*
X172653331Y-97614663D01*
X172636537Y-97546841D01*
X172659076Y-97480707D01*
X172704133Y-97441668D01*
X172713441Y-97436926D01*
X172801721Y-97372787D01*
X172885411Y-97311984D01*
X172885413Y-97311981D01*
X172885417Y-97311979D01*
X172903444Y-97293952D01*
X172964767Y-97260467D01*
X173034459Y-97265451D01*
G37*
%TD.AperFunction*%
%TA.AperFunction,Conductor*%
G36*
X166713631Y-92463983D02*
G01*
X166769564Y-92505855D01*
X166793981Y-92571319D01*
X166794297Y-92580165D01*
X166794297Y-96453590D01*
X166774612Y-96520629D01*
X166721808Y-96566384D01*
X166652650Y-96576328D01*
X166601406Y-96556692D01*
X166571259Y-96536548D01*
X166571246Y-96536541D01*
X166443774Y-96483741D01*
X166443764Y-96483738D01*
X166308437Y-96456820D01*
X166308435Y-96456820D01*
X166170449Y-96456820D01*
X166170447Y-96456820D01*
X166035119Y-96483738D01*
X166035109Y-96483741D01*
X165907637Y-96536541D01*
X165907630Y-96536545D01*
X165877995Y-96556347D01*
X165848592Y-96575993D01*
X165781916Y-96596871D01*
X165779702Y-96596891D01*
X165172945Y-96596891D01*
X165105906Y-96577206D01*
X165085264Y-96560572D01*
X164319902Y-95795210D01*
X164286417Y-95733887D01*
X164283583Y-95707529D01*
X164283583Y-94842879D01*
X164303268Y-94775840D01*
X164319902Y-94755198D01*
X165439512Y-93635588D01*
X166582618Y-92492482D01*
X166643939Y-92458999D01*
X166713631Y-92463983D01*
G37*
%TD.AperFunction*%
%TA.AperFunction,Conductor*%
G36*
X170799363Y-84254340D02*
G01*
X170855296Y-84296212D01*
X170856289Y-84297557D01*
X170930120Y-84399177D01*
X170975521Y-84461667D01*
X171125838Y-84611984D01*
X171297804Y-84736923D01*
X171297806Y-84736924D01*
X171297809Y-84736926D01*
X171307118Y-84741669D01*
X171357915Y-84789641D01*
X171374712Y-84857462D01*
X171352177Y-84923597D01*
X171307130Y-84962635D01*
X171298071Y-84967251D01*
X171298065Y-84967255D01*
X171243907Y-85006602D01*
X171243907Y-85006603D01*
X171876216Y-85638912D01*
X171812632Y-85655950D01*
X171698618Y-85721776D01*
X171605526Y-85814868D01*
X171539700Y-85928882D01*
X171522662Y-85992466D01*
X170890353Y-85360157D01*
X170890352Y-85360157D01*
X170851005Y-85414314D01*
X170754529Y-85603657D01*
X170688867Y-85805744D01*
X170688867Y-85805747D01*
X170655625Y-86015628D01*
X170655625Y-86228121D01*
X170688867Y-86438002D01*
X170688867Y-86438005D01*
X170754529Y-86640092D01*
X170851000Y-86829425D01*
X170890353Y-86883591D01*
X171522662Y-86251283D01*
X171539700Y-86314868D01*
X171605526Y-86428882D01*
X171698618Y-86521974D01*
X171812632Y-86587800D01*
X171876215Y-86604837D01*
X171243907Y-87237144D01*
X171243907Y-87237145D01*
X171298077Y-87276501D01*
X171298076Y-87276501D01*
X171307120Y-87281109D01*
X171357917Y-87329083D01*
X171374712Y-87396904D01*
X171352175Y-87463039D01*
X171307124Y-87502077D01*
X171297807Y-87506824D01*
X171125838Y-87631765D01*
X170975519Y-87782084D01*
X170880266Y-87913189D01*
X170824936Y-87955854D01*
X170755322Y-87961833D01*
X170693527Y-87929227D01*
X170692267Y-87927984D01*
X170187789Y-87423507D01*
X170187787Y-87423504D01*
X170068916Y-87304633D01*
X170068915Y-87304632D01*
X169978390Y-87252368D01*
X169931984Y-87225575D01*
X169894323Y-87215483D01*
X169885315Y-87211454D01*
X169865936Y-87194924D01*
X169844192Y-87181670D01*
X169838782Y-87171762D01*
X169832157Y-87166111D01*
X169827773Y-87151601D01*
X169816174Y-87130357D01*
X169808637Y-87102228D01*
X169771317Y-87037589D01*
X169729580Y-86965297D01*
X169617776Y-86853493D01*
X169617775Y-86853492D01*
X169613445Y-86849162D01*
X169613434Y-86849152D01*
X168136329Y-85372047D01*
X168102844Y-85310724D01*
X168107828Y-85241032D01*
X168149700Y-85185099D01*
X168215164Y-85160682D01*
X168224010Y-85160366D01*
X169455421Y-85160366D01*
X169455437Y-85160367D01*
X169463033Y-85160367D01*
X169621144Y-85160367D01*
X169621147Y-85160367D01*
X169773875Y-85119443D01*
X169823994Y-85090505D01*
X169910806Y-85040386D01*
X170022610Y-84928582D01*
X170022610Y-84928580D01*
X170032818Y-84918373D01*
X170032820Y-84918370D01*
X170668350Y-84282839D01*
X170729671Y-84249356D01*
X170799363Y-84254340D01*
G37*
%TD.AperFunction*%
%TA.AperFunction,Conductor*%
G36*
X173078806Y-86841502D02*
G01*
X173112291Y-86902825D01*
X173115125Y-86929183D01*
X173115125Y-87562117D01*
X173095440Y-87629156D01*
X173042636Y-87674911D01*
X172973478Y-87684855D01*
X172909922Y-87655830D01*
X172903444Y-87649798D01*
X172885411Y-87631765D01*
X172713442Y-87506824D01*
X172704129Y-87502079D01*
X172653332Y-87454105D01*
X172636537Y-87386284D01*
X172659074Y-87320149D01*
X172704132Y-87281107D01*
X172713180Y-87276497D01*
X172767341Y-87237145D01*
X172767342Y-87237145D01*
X172135033Y-86604837D01*
X172198618Y-86587800D01*
X172312632Y-86521974D01*
X172405724Y-86428882D01*
X172471550Y-86314868D01*
X172488587Y-86251283D01*
X173078806Y-86841502D01*
G37*
%TD.AperFunction*%
%TA.AperFunction,Conductor*%
G36*
X153759700Y-86314868D02*
G01*
X153825526Y-86428882D01*
X153918618Y-86521974D01*
X154032632Y-86587800D01*
X154096214Y-86604837D01*
X153463907Y-87237144D01*
X153463907Y-87237145D01*
X153518077Y-87276501D01*
X153518076Y-87276501D01*
X153527120Y-87281109D01*
X153577917Y-87329083D01*
X153594712Y-87396904D01*
X153572175Y-87463039D01*
X153527124Y-87502077D01*
X153517807Y-87506824D01*
X153345838Y-87631765D01*
X153345834Y-87631769D01*
X153327806Y-87649798D01*
X153266483Y-87683283D01*
X153196791Y-87678299D01*
X153140858Y-87636427D01*
X153116441Y-87570963D01*
X153116125Y-87562117D01*
X153116125Y-86929183D01*
X153135810Y-86862144D01*
X153152444Y-86841502D01*
X153742662Y-86251283D01*
X153759700Y-86314868D01*
G37*
%TD.AperFunction*%
%TA.AperFunction,Conductor*%
G36*
X159263312Y-85248801D02*
G01*
X159283954Y-85265435D01*
X159583391Y-85564872D01*
X159583401Y-85564883D01*
X159587731Y-85569213D01*
X159587732Y-85569214D01*
X159699536Y-85681018D01*
X159786347Y-85731137D01*
X159836467Y-85760075D01*
X159864144Y-85767490D01*
X159874264Y-85772279D01*
X159892327Y-85788364D01*
X159912980Y-85800952D01*
X159924328Y-85815470D01*
X159946025Y-85847942D01*
X159960746Y-85869974D01*
X160058313Y-85967541D01*
X160058317Y-85967544D01*
X160173041Y-86044201D01*
X160173048Y-86044205D01*
X160200889Y-86055737D01*
X160255292Y-86099576D01*
X160277358Y-86165870D01*
X160260080Y-86233570D01*
X160241118Y-86257979D01*
X159559748Y-86939348D01*
X159498425Y-86972833D01*
X159428733Y-86967849D01*
X159372800Y-86925977D01*
X159367991Y-86918421D01*
X159367867Y-86918504D01*
X159287821Y-86798708D01*
X159287818Y-86798704D01*
X159190252Y-86701138D01*
X159190248Y-86701135D01*
X159075524Y-86624478D01*
X159075511Y-86624471D01*
X158948039Y-86571671D01*
X158948029Y-86571668D01*
X158812702Y-86544750D01*
X158812700Y-86544750D01*
X158674714Y-86544750D01*
X158674712Y-86544750D01*
X158539384Y-86571668D01*
X158539374Y-86571671D01*
X158411902Y-86624471D01*
X158411890Y-86624478D01*
X158352964Y-86663852D01*
X158286287Y-86684730D01*
X158284073Y-86684750D01*
X157076383Y-86684750D01*
X157067993Y-86682286D01*
X157059345Y-86683574D01*
X157034979Y-86672592D01*
X157009344Y-86665065D01*
X157003619Y-86658458D01*
X156995646Y-86654865D01*
X156988702Y-86648431D01*
X156877452Y-86537181D01*
X156843967Y-86475858D01*
X156848951Y-86406166D01*
X156890823Y-86350233D01*
X156956287Y-86325816D01*
X156965133Y-86325500D01*
X157075831Y-86325500D01*
X157075847Y-86325501D01*
X157083443Y-86325501D01*
X157241554Y-86325501D01*
X157241557Y-86325501D01*
X157394285Y-86284577D01*
X157483208Y-86233237D01*
X157483212Y-86233235D01*
X157531209Y-86205524D01*
X157531208Y-86205524D01*
X157531216Y-86205520D01*
X157643020Y-86093716D01*
X157643020Y-86093714D01*
X157653224Y-86083511D01*
X157653227Y-86083506D01*
X158471300Y-85265435D01*
X158532623Y-85231950D01*
X158558981Y-85229116D01*
X159196273Y-85229116D01*
X159263312Y-85248801D01*
G37*
%TD.AperFunction*%
%TA.AperFunction,Conductor*%
G36*
X153321328Y-84587920D02*
G01*
X153327806Y-84593952D01*
X153345838Y-84611984D01*
X153517804Y-84736923D01*
X153517806Y-84736924D01*
X153517809Y-84736926D01*
X153527118Y-84741669D01*
X153577915Y-84789641D01*
X153594712Y-84857462D01*
X153572177Y-84923597D01*
X153527130Y-84962635D01*
X153518071Y-84967251D01*
X153518065Y-84967255D01*
X153463907Y-85006602D01*
X153463907Y-85006603D01*
X154096216Y-85638912D01*
X154032632Y-85655950D01*
X153918618Y-85721776D01*
X153825526Y-85814868D01*
X153759700Y-85928882D01*
X153742662Y-85992466D01*
X153152444Y-85402248D01*
X153118959Y-85340925D01*
X153116125Y-85314567D01*
X153116125Y-84681633D01*
X153135810Y-84614594D01*
X153188614Y-84568839D01*
X153257772Y-84558895D01*
X153321328Y-84587920D01*
G37*
%TD.AperFunction*%
%TA.AperFunction,Conductor*%
G36*
X173034459Y-84565451D02*
G01*
X173090392Y-84607323D01*
X173114809Y-84672787D01*
X173115125Y-84681633D01*
X173115125Y-85314567D01*
X173095440Y-85381606D01*
X173078806Y-85402248D01*
X172488587Y-85992466D01*
X172471550Y-85928882D01*
X172405724Y-85814868D01*
X172312632Y-85721776D01*
X172198618Y-85655950D01*
X172135034Y-85638912D01*
X172767341Y-85006603D01*
X172713172Y-84967248D01*
X172713172Y-84967247D01*
X172704125Y-84962638D01*
X172653331Y-84914663D01*
X172636537Y-84846841D01*
X172659076Y-84780707D01*
X172704133Y-84741668D01*
X172713441Y-84736926D01*
X172827832Y-84653817D01*
X172885411Y-84611984D01*
X172885413Y-84611981D01*
X172885417Y-84611979D01*
X172903444Y-84593952D01*
X172964767Y-84560467D01*
X173034459Y-84565451D01*
G37*
%TD.AperFunction*%
%TA.AperFunction,Conductor*%
G36*
X155777113Y-84496757D02*
G01*
X155833046Y-84538629D01*
X155841166Y-84550939D01*
X155867371Y-84596328D01*
X155867375Y-84596333D01*
X156183860Y-84912818D01*
X156217345Y-84974141D01*
X156212361Y-85043833D01*
X156170489Y-85099766D01*
X156105025Y-85124183D01*
X156096179Y-85124499D01*
X155958721Y-85124499D01*
X155851365Y-85153265D01*
X155805988Y-85165424D01*
X155805987Y-85165425D01*
X155769431Y-85186531D01*
X155769428Y-85186534D01*
X155717642Y-85216432D01*
X155682265Y-85236857D01*
X155614365Y-85253328D01*
X155548338Y-85230476D01*
X155505148Y-85175554D01*
X155498507Y-85106001D01*
X155505705Y-85082016D01*
X155534793Y-85011792D01*
X155552336Y-84923597D01*
X155561713Y-84876459D01*
X155561713Y-84738471D01*
X155561405Y-84736923D01*
X155553269Y-84696022D01*
X155553976Y-84688116D01*
X155551202Y-84680678D01*
X155557045Y-84653817D01*
X155559495Y-84626435D01*
X155564744Y-84618424D01*
X155566054Y-84612405D01*
X155587202Y-84584154D01*
X155646100Y-84525256D01*
X155707421Y-84491773D01*
X155777113Y-84496757D01*
G37*
%TD.AperFunction*%
%TA.AperFunction,Conductor*%
G36*
X157863724Y-54792060D02*
G01*
X157909479Y-54844864D01*
X157919423Y-54914022D01*
X157911246Y-54943828D01*
X157834054Y-55130185D01*
X157834052Y-55130193D01*
X157795625Y-55323379D01*
X157795625Y-55471875D01*
X158495625Y-55471875D01*
X158495625Y-55971875D01*
X157795625Y-55971875D01*
X157795625Y-56120370D01*
X157834052Y-56313556D01*
X157834055Y-56313568D01*
X157909432Y-56495546D01*
X157909439Y-56495559D01*
X158018873Y-56659337D01*
X158018876Y-56659341D01*
X158158158Y-56798623D01*
X158158162Y-56798626D01*
X158321940Y-56908060D01*
X158321953Y-56908067D01*
X158503933Y-56983444D01*
X158545625Y-56991737D01*
X158545625Y-56188863D01*
X158555565Y-56206080D01*
X158611420Y-56261935D01*
X158679829Y-56301431D01*
X158756129Y-56321875D01*
X158835121Y-56321875D01*
X158911421Y-56301431D01*
X158979830Y-56261935D01*
X159035685Y-56206080D01*
X159045625Y-56188863D01*
X159045625Y-56991737D01*
X159087315Y-56983444D01*
X159087317Y-56983444D01*
X159269296Y-56908067D01*
X159269309Y-56908060D01*
X159433087Y-56798626D01*
X159433091Y-56798623D01*
X159572373Y-56659341D01*
X159572376Y-56659337D01*
X159681810Y-56495559D01*
X159681817Y-56495546D01*
X159757194Y-56313568D01*
X159757197Y-56313556D01*
X159795624Y-56120370D01*
X159795625Y-56120367D01*
X159795625Y-55971875D01*
X159095625Y-55971875D01*
X159095625Y-55471875D01*
X159795625Y-55471875D01*
X159795625Y-55323383D01*
X159795624Y-55323379D01*
X159757197Y-55130193D01*
X159757195Y-55130185D01*
X159680004Y-54943828D01*
X159672535Y-54874358D01*
X159703810Y-54811879D01*
X159763899Y-54776227D01*
X159794565Y-54772375D01*
X166436685Y-54772375D01*
X166503724Y-54792060D01*
X166549479Y-54844864D01*
X166559423Y-54914022D01*
X166551246Y-54943828D01*
X166474054Y-55130185D01*
X166474052Y-55130193D01*
X166435625Y-55323379D01*
X166435625Y-55471875D01*
X167135625Y-55471875D01*
X167135625Y-55971875D01*
X166435625Y-55971875D01*
X166435625Y-56120370D01*
X166474052Y-56313556D01*
X166474055Y-56313568D01*
X166549432Y-56495546D01*
X166549439Y-56495559D01*
X166658873Y-56659337D01*
X166658876Y-56659341D01*
X166798158Y-56798623D01*
X166798162Y-56798626D01*
X166961940Y-56908060D01*
X166961953Y-56908067D01*
X167143933Y-56983444D01*
X167185625Y-56991737D01*
X167185625Y-56188863D01*
X167195565Y-56206080D01*
X167251420Y-56261935D01*
X167319829Y-56301431D01*
X167396129Y-56321875D01*
X167475121Y-56321875D01*
X167551421Y-56301431D01*
X167619830Y-56261935D01*
X167675685Y-56206080D01*
X167685625Y-56188863D01*
X167685625Y-56991737D01*
X167727315Y-56983444D01*
X167727317Y-56983444D01*
X167909296Y-56908067D01*
X167909309Y-56908060D01*
X168073087Y-56798626D01*
X168073091Y-56798623D01*
X168212373Y-56659341D01*
X168212376Y-56659337D01*
X168321810Y-56495559D01*
X168321817Y-56495546D01*
X168397194Y-56313568D01*
X168397197Y-56313556D01*
X168435624Y-56120370D01*
X168435625Y-56120367D01*
X168435625Y-55971875D01*
X167735625Y-55971875D01*
X167735625Y-55471875D01*
X168435625Y-55471875D01*
X168435625Y-55323383D01*
X168435624Y-55323379D01*
X168397197Y-55130193D01*
X168397195Y-55130185D01*
X168320004Y-54943828D01*
X168312535Y-54874358D01*
X168343810Y-54811879D01*
X168403899Y-54776227D01*
X168434565Y-54772375D01*
X170531125Y-54772375D01*
X170598164Y-54792060D01*
X170643919Y-54844864D01*
X170655125Y-54896375D01*
X170655125Y-56539745D01*
X170655126Y-56539751D01*
X170661533Y-56599358D01*
X170711827Y-56734203D01*
X170711831Y-56734210D01*
X170798077Y-56849419D01*
X170798080Y-56849422D01*
X170913289Y-56935668D01*
X170913296Y-56935672D01*
X171044707Y-56984685D01*
X171100641Y-57026556D01*
X171125058Y-57092020D01*
X171110207Y-57160293D01*
X171089056Y-57188548D01*
X170975514Y-57302090D01*
X170850576Y-57474054D01*
X170754069Y-57663460D01*
X170688378Y-57865635D01*
X170655125Y-58075588D01*
X170655125Y-58288161D01*
X170688378Y-58498114D01*
X170688378Y-58498116D01*
X170688379Y-58498118D01*
X170743056Y-58666397D01*
X170754069Y-58700289D01*
X170850576Y-58889695D01*
X170975515Y-59061661D01*
X171125838Y-59211984D01*
X171297804Y-59336923D01*
X171297806Y-59336924D01*
X171297809Y-59336926D01*
X171307118Y-59341669D01*
X171357915Y-59389641D01*
X171374712Y-59457462D01*
X171352177Y-59523597D01*
X171307130Y-59562635D01*
X171298071Y-59567251D01*
X171298065Y-59567255D01*
X171243907Y-59606602D01*
X171243907Y-59606603D01*
X171876216Y-60238912D01*
X171812632Y-60255950D01*
X171698618Y-60321776D01*
X171605526Y-60414868D01*
X171539700Y-60528882D01*
X171522662Y-60592466D01*
X170890353Y-59960157D01*
X170890352Y-59960157D01*
X170851005Y-60014314D01*
X170754529Y-60203657D01*
X170688867Y-60405744D01*
X170688867Y-60405747D01*
X170655625Y-60615628D01*
X170655625Y-60828121D01*
X170688867Y-61038002D01*
X170688867Y-61038005D01*
X170754529Y-61240092D01*
X170851000Y-61429425D01*
X170890353Y-61483591D01*
X171522662Y-60851283D01*
X171539700Y-60914868D01*
X171605526Y-61028882D01*
X171698618Y-61121974D01*
X171812632Y-61187800D01*
X171876215Y-61204837D01*
X171243907Y-61837144D01*
X171243907Y-61837145D01*
X171298077Y-61876501D01*
X171298076Y-61876501D01*
X171307120Y-61881109D01*
X171357917Y-61929083D01*
X171374712Y-61996904D01*
X171352175Y-62063039D01*
X171307124Y-62102077D01*
X171297807Y-62106824D01*
X171125838Y-62231765D01*
X170975515Y-62382088D01*
X170850576Y-62554054D01*
X170754069Y-62743460D01*
X170688378Y-62945635D01*
X170655125Y-63155588D01*
X170655125Y-63368161D01*
X170688378Y-63578114D01*
X170754069Y-63780289D01*
X170850576Y-63969695D01*
X170975515Y-64141661D01*
X171125838Y-64291984D01*
X171297807Y-64416925D01*
X171306571Y-64421391D01*
X171357367Y-64469366D01*
X171374161Y-64537187D01*
X171351623Y-64603322D01*
X171306571Y-64642359D01*
X171297807Y-64646824D01*
X171125838Y-64771765D01*
X170975515Y-64922088D01*
X170850576Y-65094054D01*
X170754069Y-65283460D01*
X170688378Y-65485635D01*
X170655125Y-65695588D01*
X170655125Y-65908161D01*
X170688379Y-66118119D01*
X170688379Y-66118122D01*
X170702116Y-66160398D01*
X170704111Y-66230239D01*
X170671866Y-66286397D01*
X168538834Y-68419431D01*
X168477511Y-68452916D01*
X168451153Y-68455750D01*
X162504766Y-68455750D01*
X162437727Y-68436065D01*
X162435875Y-68434852D01*
X162304185Y-68346859D01*
X162304172Y-68346852D01*
X162158501Y-68286514D01*
X162158489Y-68286511D01*
X162003845Y-68255750D01*
X162003842Y-68255750D01*
X161846158Y-68255750D01*
X161846155Y-68255750D01*
X161691510Y-68286511D01*
X161691498Y-68286514D01*
X161545827Y-68346852D01*
X161545814Y-68346859D01*
X161414711Y-68434460D01*
X161414707Y-68434463D01*
X161303213Y-68545957D01*
X161303210Y-68545961D01*
X161215609Y-68677064D01*
X161215602Y-68677077D01*
X161155264Y-68822748D01*
X161155261Y-68822760D01*
X161124500Y-68977403D01*
X161124500Y-69135096D01*
X161155261Y-69289739D01*
X161155264Y-69289751D01*
X161215602Y-69435422D01*
X161215609Y-69435435D01*
X161303210Y-69566538D01*
X161303213Y-69566542D01*
X161414707Y-69678036D01*
X161414711Y-69678039D01*
X161545814Y-69765640D01*
X161545827Y-69765647D01*
X161691498Y-69825985D01*
X161691503Y-69825987D01*
X161807981Y-69849156D01*
X161846153Y-69856749D01*
X161846156Y-69856750D01*
X161846158Y-69856750D01*
X162003844Y-69856750D01*
X162003845Y-69856749D01*
X162158497Y-69825987D01*
X162304179Y-69765644D01*
X162362002Y-69727008D01*
X162435875Y-69677648D01*
X162502553Y-69656770D01*
X162504766Y-69656750D01*
X168170106Y-69656750D01*
X168237145Y-69676435D01*
X168282900Y-69729239D01*
X168291723Y-69756558D01*
X168300011Y-69798226D01*
X168300014Y-69798236D01*
X168360352Y-69943907D01*
X168360359Y-69943920D01*
X168447352Y-70074113D01*
X168468230Y-70140790D01*
X168468250Y-70143004D01*
X168468250Y-71137402D01*
X168459605Y-71166842D01*
X168453082Y-71196829D01*
X168449327Y-71201844D01*
X168448565Y-71204441D01*
X168431935Y-71225078D01*
X168270046Y-71386968D01*
X168208725Y-71420452D01*
X168182367Y-71423286D01*
X167264252Y-71423286D01*
X167223331Y-71434250D01*
X167223331Y-71434251D01*
X167186063Y-71444237D01*
X167111526Y-71464209D01*
X167111521Y-71464212D01*
X166974602Y-71543261D01*
X166974594Y-71543267D01*
X165197142Y-73320719D01*
X165187505Y-73337412D01*
X165175917Y-73357484D01*
X165118086Y-73457650D01*
X165077162Y-73610378D01*
X165077162Y-73610380D01*
X165077162Y-73778481D01*
X165077163Y-73778494D01*
X165077163Y-76365676D01*
X165077162Y-76365694D01*
X165077162Y-76531400D01*
X165077161Y-76531400D01*
X165077162Y-76531403D01*
X165118086Y-76684131D01*
X165137711Y-76718122D01*
X165152744Y-76744160D01*
X165197142Y-76821060D01*
X165197144Y-76821063D01*
X165316012Y-76939931D01*
X165316018Y-76939936D01*
X168862743Y-80486661D01*
X168862753Y-80486672D01*
X168867083Y-80491002D01*
X168867084Y-80491003D01*
X168978888Y-80602807D01*
X168978890Y-80602808D01*
X168978894Y-80602811D01*
X169095972Y-80670405D01*
X169115820Y-80681864D01*
X169227623Y-80711821D01*
X169245110Y-80716507D01*
X169304769Y-80752872D01*
X169335297Y-80815720D01*
X169337013Y-80836280D01*
X169337013Y-81310991D01*
X169317328Y-81378030D01*
X169300694Y-81398672D01*
X169245851Y-81453514D01*
X169245826Y-81453542D01*
X169141093Y-81558275D01*
X169141092Y-81558277D01*
X169091760Y-81643723D01*
X169062038Y-81695202D01*
X169062037Y-81695203D01*
X169047437Y-81749691D01*
X169021113Y-81847933D01*
X169021113Y-81847935D01*
X169021113Y-82016036D01*
X169021114Y-82016049D01*
X169021114Y-82824520D01*
X169001429Y-82891559D01*
X168948625Y-82937314D01*
X168897114Y-82948520D01*
X167929639Y-82948520D01*
X167862600Y-82928835D01*
X167841958Y-82912201D01*
X166538291Y-81608534D01*
X166504806Y-81547211D01*
X166504355Y-81545044D01*
X166481063Y-81427953D01*
X166473454Y-81389698D01*
X166440853Y-81310991D01*
X166413114Y-81244022D01*
X166413107Y-81244009D01*
X166325506Y-81112906D01*
X166325503Y-81112902D01*
X166214009Y-81001408D01*
X166214005Y-81001405D01*
X166082902Y-80913804D01*
X166082889Y-80913797D01*
X165937218Y-80853459D01*
X165937206Y-80853456D01*
X165782562Y-80822695D01*
X165782559Y-80822695D01*
X165624875Y-80822695D01*
X165624872Y-80822695D01*
X165470227Y-80853456D01*
X165470215Y-80853459D01*
X165324544Y-80913797D01*
X165324533Y-80913803D01*
X165288386Y-80937956D01*
X165221708Y-80958833D01*
X165154328Y-80940348D01*
X165116394Y-80903744D01*
X165061402Y-80821444D01*
X165061399Y-80821440D01*
X164963833Y-80723874D01*
X164963829Y-80723871D01*
X164849105Y-80647214D01*
X164849092Y-80647207D01*
X164721620Y-80594407D01*
X164721610Y-80594404D01*
X164586283Y-80567486D01*
X164586281Y-80567486D01*
X164448295Y-80567486D01*
X164448293Y-80567486D01*
X164312965Y-80594404D01*
X164312955Y-80594407D01*
X164185483Y-80647207D01*
X164185465Y-80647217D01*
X164182004Y-80649530D01*
X164115326Y-80670405D01*
X164047946Y-80651917D01*
X164001259Y-80599936D01*
X163990085Y-80530966D01*
X163991501Y-80522233D01*
X164016125Y-80398446D01*
X164016125Y-80270303D01*
X163991127Y-80144636D01*
X163991126Y-80144635D01*
X163991126Y-80144631D01*
X163975564Y-80107060D01*
X163966125Y-80059608D01*
X163966125Y-77894683D01*
X163985810Y-77827644D01*
X164021237Y-77791579D01*
X164025914Y-77788455D01*
X164137414Y-77676955D01*
X164225019Y-77545845D01*
X164285362Y-77400163D01*
X164316125Y-77245508D01*
X164316125Y-77087824D01*
X164316125Y-77087821D01*
X164316124Y-77087819D01*
X164287805Y-76945451D01*
X164285362Y-76933169D01*
X164285237Y-76932867D01*
X164225022Y-76787493D01*
X164225015Y-76787480D01*
X164137414Y-76656377D01*
X164137411Y-76656373D01*
X164025917Y-76544879D01*
X164025913Y-76544876D01*
X163894810Y-76457275D01*
X163894797Y-76457268D01*
X163749126Y-76396930D01*
X163749114Y-76396927D01*
X163594470Y-76366166D01*
X163594467Y-76366166D01*
X163436783Y-76366166D01*
X163436780Y-76366166D01*
X163282135Y-76396927D01*
X163282123Y-76396930D01*
X163136452Y-76457268D01*
X163136439Y-76457275D01*
X163005336Y-76544876D01*
X163005332Y-76544879D01*
X162893838Y-76656373D01*
X162893835Y-76656377D01*
X162806234Y-76787480D01*
X162806227Y-76787493D01*
X162745889Y-76933164D01*
X162745886Y-76933176D01*
X162715125Y-77087819D01*
X162715125Y-77245512D01*
X162745886Y-77400155D01*
X162745888Y-77400163D01*
X162755686Y-77423817D01*
X162765125Y-77471270D01*
X162765125Y-80034277D01*
X162745440Y-80101316D01*
X162728806Y-80121958D01*
X162367268Y-80483495D01*
X162305945Y-80516980D01*
X162236253Y-80511996D01*
X162232137Y-80510376D01*
X162182035Y-80489624D01*
X162182028Y-80489622D01*
X162046702Y-80462704D01*
X162046700Y-80462704D01*
X161908714Y-80462704D01*
X161908712Y-80462704D01*
X161773384Y-80489622D01*
X161773374Y-80489625D01*
X161645902Y-80542425D01*
X161645889Y-80542432D01*
X161531165Y-80619089D01*
X161531161Y-80619092D01*
X161433595Y-80716658D01*
X161433592Y-80716662D01*
X161356935Y-80831386D01*
X161356928Y-80831399D01*
X161304128Y-80958871D01*
X161304125Y-80958881D01*
X161277207Y-81094208D01*
X161277207Y-81094211D01*
X161277207Y-81232197D01*
X161277207Y-81232199D01*
X161277206Y-81232199D01*
X161304125Y-81367526D01*
X161304128Y-81367536D01*
X161356929Y-81495010D01*
X161356930Y-81495011D01*
X161356932Y-81495015D01*
X161389899Y-81544353D01*
X161396309Y-81553946D01*
X161417187Y-81620623D01*
X161417207Y-81622837D01*
X161417207Y-81748612D01*
X161418436Y-81753199D01*
X161443020Y-81844951D01*
X161455403Y-81891163D01*
X161455403Y-81891164D01*
X161455404Y-81891165D01*
X161529195Y-82018975D01*
X161529197Y-82018977D01*
X161640617Y-82130397D01*
X161640623Y-82130402D01*
X163023472Y-83513251D01*
X163056957Y-83574574D01*
X163059791Y-83600932D01*
X163059791Y-84740321D01*
X163053552Y-84761566D01*
X163051973Y-84783655D01*
X163043900Y-84794438D01*
X163040106Y-84807360D01*
X163023372Y-84821859D01*
X163010101Y-84839588D01*
X162997480Y-84844295D01*
X162987302Y-84853115D01*
X162965384Y-84856266D01*
X162944637Y-84864005D01*
X162931476Y-84861142D01*
X162918144Y-84863059D01*
X162898000Y-84853859D01*
X162876364Y-84849153D01*
X162858638Y-84835884D01*
X162854588Y-84834034D01*
X162848110Y-84828002D01*
X162765940Y-84745832D01*
X162765938Y-84745829D01*
X162765937Y-84745828D01*
X162765937Y-84745829D01*
X162758870Y-84738762D01*
X162758870Y-84738761D01*
X162647066Y-84626957D01*
X162647065Y-84626956D01*
X162647064Y-84626955D01*
X162646166Y-84626266D01*
X162644689Y-84624580D01*
X162641319Y-84621210D01*
X162641541Y-84620987D01*
X162624755Y-84601824D01*
X162623110Y-84603088D01*
X162618164Y-84596643D01*
X162618162Y-84596639D01*
X162506358Y-84484835D01*
X162506357Y-84484834D01*
X162502027Y-84480504D01*
X162502016Y-84480494D01*
X162331753Y-84310231D01*
X162331751Y-84310228D01*
X162212880Y-84191357D01*
X162212879Y-84191356D01*
X162126067Y-84141236D01*
X162126067Y-84141235D01*
X162126063Y-84141234D01*
X162075948Y-84112299D01*
X161923220Y-84071375D01*
X161765106Y-84071375D01*
X161757510Y-84071375D01*
X161757494Y-84071376D01*
X161515790Y-84071376D01*
X161515774Y-84071375D01*
X161508178Y-84071375D01*
X161350064Y-84071375D01*
X161208247Y-84109375D01*
X161138398Y-84107712D01*
X161080535Y-84068549D01*
X161061595Y-84037057D01*
X161035786Y-83974748D01*
X161035784Y-83974745D01*
X161035782Y-83974741D01*
X160959125Y-83860017D01*
X160959122Y-83860013D01*
X160861556Y-83762447D01*
X160861552Y-83762444D01*
X160746828Y-83685787D01*
X160746815Y-83685780D01*
X160613712Y-83630648D01*
X160614098Y-83629714D01*
X160584493Y-83614789D01*
X160577202Y-83609370D01*
X160506124Y-83538292D01*
X160402294Y-83478346D01*
X160396081Y-83474759D01*
X160396080Y-83474758D01*
X160369198Y-83459237D01*
X160369197Y-83459236D01*
X160356671Y-83455879D01*
X160216465Y-83418311D01*
X160058351Y-83418311D01*
X160050755Y-83418311D01*
X160050739Y-83418312D01*
X159464690Y-83418312D01*
X159423769Y-83429276D01*
X159423769Y-83429277D01*
X159386501Y-83439263D01*
X159311964Y-83459235D01*
X159311959Y-83459238D01*
X159175040Y-83538287D01*
X159175032Y-83538293D01*
X159122529Y-83590797D01*
X159061206Y-83624282D01*
X159034848Y-83627116D01*
X157743024Y-83627116D01*
X157735406Y-83624879D01*
X157727570Y-83626149D01*
X157702362Y-83615176D01*
X157675985Y-83607431D01*
X157669154Y-83600721D01*
X157663507Y-83598263D01*
X157639922Y-83572007D01*
X157570292Y-83467798D01*
X157549414Y-83401120D01*
X157549394Y-83398907D01*
X157549394Y-83013140D01*
X157569079Y-82946101D01*
X157621883Y-82900346D01*
X157691041Y-82890402D01*
X157720841Y-82898577D01*
X157740505Y-82906722D01*
X157851674Y-82928835D01*
X157895155Y-82937484D01*
X157895158Y-82937485D01*
X157895160Y-82937485D01*
X158052846Y-82937485D01*
X158052847Y-82937484D01*
X158207499Y-82906722D01*
X158320168Y-82860052D01*
X158353174Y-82846382D01*
X158353174Y-82846381D01*
X158353181Y-82846379D01*
X158484291Y-82758774D01*
X158595791Y-82647274D01*
X158683396Y-82516164D01*
X158743739Y-82370482D01*
X158774502Y-82215827D01*
X158774502Y-82105660D01*
X158794187Y-82038621D01*
X158846991Y-81992866D01*
X158874311Y-81984043D01*
X158901693Y-81978596D01*
X158974122Y-81964189D01*
X159119804Y-81903846D01*
X159250914Y-81816241D01*
X159362414Y-81704741D01*
X159450019Y-81573631D01*
X159510362Y-81427949D01*
X159533627Y-81310991D01*
X159541263Y-81272603D01*
X159550027Y-81255848D01*
X159554047Y-81237368D01*
X159572792Y-81212326D01*
X159573648Y-81210692D01*
X159575198Y-81209114D01*
X159626596Y-81157715D01*
X159626601Y-81157711D01*
X159636807Y-81147504D01*
X159636809Y-81147504D01*
X159748613Y-81035700D01*
X159827670Y-80898768D01*
X159866918Y-80752293D01*
X159868593Y-80746042D01*
X159868593Y-80648312D01*
X159888278Y-80581273D01*
X159904912Y-80560631D01*
X159955167Y-80510376D01*
X160024270Y-80441273D01*
X160080073Y-80344619D01*
X160103327Y-80304342D01*
X160144251Y-80151614D01*
X160144251Y-79993500D01*
X160144251Y-79985905D01*
X160144250Y-79985887D01*
X160144250Y-78563163D01*
X160144251Y-78563150D01*
X160144251Y-78395048D01*
X160144251Y-78395046D01*
X160103327Y-78242318D01*
X160102776Y-78241363D01*
X160099934Y-78236440D01*
X160083324Y-78174445D01*
X160083324Y-78164415D01*
X160067075Y-78103775D01*
X160042400Y-78011687D01*
X160023398Y-77978775D01*
X160023398Y-77978773D01*
X159963347Y-77874761D01*
X159963341Y-77874753D01*
X159568694Y-77480106D01*
X159535209Y-77418783D01*
X159532375Y-77392425D01*
X159532375Y-74834641D01*
X159532375Y-74824642D01*
X159532376Y-74824640D01*
X159532376Y-74666525D01*
X159532375Y-74666524D01*
X159532376Y-74660294D01*
X159552061Y-74593255D01*
X159604865Y-74547500D01*
X159604869Y-74547499D01*
X159624270Y-74540524D01*
X159775535Y-74499992D01*
X159912466Y-74420935D01*
X160024270Y-74309131D01*
X160103327Y-74172200D01*
X160144251Y-74019473D01*
X160144251Y-73861358D01*
X160144251Y-73853763D01*
X160144250Y-73853745D01*
X160144250Y-70296725D01*
X160142891Y-70291657D01*
X160140136Y-70281374D01*
X160125398Y-70226370D01*
X160103327Y-70143999D01*
X160101770Y-70141302D01*
X160098856Y-70130662D01*
X160099357Y-70103202D01*
X160096421Y-70075889D01*
X160100084Y-70063413D01*
X160100132Y-70060804D01*
X160101412Y-70058888D01*
X160101616Y-70058196D01*
X160103325Y-70051815D01*
X160103327Y-70051813D01*
X160134168Y-69936711D01*
X160144250Y-69899087D01*
X160144250Y-69740972D01*
X160144250Y-68750675D01*
X160136584Y-68722063D01*
X160103327Y-68597947D01*
X160103326Y-68597945D01*
X160101916Y-68592683D01*
X160101916Y-68528495D01*
X160103325Y-68523236D01*
X160103327Y-68523233D01*
X160144250Y-68370506D01*
X160144250Y-68212391D01*
X160144250Y-64382809D01*
X160144251Y-64382796D01*
X160144251Y-64214695D01*
X160144251Y-64214693D01*
X160103327Y-64061965D01*
X160103326Y-64061964D01*
X160103326Y-64061962D01*
X160103325Y-64061961D01*
X160055976Y-63979951D01*
X160055975Y-63979949D01*
X160050052Y-63969691D01*
X160024270Y-63925034D01*
X159912466Y-63813230D01*
X159912463Y-63813228D01*
X157799319Y-61700084D01*
X157765834Y-61638761D01*
X157763000Y-61612403D01*
X157763000Y-61115169D01*
X157782685Y-61048130D01*
X157835489Y-61002375D01*
X157904647Y-60992431D01*
X157968203Y-61021456D01*
X157990102Y-61046278D01*
X158018873Y-61089338D01*
X158158158Y-61228623D01*
X158158162Y-61228626D01*
X158321940Y-61338060D01*
X158321953Y-61338067D01*
X158503933Y-61413444D01*
X158545625Y-61421737D01*
X158545625Y-60618863D01*
X158555565Y-60636080D01*
X158611420Y-60691935D01*
X158679829Y-60731431D01*
X158756129Y-60751875D01*
X158835121Y-60751875D01*
X158911421Y-60731431D01*
X158979830Y-60691935D01*
X159035685Y-60636080D01*
X159045625Y-60618863D01*
X159045625Y-61421737D01*
X159087315Y-61413444D01*
X159087317Y-61413444D01*
X159269296Y-61338067D01*
X159269309Y-61338060D01*
X159433087Y-61228626D01*
X159433091Y-61228623D01*
X159572373Y-61089341D01*
X159572376Y-61089337D01*
X159681810Y-60925559D01*
X159681817Y-60925546D01*
X159757194Y-60743568D01*
X159757197Y-60743556D01*
X159795624Y-60550370D01*
X159795625Y-60550367D01*
X159795625Y-60151875D01*
X159095625Y-60151875D01*
X159095625Y-59651875D01*
X159651161Y-59651875D01*
X159718200Y-59671560D01*
X159758548Y-59713875D01*
X159765107Y-59725236D01*
X159765109Y-59725239D01*
X159765110Y-59725240D01*
X159872260Y-59832390D01*
X160003490Y-59908156D01*
X160149859Y-59947375D01*
X160149861Y-59947375D01*
X160301389Y-59947375D01*
X160301391Y-59947375D01*
X160447760Y-59908156D01*
X160578990Y-59832390D01*
X160686140Y-59725240D01*
X160761906Y-59594010D01*
X160801125Y-59447641D01*
X160801125Y-59296109D01*
X165430125Y-59296109D01*
X165430125Y-59447641D01*
X165439451Y-59482447D01*
X165469344Y-59594011D01*
X165507227Y-59659625D01*
X165545110Y-59725240D01*
X165652260Y-59832390D01*
X165783490Y-59908156D01*
X165929859Y-59947375D01*
X165929861Y-59947375D01*
X166081389Y-59947375D01*
X166081391Y-59947375D01*
X166227760Y-59908156D01*
X166358990Y-59832390D01*
X166466140Y-59725240D01*
X166472702Y-59713875D01*
X166523269Y-59665659D01*
X166580089Y-59651875D01*
X167135625Y-59651875D01*
X167135625Y-60151875D01*
X166435625Y-60151875D01*
X166435625Y-60550370D01*
X166474052Y-60743556D01*
X166474055Y-60743568D01*
X166549432Y-60925546D01*
X166549439Y-60925559D01*
X166658873Y-61089337D01*
X166658876Y-61089341D01*
X166798158Y-61228623D01*
X166798162Y-61228626D01*
X166961940Y-61338060D01*
X166961953Y-61338067D01*
X167143933Y-61413444D01*
X167185625Y-61421737D01*
X167185625Y-60618863D01*
X167195565Y-60636080D01*
X167251420Y-60691935D01*
X167319829Y-60731431D01*
X167396129Y-60751875D01*
X167475121Y-60751875D01*
X167551421Y-60731431D01*
X167619830Y-60691935D01*
X167675685Y-60636080D01*
X167685625Y-60618863D01*
X167685625Y-61421737D01*
X167727315Y-61413444D01*
X167727317Y-61413444D01*
X167909296Y-61338067D01*
X167909309Y-61338060D01*
X168073087Y-61228626D01*
X168073091Y-61228623D01*
X168212373Y-61089341D01*
X168212376Y-61089337D01*
X168321810Y-60925559D01*
X168321817Y-60925546D01*
X168397194Y-60743568D01*
X168397197Y-60743556D01*
X168428425Y-60586565D01*
X168435624Y-60550369D01*
X168435625Y-60550367D01*
X168435625Y-60151875D01*
X167735625Y-60151875D01*
X167735625Y-59651875D01*
X168435625Y-59651875D01*
X168435625Y-59253383D01*
X168435624Y-59253379D01*
X168397197Y-59060193D01*
X168397194Y-59060181D01*
X168321817Y-58878203D01*
X168321810Y-58878190D01*
X168212376Y-58714412D01*
X168212373Y-58714408D01*
X168073091Y-58575126D01*
X168073087Y-58575123D01*
X167909309Y-58465689D01*
X167909296Y-58465682D01*
X167727316Y-58390304D01*
X167727308Y-58390302D01*
X167685625Y-58382010D01*
X167685625Y-59184886D01*
X167675685Y-59167670D01*
X167619830Y-59111815D01*
X167551421Y-59072319D01*
X167475121Y-59051875D01*
X167396129Y-59051875D01*
X167319829Y-59072319D01*
X167251420Y-59111815D01*
X167195565Y-59167670D01*
X167185625Y-59184886D01*
X167185625Y-58382011D01*
X167185624Y-58382010D01*
X167143941Y-58390302D01*
X167143933Y-58390304D01*
X166961953Y-58465682D01*
X166961940Y-58465689D01*
X166798162Y-58575123D01*
X166798158Y-58575126D01*
X166658873Y-58714411D01*
X166546052Y-58883262D01*
X166544628Y-58882310D01*
X166501367Y-58926326D01*
X166433225Y-58941767D01*
X166367552Y-58917916D01*
X166365532Y-58916181D01*
X166365436Y-58916307D01*
X166358992Y-58911362D01*
X166358990Y-58911360D01*
X166293375Y-58873477D01*
X166227761Y-58835594D01*
X166135909Y-58810983D01*
X166081391Y-58796375D01*
X165929859Y-58796375D01*
X165783488Y-58835594D01*
X165652260Y-58911360D01*
X165652257Y-58911362D01*
X165545112Y-59018507D01*
X165545110Y-59018510D01*
X165469344Y-59149738D01*
X165446210Y-59236079D01*
X165430125Y-59296109D01*
X160801125Y-59296109D01*
X160761906Y-59149740D01*
X160686140Y-59018510D01*
X160578990Y-58911360D01*
X160513375Y-58873477D01*
X160447761Y-58835594D01*
X160355909Y-58810983D01*
X160301391Y-58796375D01*
X160149859Y-58796375D01*
X160003488Y-58835594D01*
X159872260Y-58911360D01*
X159865814Y-58916307D01*
X159863724Y-58913584D01*
X159815842Y-58939341D01*
X159746183Y-58933918D01*
X159690513Y-58891696D01*
X159684924Y-58882851D01*
X159572376Y-58714412D01*
X159572373Y-58714408D01*
X159433091Y-58575126D01*
X159433087Y-58575123D01*
X159269309Y-58465689D01*
X159269296Y-58465682D01*
X159087316Y-58390304D01*
X159087308Y-58390302D01*
X159045625Y-58382010D01*
X159045625Y-59184886D01*
X159035685Y-59167670D01*
X158979830Y-59111815D01*
X158911421Y-59072319D01*
X158835121Y-59051875D01*
X158756129Y-59051875D01*
X158679829Y-59072319D01*
X158611420Y-59111815D01*
X158555565Y-59167670D01*
X158545625Y-59184886D01*
X158545625Y-58382011D01*
X158545624Y-58382010D01*
X158503941Y-58390302D01*
X158503933Y-58390304D01*
X158321953Y-58465682D01*
X158321940Y-58465689D01*
X158158162Y-58575123D01*
X158158158Y-58575126D01*
X158018876Y-58714408D01*
X157990102Y-58757472D01*
X157936489Y-58802276D01*
X157867164Y-58810983D01*
X157804137Y-58780828D01*
X157767418Y-58721385D01*
X157763000Y-58688580D01*
X157763000Y-57239059D01*
X157763001Y-57239046D01*
X157763001Y-57070945D01*
X157763001Y-57070943D01*
X157722077Y-56918215D01*
X157691139Y-56864629D01*
X157691139Y-56864628D01*
X157643024Y-56781290D01*
X157643021Y-56781286D01*
X157643020Y-56781284D01*
X157531216Y-56669480D01*
X157531215Y-56669479D01*
X157526885Y-56665149D01*
X157526874Y-56665139D01*
X156141965Y-55280230D01*
X156141963Y-55280227D01*
X156023092Y-55161356D01*
X156023091Y-55161355D01*
X155936279Y-55111235D01*
X155936279Y-55111234D01*
X155936275Y-55111233D01*
X155886160Y-55082298D01*
X155733432Y-55041374D01*
X155733429Y-55041374D01*
X155700124Y-55041374D01*
X155691438Y-55038823D01*
X155682477Y-55040112D01*
X155658436Y-55029133D01*
X155633085Y-55021689D01*
X155627157Y-55014848D01*
X155618921Y-55011087D01*
X155604631Y-54988852D01*
X155587330Y-54968885D01*
X155585042Y-54958370D01*
X155581147Y-54952309D01*
X155576124Y-54917374D01*
X155576124Y-54896375D01*
X155595809Y-54829336D01*
X155648613Y-54783581D01*
X155700124Y-54772375D01*
X157796685Y-54772375D01*
X157863724Y-54792060D01*
G37*
%TD.AperFunction*%
%TA.AperFunction,Conductor*%
G36*
X165341891Y-82339777D02*
G01*
X165416001Y-82370474D01*
X165470220Y-82392932D01*
X165534864Y-82405790D01*
X165625566Y-82423833D01*
X165687477Y-82456218D01*
X165689056Y-82457769D01*
X166369126Y-83137839D01*
X166402611Y-83199162D01*
X166397627Y-83268854D01*
X166355755Y-83324787D01*
X166290291Y-83349204D01*
X166281445Y-83349520D01*
X165999693Y-83349520D01*
X165952240Y-83340081D01*
X165819953Y-83285286D01*
X165819947Y-83285284D01*
X165684620Y-83258366D01*
X165684618Y-83258366D01*
X165546632Y-83258366D01*
X165546630Y-83258366D01*
X165411302Y-83285284D01*
X165411292Y-83285287D01*
X165283820Y-83338087D01*
X165283807Y-83338094D01*
X165169083Y-83414751D01*
X165169079Y-83414754D01*
X165071513Y-83512320D01*
X165071510Y-83512324D01*
X164994853Y-83627048D01*
X164994848Y-83627058D01*
X164983586Y-83654248D01*
X164939745Y-83708651D01*
X164873451Y-83730716D01*
X164805751Y-83713437D01*
X164758141Y-83662299D01*
X164745025Y-83606795D01*
X164745025Y-82917270D01*
X164764710Y-82850231D01*
X164781344Y-82829589D01*
X164908850Y-82702083D01*
X165143966Y-82466968D01*
X165187055Y-82392334D01*
X165237618Y-82344123D01*
X165306225Y-82330899D01*
X165341891Y-82339777D01*
G37*
%TD.AperFunction*%
%TA.AperFunction,Conductor*%
G36*
X163810881Y-80932501D02*
G01*
X163846533Y-80992590D01*
X163845046Y-81059246D01*
X163843707Y-81063659D01*
X163816788Y-81198990D01*
X163816788Y-81198993D01*
X163816788Y-81336979D01*
X163816788Y-81336981D01*
X163816787Y-81336981D01*
X163843706Y-81472308D01*
X163843709Y-81472318D01*
X163896509Y-81599790D01*
X163896516Y-81599803D01*
X163973173Y-81714527D01*
X163973176Y-81714531D01*
X164054441Y-81795796D01*
X164087926Y-81857119D01*
X164082942Y-81926811D01*
X164054441Y-81971158D01*
X163833300Y-82192298D01*
X163833301Y-82192299D01*
X163736012Y-82289588D01*
X163688384Y-82372082D01*
X163637816Y-82420297D01*
X163569209Y-82433519D01*
X163504345Y-82407551D01*
X163493316Y-82397762D01*
X162910076Y-81814522D01*
X162905738Y-81806577D01*
X162898491Y-81801153D01*
X162889254Y-81776390D01*
X162876591Y-81753199D01*
X162877236Y-81744170D01*
X162874073Y-81735689D01*
X162879689Y-81709867D01*
X162881575Y-81683507D01*
X162887393Y-81674454D01*
X162888924Y-81667416D01*
X162910076Y-81639160D01*
X162928613Y-81620623D01*
X162940702Y-81608534D01*
X163017316Y-81531920D01*
X163017317Y-81531917D01*
X163595954Y-80953279D01*
X163636177Y-80926403D01*
X163673752Y-80910840D01*
X163673753Y-80910838D01*
X163678932Y-80908694D01*
X163748402Y-80901225D01*
X163810881Y-80932501D01*
G37*
%TD.AperFunction*%
%TA.AperFunction,Conductor*%
G36*
X170828460Y-69069426D02*
G01*
X170839242Y-69070116D01*
X170859156Y-69084790D01*
X170881280Y-69095864D01*
X170894600Y-69110908D01*
X170895490Y-69111564D01*
X170895724Y-69112177D01*
X170897104Y-69113736D01*
X170975515Y-69221660D01*
X170975519Y-69221665D01*
X171125838Y-69371984D01*
X171297807Y-69496925D01*
X171306571Y-69501391D01*
X171357367Y-69549366D01*
X171374161Y-69617187D01*
X171351623Y-69683322D01*
X171306571Y-69722359D01*
X171297807Y-69726824D01*
X171125838Y-69851765D01*
X170975515Y-70002088D01*
X170850576Y-70174054D01*
X170754069Y-70363460D01*
X170688378Y-70565635D01*
X170655125Y-70775588D01*
X170655125Y-70988161D01*
X170688378Y-71198114D01*
X170688378Y-71198116D01*
X170688379Y-71198118D01*
X170743056Y-71366397D01*
X170754069Y-71400289D01*
X170850576Y-71589695D01*
X170975515Y-71761661D01*
X171125838Y-71911984D01*
X171297804Y-72036923D01*
X171297806Y-72036924D01*
X171297809Y-72036926D01*
X171307118Y-72041669D01*
X171357915Y-72089641D01*
X171374712Y-72157462D01*
X171352177Y-72223597D01*
X171307130Y-72262635D01*
X171298071Y-72267251D01*
X171298065Y-72267255D01*
X171243907Y-72306602D01*
X171243907Y-72306603D01*
X171876216Y-72938912D01*
X171812632Y-72955950D01*
X171698618Y-73021776D01*
X171605526Y-73114868D01*
X171539700Y-73228882D01*
X171522662Y-73292466D01*
X170890353Y-72660157D01*
X170890352Y-72660157D01*
X170851005Y-72714314D01*
X170754529Y-72903657D01*
X170688867Y-73105744D01*
X170688867Y-73105747D01*
X170655625Y-73315628D01*
X170655625Y-73528121D01*
X170688867Y-73738002D01*
X170688867Y-73738005D01*
X170754529Y-73940092D01*
X170851000Y-74129425D01*
X170890353Y-74183591D01*
X171522662Y-73551283D01*
X171539700Y-73614868D01*
X171605526Y-73728882D01*
X171698618Y-73821974D01*
X171812632Y-73887800D01*
X171876215Y-73904837D01*
X171243907Y-74537144D01*
X171243907Y-74537145D01*
X171298077Y-74576501D01*
X171298076Y-74576501D01*
X171307120Y-74581109D01*
X171357917Y-74629083D01*
X171374712Y-74696904D01*
X171352175Y-74763039D01*
X171307124Y-74802077D01*
X171297807Y-74806824D01*
X171125838Y-74931765D01*
X170975515Y-75082088D01*
X170850576Y-75254054D01*
X170754069Y-75443460D01*
X170688378Y-75645635D01*
X170655125Y-75855588D01*
X170655125Y-76068161D01*
X170688379Y-76278119D01*
X170688379Y-76278122D01*
X170702116Y-76320398D01*
X170704111Y-76390239D01*
X170671866Y-76446397D01*
X170485911Y-76632353D01*
X170374106Y-76744157D01*
X170374105Y-76744159D01*
X170329706Y-76821062D01*
X170323986Y-76830969D01*
X170323984Y-76830971D01*
X170295050Y-76881084D01*
X170295049Y-76881085D01*
X170295048Y-76881090D01*
X170254124Y-77033818D01*
X170254124Y-77033820D01*
X170254124Y-77201921D01*
X170254125Y-77201934D01*
X170254125Y-77768084D01*
X170234440Y-77835123D01*
X170181636Y-77880878D01*
X170112478Y-77890822D01*
X170048922Y-77861797D01*
X170042444Y-77855765D01*
X169686410Y-77499731D01*
X169686409Y-77499730D01*
X169599597Y-77449610D01*
X169599597Y-77449609D01*
X169599593Y-77449608D01*
X169549478Y-77420673D01*
X169396750Y-77379749D01*
X169396747Y-77379749D01*
X169334946Y-77379749D01*
X169267907Y-77360064D01*
X169247265Y-77343430D01*
X168910706Y-77006871D01*
X168877221Y-76945548D01*
X168874387Y-76919190D01*
X168874387Y-74383549D01*
X168894072Y-74316510D01*
X168910706Y-74295868D01*
X169146484Y-74060090D01*
X169389603Y-73816970D01*
X169397729Y-73811656D01*
X169401412Y-73806572D01*
X169418317Y-73798194D01*
X169432118Y-73789170D01*
X169438524Y-73786664D01*
X169565862Y-73752544D01*
X169641921Y-73708631D01*
X169702793Y-73673487D01*
X169814597Y-73561683D01*
X169814597Y-73561681D01*
X169824800Y-73551479D01*
X169824804Y-73551473D01*
X169986062Y-73390216D01*
X169986067Y-73390212D01*
X169996270Y-73380008D01*
X169996272Y-73380008D01*
X170108076Y-73268204D01*
X170171603Y-73158171D01*
X170187133Y-73131273D01*
X170228057Y-72978545D01*
X170228057Y-72820431D01*
X170228057Y-72812836D01*
X170228056Y-72812818D01*
X170228056Y-72573505D01*
X170228057Y-72573492D01*
X170228057Y-72405391D01*
X170228057Y-72405389D01*
X170187133Y-72252661D01*
X170135469Y-72163177D01*
X170108076Y-72115730D01*
X170018902Y-72026556D01*
X170015348Y-72022303D01*
X170003526Y-71995141D01*
X169989333Y-71969147D01*
X169989739Y-71963463D01*
X169987465Y-71958238D01*
X169992204Y-71928999D01*
X169994317Y-71899456D01*
X169998396Y-71890798D01*
X169998644Y-71889269D01*
X169999637Y-71888162D01*
X170003112Y-71880789D01*
X170029327Y-71835384D01*
X170070251Y-71682657D01*
X170070251Y-71524542D01*
X170070251Y-71516947D01*
X170070250Y-71516929D01*
X170070250Y-70314776D01*
X170089935Y-70247737D01*
X170106569Y-70227095D01*
X170107294Y-70226370D01*
X170151270Y-70182394D01*
X170213260Y-70075024D01*
X170230327Y-70045463D01*
X170271251Y-69892735D01*
X170271251Y-69734621D01*
X170271251Y-69727026D01*
X170271250Y-69727008D01*
X170271250Y-69440336D01*
X170290935Y-69373297D01*
X170307569Y-69352655D01*
X170370485Y-69289739D01*
X170518260Y-69141964D01*
X170533661Y-69133479D01*
X170545691Y-69121267D01*
X170576067Y-69110115D01*
X170578666Y-69108684D01*
X170582170Y-69107894D01*
X170582437Y-69107894D01*
X170737092Y-69077131D01*
X170759152Y-69067993D01*
X170769515Y-69065657D01*
X170794203Y-69067235D01*
X170818800Y-69064591D01*
X170828460Y-69069426D01*
G37*
%TD.AperFunction*%
%TA.AperFunction,Conductor*%
G36*
X173078806Y-74141502D02*
G01*
X173112291Y-74202825D01*
X173115125Y-74229183D01*
X173115125Y-74862117D01*
X173095440Y-74929156D01*
X173042636Y-74974911D01*
X172973478Y-74984855D01*
X172909922Y-74955830D01*
X172903444Y-74949798D01*
X172885411Y-74931765D01*
X172713442Y-74806824D01*
X172704129Y-74802079D01*
X172653332Y-74754105D01*
X172636537Y-74686284D01*
X172659074Y-74620149D01*
X172704132Y-74581107D01*
X172713180Y-74576497D01*
X172767341Y-74537145D01*
X172767342Y-74537145D01*
X172135033Y-73904837D01*
X172198618Y-73887800D01*
X172312632Y-73821974D01*
X172405724Y-73728882D01*
X172471550Y-73614868D01*
X172488587Y-73551283D01*
X173078806Y-74141502D01*
G37*
%TD.AperFunction*%
%TA.AperFunction,Conductor*%
G36*
X153759700Y-73614868D02*
G01*
X153825526Y-73728882D01*
X153918618Y-73821974D01*
X154032632Y-73887800D01*
X154096215Y-73904837D01*
X153463907Y-74537144D01*
X153463907Y-74537145D01*
X153518077Y-74576501D01*
X153518076Y-74576501D01*
X153527120Y-74581109D01*
X153577917Y-74629083D01*
X153594712Y-74696904D01*
X153572175Y-74763039D01*
X153527124Y-74802077D01*
X153517807Y-74806824D01*
X153345838Y-74931765D01*
X153345834Y-74931769D01*
X153327806Y-74949798D01*
X153266483Y-74983283D01*
X153196791Y-74978299D01*
X153140858Y-74936427D01*
X153116441Y-74870963D01*
X153116125Y-74862117D01*
X153116125Y-74229183D01*
X153135810Y-74162144D01*
X153152444Y-74141502D01*
X153742662Y-73551283D01*
X153759700Y-73614868D01*
G37*
%TD.AperFunction*%
%TA.AperFunction,Conductor*%
G36*
X155780828Y-73337412D02*
G01*
X155787306Y-73343444D01*
X156246878Y-73803016D01*
X156280363Y-73864339D01*
X156275379Y-73934031D01*
X156233507Y-73989964D01*
X156221197Y-73998084D01*
X156134107Y-74048364D01*
X156134102Y-74048368D01*
X155284893Y-74897577D01*
X155279942Y-74904030D01*
X155278073Y-74902595D01*
X155276148Y-74904430D01*
X155269456Y-74917522D01*
X155251365Y-74928050D01*
X155236214Y-74942491D01*
X155221776Y-74945270D01*
X155209069Y-74952666D01*
X155188157Y-74951742D01*
X155167604Y-74955699D01*
X155152726Y-74950177D01*
X155139267Y-74949583D01*
X155109585Y-74934166D01*
X155107841Y-74933519D01*
X155105534Y-74931888D01*
X155105417Y-74931771D01*
X154933441Y-74806824D01*
X154916153Y-74798015D01*
X154908846Y-74792850D01*
X154892487Y-74772195D01*
X154873332Y-74754105D01*
X154871136Y-74745238D01*
X154865465Y-74738078D01*
X154862869Y-74711855D01*
X154856537Y-74686284D01*
X154859482Y-74677639D01*
X154858583Y-74668548D01*
X154870575Y-74645086D01*
X154879074Y-74620149D01*
X154886702Y-74613539D01*
X154890385Y-74606335D01*
X154904491Y-74598125D01*
X154924132Y-74581107D01*
X154933180Y-74576497D01*
X154987341Y-74537145D01*
X154987342Y-74537145D01*
X154355033Y-73904837D01*
X154418618Y-73887800D01*
X154532632Y-73821974D01*
X154625724Y-73728882D01*
X154691550Y-73614868D01*
X154708587Y-73551283D01*
X155340895Y-74183592D01*
X155340895Y-74183591D01*
X155380247Y-74129429D01*
X155476720Y-73940092D01*
X155542382Y-73738005D01*
X155542382Y-73738002D01*
X155575625Y-73528121D01*
X155575625Y-73431125D01*
X155595310Y-73364086D01*
X155648114Y-73318331D01*
X155717272Y-73308387D01*
X155780828Y-73337412D01*
G37*
%TD.AperFunction*%
%TA.AperFunction,Conductor*%
G36*
X168604578Y-72627273D02*
G01*
X168624590Y-72627744D01*
X168637536Y-72636499D01*
X168652586Y-72640713D01*
X168665884Y-72655673D01*
X168682466Y-72666888D01*
X168688622Y-72681251D01*
X168699006Y-72692933D01*
X168702105Y-72712710D01*
X168709990Y-72731107D01*
X168707403Y-72746520D01*
X168709823Y-72761961D01*
X168701738Y-72780272D01*
X168698426Y-72800013D01*
X168684203Y-72819992D01*
X168681605Y-72825878D01*
X168678600Y-72827863D01*
X168674553Y-72833549D01*
X167905173Y-73602930D01*
X167793368Y-73714734D01*
X167793367Y-73714736D01*
X167747912Y-73793468D01*
X167743248Y-73801546D01*
X167743246Y-73801549D01*
X167719386Y-73842874D01*
X167668818Y-73891089D01*
X167600211Y-73904310D01*
X167535347Y-73878341D01*
X167494819Y-73821426D01*
X167488000Y-73780872D01*
X167488000Y-73739905D01*
X167487999Y-73739903D01*
X167482993Y-73714736D01*
X167457237Y-73585253D01*
X167447473Y-73561680D01*
X167396897Y-73439577D01*
X167396890Y-73439564D01*
X167309289Y-73308461D01*
X167309286Y-73308457D01*
X167196261Y-73195432D01*
X167162776Y-73134109D01*
X167167760Y-73064417D01*
X167196258Y-73020073D01*
X167555728Y-72660605D01*
X167617051Y-72627120D01*
X167643409Y-72624286D01*
X168403403Y-72624286D01*
X168403407Y-72624287D01*
X168561521Y-72624287D01*
X168569778Y-72622074D01*
X168585303Y-72621878D01*
X168604578Y-72627273D01*
G37*
%TD.AperFunction*%
%TA.AperFunction,Conductor*%
G36*
X153321328Y-71887920D02*
G01*
X153327806Y-71893952D01*
X153345838Y-71911984D01*
X153517804Y-72036923D01*
X153517806Y-72036924D01*
X153517809Y-72036926D01*
X153527118Y-72041669D01*
X153577915Y-72089641D01*
X153594712Y-72157462D01*
X153572177Y-72223597D01*
X153527130Y-72262635D01*
X153518071Y-72267251D01*
X153518065Y-72267255D01*
X153463907Y-72306602D01*
X153463907Y-72306603D01*
X154096216Y-72938912D01*
X154032632Y-72955950D01*
X153918618Y-73021776D01*
X153825526Y-73114868D01*
X153759700Y-73228882D01*
X153742662Y-73292466D01*
X153152444Y-72702248D01*
X153118959Y-72640925D01*
X153116125Y-72614567D01*
X153116125Y-71981633D01*
X153135810Y-71914594D01*
X153188614Y-71868839D01*
X153257772Y-71858895D01*
X153321328Y-71887920D01*
G37*
%TD.AperFunction*%
%TA.AperFunction,Conductor*%
G36*
X173034459Y-71865451D02*
G01*
X173090392Y-71907323D01*
X173114809Y-71972787D01*
X173115125Y-71981633D01*
X173115125Y-72614567D01*
X173095440Y-72681606D01*
X173078806Y-72702248D01*
X172488587Y-73292466D01*
X172471550Y-73228882D01*
X172405724Y-73114868D01*
X172312632Y-73021776D01*
X172198618Y-72955950D01*
X172135034Y-72938912D01*
X172767341Y-72306603D01*
X172713172Y-72267248D01*
X172713172Y-72267247D01*
X172704125Y-72262638D01*
X172653331Y-72214663D01*
X172636537Y-72146841D01*
X172659076Y-72080707D01*
X172704133Y-72041668D01*
X172713441Y-72036926D01*
X172801721Y-71972787D01*
X172885411Y-71911984D01*
X172885413Y-71911981D01*
X172885417Y-71911979D01*
X172903444Y-71893952D01*
X172964767Y-71860467D01*
X173034459Y-71865451D01*
G37*
%TD.AperFunction*%
%TA.AperFunction,Conductor*%
G36*
X155780828Y-60586759D02*
G01*
X155787306Y-60592791D01*
X156124681Y-60930166D01*
X156158166Y-60991489D01*
X156161000Y-61017847D01*
X156161000Y-61991930D01*
X156160999Y-61991948D01*
X156160999Y-62157654D01*
X156160998Y-62157654D01*
X156187305Y-62255830D01*
X156201923Y-62310385D01*
X156230860Y-62360504D01*
X156280980Y-62447316D01*
X156293230Y-62459566D01*
X156300660Y-62471386D01*
X156306520Y-62492113D01*
X156316843Y-62511017D01*
X156315838Y-62525065D01*
X156319671Y-62538620D01*
X156313395Y-62559224D01*
X156311859Y-62580709D01*
X156303417Y-62591985D01*
X156299314Y-62605458D01*
X156282895Y-62619398D01*
X156269987Y-62636642D01*
X156256790Y-62641564D01*
X156246053Y-62650681D01*
X156224703Y-62653531D01*
X156204523Y-62661059D01*
X156195677Y-62661375D01*
X155511344Y-62661375D01*
X155444305Y-62641690D01*
X155400860Y-62593670D01*
X155380677Y-62554060D01*
X155380676Y-62554059D01*
X155255734Y-62382088D01*
X155105411Y-62231765D01*
X154933442Y-62106824D01*
X154924129Y-62102079D01*
X154873332Y-62054105D01*
X154856537Y-61986284D01*
X154879074Y-61920149D01*
X154924132Y-61881107D01*
X154933180Y-61876497D01*
X154987341Y-61837145D01*
X154987342Y-61837145D01*
X154355033Y-61204837D01*
X154418618Y-61187800D01*
X154532632Y-61121974D01*
X154625724Y-61028882D01*
X154691550Y-60914868D01*
X154708587Y-60851283D01*
X155340895Y-61483592D01*
X155340895Y-61483591D01*
X155380247Y-61429429D01*
X155476720Y-61240092D01*
X155542382Y-61038005D01*
X155542382Y-61038002D01*
X155575625Y-60828121D01*
X155575625Y-60680472D01*
X155595310Y-60613433D01*
X155648114Y-60567678D01*
X155717272Y-60557734D01*
X155780828Y-60586759D01*
G37*
%TD.AperFunction*%
%TA.AperFunction,Conductor*%
G36*
X173078806Y-61441502D02*
G01*
X173112291Y-61502825D01*
X173115125Y-61529183D01*
X173115125Y-62162117D01*
X173095440Y-62229156D01*
X173042636Y-62274911D01*
X172973478Y-62284855D01*
X172909922Y-62255830D01*
X172903444Y-62249798D01*
X172885411Y-62231765D01*
X172713442Y-62106824D01*
X172704129Y-62102079D01*
X172653332Y-62054105D01*
X172636537Y-61986284D01*
X172659074Y-61920149D01*
X172704132Y-61881107D01*
X172713180Y-61876497D01*
X172767341Y-61837145D01*
X172767342Y-61837145D01*
X172135033Y-61204837D01*
X172198618Y-61187800D01*
X172312632Y-61121974D01*
X172405724Y-61028882D01*
X172471550Y-60914868D01*
X172488587Y-60851283D01*
X173078806Y-61441502D01*
G37*
%TD.AperFunction*%
%TA.AperFunction,Conductor*%
G36*
X153759700Y-60914868D02*
G01*
X153825526Y-61028882D01*
X153918618Y-61121974D01*
X154032632Y-61187800D01*
X154096215Y-61204837D01*
X153463907Y-61837144D01*
X153463907Y-61837145D01*
X153518077Y-61876501D01*
X153518076Y-61876501D01*
X153527120Y-61881109D01*
X153577917Y-61929083D01*
X153594712Y-61996904D01*
X153572175Y-62063039D01*
X153527124Y-62102077D01*
X153517807Y-62106824D01*
X153345838Y-62231765D01*
X153345834Y-62231769D01*
X153327806Y-62249798D01*
X153266483Y-62283283D01*
X153196791Y-62278299D01*
X153140858Y-62236427D01*
X153116441Y-62170963D01*
X153116125Y-62162117D01*
X153116125Y-61529183D01*
X153135810Y-61462144D01*
X153152444Y-61441502D01*
X153742662Y-60851283D01*
X153759700Y-60914868D01*
G37*
%TD.AperFunction*%
%TA.AperFunction,Conductor*%
G36*
X153321328Y-59187920D02*
G01*
X153327806Y-59193952D01*
X153345838Y-59211984D01*
X153517804Y-59336923D01*
X153517806Y-59336924D01*
X153517809Y-59336926D01*
X153527118Y-59341669D01*
X153577915Y-59389641D01*
X153594712Y-59457462D01*
X153572177Y-59523597D01*
X153527130Y-59562635D01*
X153518071Y-59567251D01*
X153518065Y-59567255D01*
X153463907Y-59606602D01*
X153463907Y-59606603D01*
X154096216Y-60238912D01*
X154032632Y-60255950D01*
X153918618Y-60321776D01*
X153825526Y-60414868D01*
X153759700Y-60528882D01*
X153742662Y-60592466D01*
X153152444Y-60002248D01*
X153118959Y-59940925D01*
X153116125Y-59914567D01*
X153116125Y-59281633D01*
X153135810Y-59214594D01*
X153188614Y-59168839D01*
X153257772Y-59158895D01*
X153321328Y-59187920D01*
G37*
%TD.AperFunction*%
%TA.AperFunction,Conductor*%
G36*
X173034459Y-59165451D02*
G01*
X173090392Y-59207323D01*
X173114809Y-59272787D01*
X173115125Y-59281633D01*
X173115125Y-59914567D01*
X173095440Y-59981606D01*
X173078806Y-60002248D01*
X172488587Y-60592466D01*
X172471550Y-60528882D01*
X172405724Y-60414868D01*
X172312632Y-60321776D01*
X172198618Y-60255950D01*
X172135034Y-60238912D01*
X172767341Y-59606603D01*
X172713172Y-59567248D01*
X172713172Y-59567247D01*
X172704125Y-59562638D01*
X172653331Y-59514663D01*
X172636537Y-59446841D01*
X172659076Y-59380707D01*
X172704133Y-59341668D01*
X172713441Y-59336926D01*
X172828429Y-59253383D01*
X172885411Y-59211984D01*
X172885413Y-59211981D01*
X172885417Y-59211979D01*
X172903444Y-59193952D01*
X172964767Y-59160467D01*
X173034459Y-59165451D01*
G37*
%TD.AperFunction*%
%TD*%
M02*
