%TF.GenerationSoftware,KiCad,Pcbnew,9.0.6*%
%TF.CreationDate,2026-07-09T21:59:02-04:00*%
%TF.ProjectId,EasyDev,45617379-4465-4762-9e6b-696361645f70,rev?*%
%TF.SameCoordinates,Original*%
%TF.FileFunction,Legend,Bot*%
%TF.FilePolarity,Positive*%
%FSLAX46Y46*%
G04 Gerber Fmt 4.6, Leading zero omitted, Abs format (unit mm)*
G04 Created by KiCad (PCBNEW 9.0.6) date 2026-07-09 21:59:02*
%MOMM*%
%LPD*%
G01*
G04 APERTURE LIST*
%ADD10C,0.250000*%
%ADD11C,1.800000*%
G04 APERTURE END LIST*
D10*
X170540244Y-57661943D02*
X169540244Y-57661943D01*
X169540244Y-57661943D02*
X169540244Y-57900038D01*
X169540244Y-57900038D02*
X169587863Y-58042895D01*
X169587863Y-58042895D02*
X169683101Y-58138133D01*
X169683101Y-58138133D02*
X169778339Y-58185752D01*
X169778339Y-58185752D02*
X169968815Y-58233371D01*
X169968815Y-58233371D02*
X170111672Y-58233371D01*
X170111672Y-58233371D02*
X170302148Y-58185752D01*
X170302148Y-58185752D02*
X170397386Y-58138133D01*
X170397386Y-58138133D02*
X170492625Y-58042895D01*
X170492625Y-58042895D02*
X170540244Y-57900038D01*
X170540244Y-57900038D02*
X170540244Y-57661943D01*
X170492625Y-59042895D02*
X170540244Y-58947657D01*
X170540244Y-58947657D02*
X170540244Y-58757181D01*
X170540244Y-58757181D02*
X170492625Y-58661943D01*
X170492625Y-58661943D02*
X170397386Y-58614324D01*
X170397386Y-58614324D02*
X170016434Y-58614324D01*
X170016434Y-58614324D02*
X169921196Y-58661943D01*
X169921196Y-58661943D02*
X169873577Y-58757181D01*
X169873577Y-58757181D02*
X169873577Y-58947657D01*
X169873577Y-58947657D02*
X169921196Y-59042895D01*
X169921196Y-59042895D02*
X170016434Y-59090514D01*
X170016434Y-59090514D02*
X170111672Y-59090514D01*
X170111672Y-59090514D02*
X170206910Y-58614324D01*
X170492625Y-59471467D02*
X170540244Y-59566705D01*
X170540244Y-59566705D02*
X170540244Y-59757181D01*
X170540244Y-59757181D02*
X170492625Y-59852419D01*
X170492625Y-59852419D02*
X170397386Y-59900038D01*
X170397386Y-59900038D02*
X170349767Y-59900038D01*
X170349767Y-59900038D02*
X170254529Y-59852419D01*
X170254529Y-59852419D02*
X170206910Y-59757181D01*
X170206910Y-59757181D02*
X170206910Y-59614324D01*
X170206910Y-59614324D02*
X170159291Y-59519086D01*
X170159291Y-59519086D02*
X170064053Y-59471467D01*
X170064053Y-59471467D02*
X170016434Y-59471467D01*
X170016434Y-59471467D02*
X169921196Y-59519086D01*
X169921196Y-59519086D02*
X169873577Y-59614324D01*
X169873577Y-59614324D02*
X169873577Y-59757181D01*
X169873577Y-59757181D02*
X169921196Y-59852419D01*
X170540244Y-60328610D02*
X169873577Y-60328610D01*
X169540244Y-60328610D02*
X169587863Y-60280991D01*
X169587863Y-60280991D02*
X169635482Y-60328610D01*
X169635482Y-60328610D02*
X169587863Y-60376229D01*
X169587863Y-60376229D02*
X169540244Y-60328610D01*
X169540244Y-60328610D02*
X169635482Y-60328610D01*
X169873577Y-61233371D02*
X170683101Y-61233371D01*
X170683101Y-61233371D02*
X170778339Y-61185752D01*
X170778339Y-61185752D02*
X170825958Y-61138133D01*
X170825958Y-61138133D02*
X170873577Y-61042895D01*
X170873577Y-61042895D02*
X170873577Y-60900038D01*
X170873577Y-60900038D02*
X170825958Y-60804800D01*
X170492625Y-61233371D02*
X170540244Y-61138133D01*
X170540244Y-61138133D02*
X170540244Y-60947657D01*
X170540244Y-60947657D02*
X170492625Y-60852419D01*
X170492625Y-60852419D02*
X170445005Y-60804800D01*
X170445005Y-60804800D02*
X170349767Y-60757181D01*
X170349767Y-60757181D02*
X170064053Y-60757181D01*
X170064053Y-60757181D02*
X169968815Y-60804800D01*
X169968815Y-60804800D02*
X169921196Y-60852419D01*
X169921196Y-60852419D02*
X169873577Y-60947657D01*
X169873577Y-60947657D02*
X169873577Y-61138133D01*
X169873577Y-61138133D02*
X169921196Y-61233371D01*
X169873577Y-61709562D02*
X170540244Y-61709562D01*
X169968815Y-61709562D02*
X169921196Y-61757181D01*
X169921196Y-61757181D02*
X169873577Y-61852419D01*
X169873577Y-61852419D02*
X169873577Y-61995276D01*
X169873577Y-61995276D02*
X169921196Y-62090514D01*
X169921196Y-62090514D02*
X170016434Y-62138133D01*
X170016434Y-62138133D02*
X170540244Y-62138133D01*
X170492625Y-62995276D02*
X170540244Y-62900038D01*
X170540244Y-62900038D02*
X170540244Y-62709562D01*
X170540244Y-62709562D02*
X170492625Y-62614324D01*
X170492625Y-62614324D02*
X170397386Y-62566705D01*
X170397386Y-62566705D02*
X170016434Y-62566705D01*
X170016434Y-62566705D02*
X169921196Y-62614324D01*
X169921196Y-62614324D02*
X169873577Y-62709562D01*
X169873577Y-62709562D02*
X169873577Y-62900038D01*
X169873577Y-62900038D02*
X169921196Y-62995276D01*
X169921196Y-62995276D02*
X170016434Y-63042895D01*
X170016434Y-63042895D02*
X170111672Y-63042895D01*
X170111672Y-63042895D02*
X170206910Y-62566705D01*
X170540244Y-63900038D02*
X169540244Y-63900038D01*
X170492625Y-63900038D02*
X170540244Y-63804800D01*
X170540244Y-63804800D02*
X170540244Y-63614324D01*
X170540244Y-63614324D02*
X170492625Y-63519086D01*
X170492625Y-63519086D02*
X170445005Y-63471467D01*
X170445005Y-63471467D02*
X170349767Y-63423848D01*
X170349767Y-63423848D02*
X170064053Y-63423848D01*
X170064053Y-63423848D02*
X169968815Y-63471467D01*
X169968815Y-63471467D02*
X169921196Y-63519086D01*
X169921196Y-63519086D02*
X169873577Y-63614324D01*
X169873577Y-63614324D02*
X169873577Y-63804800D01*
X169873577Y-63804800D02*
X169921196Y-63900038D01*
X170540244Y-65138134D02*
X169540244Y-65138134D01*
X169921196Y-65138134D02*
X169873577Y-65233372D01*
X169873577Y-65233372D02*
X169873577Y-65423848D01*
X169873577Y-65423848D02*
X169921196Y-65519086D01*
X169921196Y-65519086D02*
X169968815Y-65566705D01*
X169968815Y-65566705D02*
X170064053Y-65614324D01*
X170064053Y-65614324D02*
X170349767Y-65614324D01*
X170349767Y-65614324D02*
X170445005Y-65566705D01*
X170445005Y-65566705D02*
X170492625Y-65519086D01*
X170492625Y-65519086D02*
X170540244Y-65423848D01*
X170540244Y-65423848D02*
X170540244Y-65233372D01*
X170540244Y-65233372D02*
X170492625Y-65138134D01*
X169873577Y-65947658D02*
X170540244Y-66185753D01*
X169873577Y-66423848D02*
X170540244Y-66185753D01*
X170540244Y-66185753D02*
X170778339Y-66090515D01*
X170778339Y-66090515D02*
X170825958Y-66042896D01*
X170825958Y-66042896D02*
X170873577Y-65947658D01*
X170254529Y-67519087D02*
X170254529Y-67995277D01*
X170540244Y-67423849D02*
X169540244Y-67757182D01*
X169540244Y-67757182D02*
X170540244Y-68090515D01*
X170540244Y-68423849D02*
X169873577Y-68423849D01*
X170064053Y-68423849D02*
X169968815Y-68471468D01*
X169968815Y-68471468D02*
X169921196Y-68519087D01*
X169921196Y-68519087D02*
X169873577Y-68614325D01*
X169873577Y-68614325D02*
X169873577Y-68709563D01*
X169873577Y-68947659D02*
X170540244Y-69185754D01*
X169873577Y-69423849D02*
X170540244Y-69185754D01*
X170540244Y-69185754D02*
X170778339Y-69090516D01*
X170778339Y-69090516D02*
X170825958Y-69042897D01*
X170825958Y-69042897D02*
X170873577Y-68947659D01*
X170540244Y-70233373D02*
X170016434Y-70233373D01*
X170016434Y-70233373D02*
X169921196Y-70185754D01*
X169921196Y-70185754D02*
X169873577Y-70090516D01*
X169873577Y-70090516D02*
X169873577Y-69900040D01*
X169873577Y-69900040D02*
X169921196Y-69804802D01*
X170492625Y-70233373D02*
X170540244Y-70138135D01*
X170540244Y-70138135D02*
X170540244Y-69900040D01*
X170540244Y-69900040D02*
X170492625Y-69804802D01*
X170492625Y-69804802D02*
X170397386Y-69757183D01*
X170397386Y-69757183D02*
X170302148Y-69757183D01*
X170302148Y-69757183D02*
X170206910Y-69804802D01*
X170206910Y-69804802D02*
X170159291Y-69900040D01*
X170159291Y-69900040D02*
X170159291Y-70138135D01*
X170159291Y-70138135D02*
X170111672Y-70233373D01*
X170540244Y-71471469D02*
X169540244Y-71471469D01*
X169540244Y-71471469D02*
X169540244Y-71852421D01*
X169540244Y-71852421D02*
X169587863Y-71947659D01*
X169587863Y-71947659D02*
X169635482Y-71995278D01*
X169635482Y-71995278D02*
X169730720Y-72042897D01*
X169730720Y-72042897D02*
X169873577Y-72042897D01*
X169873577Y-72042897D02*
X169968815Y-71995278D01*
X169968815Y-71995278D02*
X170016434Y-71947659D01*
X170016434Y-71947659D02*
X170064053Y-71852421D01*
X170064053Y-71852421D02*
X170064053Y-71471469D01*
X170540244Y-72900040D02*
X170016434Y-72900040D01*
X170016434Y-72900040D02*
X169921196Y-72852421D01*
X169921196Y-72852421D02*
X169873577Y-72757183D01*
X169873577Y-72757183D02*
X169873577Y-72566707D01*
X169873577Y-72566707D02*
X169921196Y-72471469D01*
X170492625Y-72900040D02*
X170540244Y-72804802D01*
X170540244Y-72804802D02*
X170540244Y-72566707D01*
X170540244Y-72566707D02*
X170492625Y-72471469D01*
X170492625Y-72471469D02*
X170397386Y-72423850D01*
X170397386Y-72423850D02*
X170302148Y-72423850D01*
X170302148Y-72423850D02*
X170206910Y-72471469D01*
X170206910Y-72471469D02*
X170159291Y-72566707D01*
X170159291Y-72566707D02*
X170159291Y-72804802D01*
X170159291Y-72804802D02*
X170111672Y-72900040D01*
X169873577Y-73233374D02*
X169873577Y-73614326D01*
X169540244Y-73376231D02*
X170397386Y-73376231D01*
X170397386Y-73376231D02*
X170492625Y-73423850D01*
X170492625Y-73423850D02*
X170540244Y-73519088D01*
X170540244Y-73519088D02*
X170540244Y-73614326D01*
X170492625Y-74328612D02*
X170540244Y-74233374D01*
X170540244Y-74233374D02*
X170540244Y-74042898D01*
X170540244Y-74042898D02*
X170492625Y-73947660D01*
X170492625Y-73947660D02*
X170397386Y-73900041D01*
X170397386Y-73900041D02*
X170016434Y-73900041D01*
X170016434Y-73900041D02*
X169921196Y-73947660D01*
X169921196Y-73947660D02*
X169873577Y-74042898D01*
X169873577Y-74042898D02*
X169873577Y-74233374D01*
X169873577Y-74233374D02*
X169921196Y-74328612D01*
X169921196Y-74328612D02*
X170016434Y-74376231D01*
X170016434Y-74376231D02*
X170111672Y-74376231D01*
X170111672Y-74376231D02*
X170206910Y-73900041D01*
X170540244Y-74947660D02*
X170492625Y-74852422D01*
X170492625Y-74852422D02*
X170397386Y-74804803D01*
X170397386Y-74804803D02*
X169540244Y-74804803D01*
X170111672Y-76233375D02*
X170159291Y-76185756D01*
X170159291Y-76185756D02*
X170206910Y-76233375D01*
X170206910Y-76233375D02*
X170159291Y-76280994D01*
X170159291Y-76280994D02*
X170111672Y-76233375D01*
X170111672Y-76233375D02*
X170206910Y-76233375D01*
X170540244Y-77614328D02*
X169540244Y-77614328D01*
X170540244Y-78042899D02*
X170016434Y-78042899D01*
X170016434Y-78042899D02*
X169921196Y-77995280D01*
X169921196Y-77995280D02*
X169873577Y-77900042D01*
X169873577Y-77900042D02*
X169873577Y-77757185D01*
X169873577Y-77757185D02*
X169921196Y-77661947D01*
X169921196Y-77661947D02*
X169968815Y-77614328D01*
X169873577Y-78376233D02*
X169873577Y-78757185D01*
X169540244Y-78519090D02*
X170397386Y-78519090D01*
X170397386Y-78519090D02*
X170492625Y-78566709D01*
X170492625Y-78566709D02*
X170540244Y-78661947D01*
X170540244Y-78661947D02*
X170540244Y-78757185D01*
X169873577Y-78947662D02*
X169873577Y-79328614D01*
X169540244Y-79090519D02*
X170397386Y-79090519D01*
X170397386Y-79090519D02*
X170492625Y-79138138D01*
X170492625Y-79138138D02*
X170540244Y-79233376D01*
X170540244Y-79233376D02*
X170540244Y-79328614D01*
X169873577Y-79661948D02*
X170873577Y-79661948D01*
X169921196Y-79661948D02*
X169873577Y-79757186D01*
X169873577Y-79757186D02*
X169873577Y-79947662D01*
X169873577Y-79947662D02*
X169921196Y-80042900D01*
X169921196Y-80042900D02*
X169968815Y-80090519D01*
X169968815Y-80090519D02*
X170064053Y-80138138D01*
X170064053Y-80138138D02*
X170349767Y-80138138D01*
X170349767Y-80138138D02*
X170445005Y-80090519D01*
X170445005Y-80090519D02*
X170492625Y-80042900D01*
X170492625Y-80042900D02*
X170540244Y-79947662D01*
X170540244Y-79947662D02*
X170540244Y-79757186D01*
X170540244Y-79757186D02*
X170492625Y-79661948D01*
X170492625Y-80519091D02*
X170540244Y-80614329D01*
X170540244Y-80614329D02*
X170540244Y-80804805D01*
X170540244Y-80804805D02*
X170492625Y-80900043D01*
X170492625Y-80900043D02*
X170397386Y-80947662D01*
X170397386Y-80947662D02*
X170349767Y-80947662D01*
X170349767Y-80947662D02*
X170254529Y-80900043D01*
X170254529Y-80900043D02*
X170206910Y-80804805D01*
X170206910Y-80804805D02*
X170206910Y-80661948D01*
X170206910Y-80661948D02*
X170159291Y-80566710D01*
X170159291Y-80566710D02*
X170064053Y-80519091D01*
X170064053Y-80519091D02*
X170016434Y-80519091D01*
X170016434Y-80519091D02*
X169921196Y-80566710D01*
X169921196Y-80566710D02*
X169873577Y-80661948D01*
X169873577Y-80661948D02*
X169873577Y-80804805D01*
X169873577Y-80804805D02*
X169921196Y-80900043D01*
X170445005Y-81376234D02*
X170492625Y-81423853D01*
X170492625Y-81423853D02*
X170540244Y-81376234D01*
X170540244Y-81376234D02*
X170492625Y-81328615D01*
X170492625Y-81328615D02*
X170445005Y-81376234D01*
X170445005Y-81376234D02*
X170540244Y-81376234D01*
X169921196Y-81376234D02*
X169968815Y-81423853D01*
X169968815Y-81423853D02*
X170016434Y-81376234D01*
X170016434Y-81376234D02*
X169968815Y-81328615D01*
X169968815Y-81328615D02*
X169921196Y-81376234D01*
X169921196Y-81376234D02*
X170016434Y-81376234D01*
X169492625Y-82566709D02*
X170778339Y-81709567D01*
X169492625Y-83614328D02*
X170778339Y-82757186D01*
X169873577Y-84376233D02*
X170683101Y-84376233D01*
X170683101Y-84376233D02*
X170778339Y-84328614D01*
X170778339Y-84328614D02*
X170825958Y-84280995D01*
X170825958Y-84280995D02*
X170873577Y-84185757D01*
X170873577Y-84185757D02*
X170873577Y-84042900D01*
X170873577Y-84042900D02*
X170825958Y-83947662D01*
X170492625Y-84376233D02*
X170540244Y-84280995D01*
X170540244Y-84280995D02*
X170540244Y-84090519D01*
X170540244Y-84090519D02*
X170492625Y-83995281D01*
X170492625Y-83995281D02*
X170445005Y-83947662D01*
X170445005Y-83947662D02*
X170349767Y-83900043D01*
X170349767Y-83900043D02*
X170064053Y-83900043D01*
X170064053Y-83900043D02*
X169968815Y-83947662D01*
X169968815Y-83947662D02*
X169921196Y-83995281D01*
X169921196Y-83995281D02*
X169873577Y-84090519D01*
X169873577Y-84090519D02*
X169873577Y-84280995D01*
X169873577Y-84280995D02*
X169921196Y-84376233D01*
X170540244Y-84852424D02*
X169873577Y-84852424D01*
X169540244Y-84852424D02*
X169587863Y-84804805D01*
X169587863Y-84804805D02*
X169635482Y-84852424D01*
X169635482Y-84852424D02*
X169587863Y-84900043D01*
X169587863Y-84900043D02*
X169540244Y-84852424D01*
X169540244Y-84852424D02*
X169635482Y-84852424D01*
X169873577Y-85185757D02*
X169873577Y-85566709D01*
X169540244Y-85328614D02*
X170397386Y-85328614D01*
X170397386Y-85328614D02*
X170492625Y-85376233D01*
X170492625Y-85376233D02*
X170540244Y-85471471D01*
X170540244Y-85471471D02*
X170540244Y-85566709D01*
X170540244Y-85900043D02*
X169540244Y-85900043D01*
X170540244Y-86328614D02*
X170016434Y-86328614D01*
X170016434Y-86328614D02*
X169921196Y-86280995D01*
X169921196Y-86280995D02*
X169873577Y-86185757D01*
X169873577Y-86185757D02*
X169873577Y-86042900D01*
X169873577Y-86042900D02*
X169921196Y-85947662D01*
X169921196Y-85947662D02*
X169968815Y-85900043D01*
X169873577Y-87233376D02*
X170540244Y-87233376D01*
X169873577Y-86804805D02*
X170397386Y-86804805D01*
X170397386Y-86804805D02*
X170492625Y-86852424D01*
X170492625Y-86852424D02*
X170540244Y-86947662D01*
X170540244Y-86947662D02*
X170540244Y-87090519D01*
X170540244Y-87090519D02*
X170492625Y-87185757D01*
X170492625Y-87185757D02*
X170445005Y-87233376D01*
X170540244Y-87709567D02*
X169540244Y-87709567D01*
X169921196Y-87709567D02*
X169873577Y-87804805D01*
X169873577Y-87804805D02*
X169873577Y-87995281D01*
X169873577Y-87995281D02*
X169921196Y-88090519D01*
X169921196Y-88090519D02*
X169968815Y-88138138D01*
X169968815Y-88138138D02*
X170064053Y-88185757D01*
X170064053Y-88185757D02*
X170349767Y-88185757D01*
X170349767Y-88185757D02*
X170445005Y-88138138D01*
X170445005Y-88138138D02*
X170492625Y-88090519D01*
X170492625Y-88090519D02*
X170540244Y-87995281D01*
X170540244Y-87995281D02*
X170540244Y-87804805D01*
X170540244Y-87804805D02*
X170492625Y-87709567D01*
X170445005Y-88614329D02*
X170492625Y-88661948D01*
X170492625Y-88661948D02*
X170540244Y-88614329D01*
X170540244Y-88614329D02*
X170492625Y-88566710D01*
X170492625Y-88566710D02*
X170445005Y-88614329D01*
X170445005Y-88614329D02*
X170540244Y-88614329D01*
X170492625Y-89519090D02*
X170540244Y-89423852D01*
X170540244Y-89423852D02*
X170540244Y-89233376D01*
X170540244Y-89233376D02*
X170492625Y-89138138D01*
X170492625Y-89138138D02*
X170445005Y-89090519D01*
X170445005Y-89090519D02*
X170349767Y-89042900D01*
X170349767Y-89042900D02*
X170064053Y-89042900D01*
X170064053Y-89042900D02*
X169968815Y-89090519D01*
X169968815Y-89090519D02*
X169921196Y-89138138D01*
X169921196Y-89138138D02*
X169873577Y-89233376D01*
X169873577Y-89233376D02*
X169873577Y-89423852D01*
X169873577Y-89423852D02*
X169921196Y-89519090D01*
X170540244Y-90090519D02*
X170492625Y-89995281D01*
X170492625Y-89995281D02*
X170445005Y-89947662D01*
X170445005Y-89947662D02*
X170349767Y-89900043D01*
X170349767Y-89900043D02*
X170064053Y-89900043D01*
X170064053Y-89900043D02*
X169968815Y-89947662D01*
X169968815Y-89947662D02*
X169921196Y-89995281D01*
X169921196Y-89995281D02*
X169873577Y-90090519D01*
X169873577Y-90090519D02*
X169873577Y-90233376D01*
X169873577Y-90233376D02*
X169921196Y-90328614D01*
X169921196Y-90328614D02*
X169968815Y-90376233D01*
X169968815Y-90376233D02*
X170064053Y-90423852D01*
X170064053Y-90423852D02*
X170349767Y-90423852D01*
X170349767Y-90423852D02*
X170445005Y-90376233D01*
X170445005Y-90376233D02*
X170492625Y-90328614D01*
X170492625Y-90328614D02*
X170540244Y-90233376D01*
X170540244Y-90233376D02*
X170540244Y-90090519D01*
X170540244Y-90852424D02*
X169873577Y-90852424D01*
X169968815Y-90852424D02*
X169921196Y-90900043D01*
X169921196Y-90900043D02*
X169873577Y-90995281D01*
X169873577Y-90995281D02*
X169873577Y-91138138D01*
X169873577Y-91138138D02*
X169921196Y-91233376D01*
X169921196Y-91233376D02*
X170016434Y-91280995D01*
X170016434Y-91280995D02*
X170540244Y-91280995D01*
X170016434Y-91280995D02*
X169921196Y-91328614D01*
X169921196Y-91328614D02*
X169873577Y-91423852D01*
X169873577Y-91423852D02*
X169873577Y-91566709D01*
X169873577Y-91566709D02*
X169921196Y-91661948D01*
X169921196Y-91661948D02*
X170016434Y-91709567D01*
X170016434Y-91709567D02*
X170540244Y-91709567D01*
X169492625Y-92900042D02*
X170778339Y-92042900D01*
X169873577Y-93233376D02*
X170873577Y-93233376D01*
X169921196Y-93233376D02*
X169873577Y-93328614D01*
X169873577Y-93328614D02*
X169873577Y-93519090D01*
X169873577Y-93519090D02*
X169921196Y-93614328D01*
X169921196Y-93614328D02*
X169968815Y-93661947D01*
X169968815Y-93661947D02*
X170064053Y-93709566D01*
X170064053Y-93709566D02*
X170349767Y-93709566D01*
X170349767Y-93709566D02*
X170445005Y-93661947D01*
X170445005Y-93661947D02*
X170492625Y-93614328D01*
X170492625Y-93614328D02*
X170540244Y-93519090D01*
X170540244Y-93519090D02*
X170540244Y-93328614D01*
X170540244Y-93328614D02*
X170492625Y-93233376D01*
X170540244Y-94566709D02*
X170016434Y-94566709D01*
X170016434Y-94566709D02*
X169921196Y-94519090D01*
X169921196Y-94519090D02*
X169873577Y-94423852D01*
X169873577Y-94423852D02*
X169873577Y-94233376D01*
X169873577Y-94233376D02*
X169921196Y-94138138D01*
X170492625Y-94566709D02*
X170540244Y-94471471D01*
X170540244Y-94471471D02*
X170540244Y-94233376D01*
X170540244Y-94233376D02*
X170492625Y-94138138D01*
X170492625Y-94138138D02*
X170397386Y-94090519D01*
X170397386Y-94090519D02*
X170302148Y-94090519D01*
X170302148Y-94090519D02*
X170206910Y-94138138D01*
X170206910Y-94138138D02*
X170159291Y-94233376D01*
X170159291Y-94233376D02*
X170159291Y-94471471D01*
X170159291Y-94471471D02*
X170111672Y-94566709D01*
X170540244Y-95042900D02*
X169873577Y-95042900D01*
X170064053Y-95042900D02*
X169968815Y-95090519D01*
X169968815Y-95090519D02*
X169921196Y-95138138D01*
X169921196Y-95138138D02*
X169873577Y-95233376D01*
X169873577Y-95233376D02*
X169873577Y-95328614D01*
X169873577Y-95566710D02*
X170540244Y-95804805D01*
X169873577Y-96042900D02*
X170540244Y-95804805D01*
X170540244Y-95804805D02*
X170778339Y-95709567D01*
X170778339Y-95709567D02*
X170825958Y-95661948D01*
X170825958Y-95661948D02*
X170873577Y-95566710D01*
X170540244Y-96852424D02*
X170016434Y-96852424D01*
X170016434Y-96852424D02*
X169921196Y-96804805D01*
X169921196Y-96804805D02*
X169873577Y-96709567D01*
X169873577Y-96709567D02*
X169873577Y-96519091D01*
X169873577Y-96519091D02*
X169921196Y-96423853D01*
X170492625Y-96852424D02*
X170540244Y-96757186D01*
X170540244Y-96757186D02*
X170540244Y-96519091D01*
X170540244Y-96519091D02*
X170492625Y-96423853D01*
X170492625Y-96423853D02*
X170397386Y-96376234D01*
X170397386Y-96376234D02*
X170302148Y-96376234D01*
X170302148Y-96376234D02*
X170206910Y-96423853D01*
X170206910Y-96423853D02*
X170159291Y-96519091D01*
X170159291Y-96519091D02*
X170159291Y-96757186D01*
X170159291Y-96757186D02*
X170111672Y-96852424D01*
X169540244Y-97233377D02*
X169540244Y-97900043D01*
X169540244Y-97900043D02*
X170540244Y-97471472D01*
X169635482Y-98233377D02*
X169587863Y-98280996D01*
X169587863Y-98280996D02*
X169540244Y-98376234D01*
X169540244Y-98376234D02*
X169540244Y-98614329D01*
X169540244Y-98614329D02*
X169587863Y-98709567D01*
X169587863Y-98709567D02*
X169635482Y-98757186D01*
X169635482Y-98757186D02*
X169730720Y-98804805D01*
X169730720Y-98804805D02*
X169825958Y-98804805D01*
X169825958Y-98804805D02*
X169968815Y-98757186D01*
X169968815Y-98757186D02*
X170540244Y-98185758D01*
X170540244Y-98185758D02*
X170540244Y-98804805D01*
X169540244Y-99709567D02*
X169540244Y-99233377D01*
X169540244Y-99233377D02*
X170016434Y-99185758D01*
X170016434Y-99185758D02*
X169968815Y-99233377D01*
X169968815Y-99233377D02*
X169921196Y-99328615D01*
X169921196Y-99328615D02*
X169921196Y-99566710D01*
X169921196Y-99566710D02*
X169968815Y-99661948D01*
X169968815Y-99661948D02*
X170016434Y-99709567D01*
X170016434Y-99709567D02*
X170111672Y-99757186D01*
X170111672Y-99757186D02*
X170349767Y-99757186D01*
X170349767Y-99757186D02*
X170445005Y-99709567D01*
X170445005Y-99709567D02*
X170492625Y-99661948D01*
X170492625Y-99661948D02*
X170540244Y-99566710D01*
X170540244Y-99566710D02*
X170540244Y-99328615D01*
X170540244Y-99328615D02*
X170492625Y-99233377D01*
X170492625Y-99233377D02*
X170445005Y-99185758D01*
X169873577Y-100614329D02*
X170540244Y-100614329D01*
X169492625Y-100376234D02*
X170206910Y-100138139D01*
X170206910Y-100138139D02*
X170206910Y-100757186D01*
D11*
G36*
X160760283Y-57628596D02*
G01*
X162502345Y-57352113D01*
X163518564Y-57212312D01*
X164051456Y-57177724D01*
X164340042Y-57221848D01*
X164569794Y-57352085D01*
X164755290Y-57587855D01*
X164888536Y-57973640D01*
X164941721Y-58571862D01*
X164899380Y-59270544D01*
X164776256Y-59914467D01*
X164576706Y-60509702D01*
X164303026Y-61061674D01*
X164829988Y-60896678D01*
X165206186Y-60701567D01*
X165463468Y-60479578D01*
X165622548Y-60227340D01*
X165753425Y-59816272D01*
X165920524Y-59027619D01*
X166042148Y-58222170D01*
X166075008Y-57714081D01*
X166017801Y-57079542D01*
X165867692Y-56624080D01*
X165647671Y-56304584D01*
X165366019Y-56088606D01*
X165014731Y-55957917D01*
X164571082Y-55911569D01*
X164084477Y-55944890D01*
X163042122Y-56086935D01*
X160760283Y-56448903D01*
X160760283Y-56385888D01*
X160794926Y-56025728D01*
X160900712Y-55659040D01*
X161082684Y-55281911D01*
X160344708Y-55605142D01*
X160040377Y-55800194D01*
X159884148Y-56035034D01*
X159822391Y-56424479D01*
X159822391Y-56592029D01*
X156617925Y-57121059D01*
X156617925Y-56981841D01*
X156667158Y-56491150D01*
X156814753Y-56014135D01*
X157064245Y-55545072D01*
X157423926Y-55079189D01*
X156828880Y-55257174D01*
X156403794Y-55446610D01*
X156112175Y-55643835D01*
X155925496Y-55849043D01*
X155817664Y-56134928D01*
X155722595Y-56813392D01*
X155680032Y-58145902D01*
X155680032Y-59774514D01*
X155628531Y-60802047D01*
X155487388Y-61638148D01*
X155273978Y-62312197D01*
X155894702Y-61978144D01*
X156249179Y-61718567D01*
X156421309Y-61516454D01*
X156513662Y-61273993D01*
X156587118Y-60820043D01*
X156617925Y-60053439D01*
X156617925Y-58300752D01*
X159822391Y-57765861D01*
X159822391Y-58878143D01*
X159773923Y-59665904D01*
X159641540Y-60298750D01*
X159441372Y-60802776D01*
X160065522Y-60510427D01*
X160412294Y-60286660D01*
X160574659Y-60115477D01*
X160660622Y-59902753D01*
X160730511Y-59482727D01*
X160760283Y-58747228D01*
X160760283Y-57628596D01*
G37*
G36*
X164324850Y-62414431D02*
G01*
X164891589Y-62534760D01*
X165345943Y-62721548D01*
X165713619Y-62987739D01*
X165924909Y-63295385D01*
X165996850Y-63659929D01*
X165935543Y-64010797D01*
X165733704Y-64415174D01*
X165352246Y-64890405D01*
X164738389Y-65453648D01*
X163856435Y-66093953D01*
X162869624Y-66658674D01*
X161769006Y-67149182D01*
X163038458Y-67119873D01*
X163915716Y-67167133D01*
X164539394Y-67290384D01*
X164970990Y-67469095D01*
X165257930Y-67694450D01*
X165428827Y-67971077D01*
X165488825Y-68316175D01*
X165416268Y-68748624D01*
X165176798Y-69252329D01*
X164724212Y-69848912D01*
X163997112Y-70560278D01*
X163227051Y-71177341D01*
X162352813Y-71770279D01*
X161366453Y-72339188D01*
X160258975Y-72883516D01*
X159873682Y-72432155D01*
X161112496Y-71734581D01*
X162141843Y-71062105D01*
X162985336Y-70413244D01*
X163598848Y-69845606D01*
X163963851Y-69407035D01*
X164146750Y-69069730D01*
X164199223Y-68808080D01*
X164155270Y-68637205D01*
X164023058Y-68498364D01*
X163777657Y-68383703D01*
X163367912Y-68300024D01*
X162723996Y-68266349D01*
X161470847Y-68308677D01*
X160462307Y-68424130D01*
X159882230Y-68516942D01*
X159206134Y-68653019D01*
X158664535Y-68817520D01*
X158236033Y-69005428D01*
X158227485Y-68764116D01*
X158284361Y-68239857D01*
X158427379Y-67905182D01*
X158631253Y-67702350D01*
X158896710Y-67595658D01*
X158506099Y-66946755D01*
X158288798Y-66358723D01*
X158220158Y-65818547D01*
X158255868Y-65518129D01*
X159158050Y-65518129D01*
X159203156Y-65872983D01*
X159351839Y-66294907D01*
X159629528Y-66799331D01*
X160067855Y-67402706D01*
X160431166Y-67187773D01*
X162420336Y-66096660D01*
X163632347Y-65326015D01*
X164293671Y-64798039D01*
X164591412Y-64445968D01*
X164668169Y-64211918D01*
X164619378Y-63968707D01*
X164481028Y-63783635D01*
X164244316Y-63641964D01*
X163875526Y-63544228D01*
X163322391Y-63506056D01*
X162474440Y-63546087D01*
X161710502Y-63661621D01*
X161019371Y-63847979D01*
X160391477Y-64103474D01*
X159811613Y-64445024D01*
X159437613Y-64790050D01*
X159227127Y-65143816D01*
X159158050Y-65518129D01*
X158255868Y-65518129D01*
X158282103Y-65297417D01*
X158466728Y-64803618D01*
X158779019Y-64328380D01*
X159232671Y-63865213D01*
X159849257Y-63410313D01*
X160523573Y-63034928D01*
X161231278Y-62745967D01*
X161978021Y-62539258D01*
X162770967Y-62413602D01*
X163618535Y-62370815D01*
X164324850Y-62414431D01*
G37*
G36*
X166098457Y-71144626D02*
G01*
X166384226Y-71270712D01*
X166652031Y-71496216D01*
X166849549Y-71771334D01*
X166970707Y-72085055D01*
X167012900Y-72446810D01*
X166963172Y-72908549D01*
X166817304Y-73332617D01*
X166575435Y-73726796D01*
X166231323Y-74096914D01*
X165809511Y-74413710D01*
X165368242Y-74630260D01*
X164900424Y-74758174D01*
X164395227Y-74801311D01*
X163920721Y-74757603D01*
X163412150Y-74619594D01*
X162698082Y-75532336D01*
X161910109Y-76343233D01*
X161047355Y-77059905D01*
X160106934Y-77688261D01*
X159752782Y-77225177D01*
X160832896Y-76431741D01*
X161480189Y-75879399D01*
X162042943Y-75278385D01*
X162802764Y-74321618D01*
X161714052Y-73842902D01*
X161299339Y-73662651D01*
X164045350Y-73662651D01*
X164421939Y-73751717D01*
X164796396Y-73780864D01*
X165204433Y-73745854D01*
X165544306Y-73646378D01*
X165830765Y-73484353D01*
X166051885Y-73269122D01*
X166184955Y-73016343D01*
X166231323Y-72714500D01*
X166187695Y-72404896D01*
X166078693Y-72218879D01*
X165917959Y-72115589D01*
X165690936Y-72079468D01*
X165458393Y-72133899D01*
X165136745Y-72342067D01*
X164681382Y-72805764D01*
X164045350Y-73662651D01*
X161299339Y-73662651D01*
X160296832Y-73226921D01*
X159893383Y-73685078D01*
X159519310Y-73968110D01*
X159166742Y-74119650D01*
X158821606Y-74167256D01*
X158583889Y-74129305D01*
X158357056Y-74009478D01*
X158131102Y-73782830D01*
X157905695Y-73407173D01*
X158277813Y-72934005D01*
X158670795Y-72594633D01*
X159085930Y-72365215D01*
X159530382Y-72230459D01*
X160016564Y-72184981D01*
X160437957Y-72221806D01*
X160976924Y-72347588D01*
X161664020Y-72590590D01*
X162532876Y-72985121D01*
X163395664Y-73413034D01*
X164146894Y-72275379D01*
X164690151Y-71639343D01*
X165089775Y-71319890D01*
X165448368Y-71153773D01*
X165783137Y-71102985D01*
X166098457Y-71144626D01*
G37*
G36*
X165786801Y-78433202D02*
G01*
X164584283Y-78238913D01*
X163380301Y-77962879D01*
X162171396Y-77602288D01*
X160996373Y-77162005D01*
X160095103Y-76727969D01*
X159421222Y-76301939D01*
X159156541Y-76597807D01*
X159009663Y-76879424D01*
X158962656Y-77154835D01*
X159008396Y-77387676D01*
X159144492Y-77591513D01*
X159383364Y-77775212D01*
X159916945Y-78015871D01*
X161061313Y-78388261D01*
X162990853Y-78902960D01*
X164585126Y-79238226D01*
X163039561Y-79959035D01*
X161646523Y-80495168D01*
X160389241Y-80870364D01*
X159251383Y-81105274D01*
X158217105Y-81217082D01*
X158365783Y-81715603D01*
X158557784Y-82005613D01*
X158778679Y-82155679D01*
X159038371Y-82203823D01*
X159482288Y-82143890D01*
X160315505Y-81897712D01*
X161740918Y-81341646D01*
X163085066Y-80742896D01*
X164331239Y-80123789D01*
X165484551Y-79484912D01*
X166757495Y-78680580D01*
X167777260Y-77920638D01*
X168576665Y-77201241D01*
X169122968Y-76589682D01*
X169467925Y-76071187D01*
X169652844Y-75629119D01*
X169709341Y-75247298D01*
X169651630Y-74895379D01*
X169502962Y-74675293D01*
X169272358Y-74546359D01*
X168931428Y-74499427D01*
X168607404Y-74530501D01*
X168177939Y-74638645D01*
X168356587Y-74974380D01*
X168419739Y-75389447D01*
X168358319Y-75872727D01*
X168170701Y-76355820D01*
X167844641Y-76847359D01*
X167359003Y-77354341D01*
X166684896Y-77881868D01*
X165786801Y-78433202D01*
G37*
G36*
X159433434Y-82193565D02*
G01*
X159037109Y-82084381D01*
X158658574Y-82049461D01*
X158214410Y-82099121D01*
X157779629Y-82251973D01*
X157341184Y-82524691D01*
X156891402Y-82946725D01*
X156428026Y-83557905D01*
X156004633Y-84323163D01*
X155698113Y-85142077D01*
X155510015Y-86022264D01*
X155445559Y-86972420D01*
X155496870Y-87795360D01*
X155642149Y-88509606D01*
X155870936Y-89129305D01*
X156176405Y-89666923D01*
X156555643Y-90132923D01*
X157034760Y-90550721D01*
X157569081Y-90869741D01*
X158165873Y-91098622D01*
X158837041Y-91239669D01*
X159598298Y-91288680D01*
X160424932Y-91240346D01*
X161212075Y-91096973D01*
X161968765Y-90857809D01*
X162702511Y-90517905D01*
X163418956Y-90068314D01*
X164121675Y-89496426D01*
X164749666Y-88834194D01*
X165313625Y-88049935D01*
X165810004Y-87127759D01*
X166182096Y-86169719D01*
X166396449Y-85266424D01*
X166465796Y-84409336D01*
X166405402Y-83903524D01*
X166248698Y-83559780D01*
X166016132Y-83333057D01*
X165703486Y-83196633D01*
X165283050Y-83147577D01*
X164752005Y-83187121D01*
X163537935Y-83361046D01*
X159095768Y-84071792D01*
X158276334Y-84164116D01*
X158055107Y-84130443D01*
X157832422Y-84022944D01*
X157546349Y-84722182D01*
X157479491Y-85059510D01*
X157535952Y-85255986D01*
X157693830Y-85370013D01*
X157991180Y-85414151D01*
X159191634Y-85238785D01*
X162931602Y-84643320D01*
X164233038Y-84458769D01*
X164726177Y-84419594D01*
X164976283Y-84446557D01*
X165149866Y-84519025D01*
X165267785Y-84635016D01*
X165365899Y-84900816D01*
X165410667Y-85458603D01*
X165346764Y-86246349D01*
X165161382Y-86961833D01*
X164860108Y-87615548D01*
X164443187Y-88216240D01*
X163905521Y-88770536D01*
X163263852Y-89257566D01*
X162578404Y-89627462D01*
X161842199Y-89890201D01*
X161044667Y-90049904D01*
X160172269Y-90104591D01*
X159491643Y-90063397D01*
X158887041Y-89944657D01*
X158345880Y-89752100D01*
X157858310Y-89484632D01*
X157417820Y-89136412D01*
X156979885Y-88633383D01*
X156658035Y-88046892D01*
X156455192Y-87361363D01*
X156383451Y-86557207D01*
X156433443Y-85907868D01*
X156581622Y-85286492D01*
X156827626Y-84687868D01*
X157174188Y-84107452D01*
X157606473Y-83567876D01*
X158123181Y-83070615D01*
X158729649Y-82612950D01*
X159433434Y-82193565D01*
G37*
G36*
X163713100Y-92218392D02*
G01*
X164293083Y-92331549D01*
X164783918Y-92510510D01*
X165200008Y-92753648D01*
X165543616Y-93061646D01*
X165790111Y-93418265D01*
X165943087Y-93833107D01*
X165996850Y-94319734D01*
X165939003Y-94904523D01*
X165760274Y-95515166D01*
X165448847Y-96159291D01*
X164987902Y-96844244D01*
X164356149Y-97576956D01*
X163487941Y-98389593D01*
X162510332Y-99124777D01*
X161416485Y-99785664D01*
X160197304Y-100373537D01*
X159859027Y-99883097D01*
X160988258Y-99272505D01*
X161971675Y-98643064D01*
X162821484Y-97995030D01*
X163548315Y-97327828D01*
X164205510Y-96574530D01*
X164631950Y-95902931D01*
X164867619Y-95298457D01*
X164941721Y-94746182D01*
X164884419Y-94326856D01*
X164726922Y-94005422D01*
X164477141Y-93758572D01*
X164124172Y-93573855D01*
X163640275Y-93451882D01*
X162984725Y-93406265D01*
X162923388Y-94158706D01*
X162744075Y-94854307D01*
X162450288Y-95501689D01*
X162040726Y-96108080D01*
X161612203Y-96570967D01*
X161185384Y-96901200D01*
X160757305Y-97121976D01*
X160321220Y-97249475D01*
X159866965Y-97291681D01*
X159391303Y-97242150D01*
X158998398Y-97100212D01*
X158668343Y-96863279D01*
X158426740Y-96559067D01*
X158274642Y-96185428D01*
X158220158Y-95724130D01*
X158233773Y-95587354D01*
X158923577Y-95587354D01*
X158978727Y-95857288D01*
X159128246Y-96037052D01*
X159378759Y-96150866D01*
X159773542Y-96194542D01*
X160222761Y-96147654D01*
X160648392Y-96005875D01*
X161062438Y-95758266D01*
X161471641Y-95382678D01*
X161793647Y-94964474D01*
X162036021Y-94507455D01*
X162199206Y-94005749D01*
X162280084Y-93452183D01*
X161384819Y-93608991D01*
X160600359Y-93867546D01*
X159909708Y-94226433D01*
X159450613Y-94570542D01*
X159149806Y-94907721D01*
X158979292Y-95243690D01*
X158923577Y-95587354D01*
X158233773Y-95587354D01*
X158277068Y-95152396D01*
X158444181Y-94623339D01*
X158720789Y-94128610D01*
X159112445Y-93661675D01*
X159630660Y-93218198D01*
X160220357Y-92842420D01*
X160847704Y-92553823D01*
X161518687Y-92347278D01*
X162241393Y-92221318D01*
X163025636Y-92178212D01*
X163713100Y-92218392D01*
G37*
G36*
X166037761Y-100384283D02*
G01*
X165431522Y-100481246D01*
X164975915Y-100509336D01*
X163860996Y-100450858D01*
X162623404Y-100265731D01*
X161244495Y-99936342D01*
X160209665Y-99610740D01*
X159364770Y-99274639D01*
X158684020Y-98930961D01*
X158144442Y-98581283D01*
X157900484Y-99070927D01*
X157829369Y-99459092D01*
X157880037Y-99654911D01*
X158048312Y-99866426D01*
X158379146Y-100105066D01*
X158939210Y-100377711D01*
X159812010Y-100688122D01*
X161150805Y-101044790D01*
X162719936Y-101341639D01*
X164549711Y-101568861D01*
X163539090Y-102160502D01*
X162508416Y-102677453D01*
X161455765Y-103122734D01*
X160356211Y-103498490D01*
X159429888Y-103724518D01*
X158649414Y-103828108D01*
X158911423Y-104257339D01*
X159155450Y-104509628D01*
X159384101Y-104638283D01*
X159608678Y-104677584D01*
X159926449Y-104626153D01*
X160568308Y-104405997D01*
X161725653Y-103891611D01*
X163331685Y-103069869D01*
X164837307Y-102187284D01*
X165468545Y-101736487D01*
X165759934Y-101428177D01*
X165918979Y-101062864D01*
X166037761Y-100384283D01*
G37*
M02*
