%TF.GenerationSoftware,KiCad,Pcbnew,9.0.6*%
%TF.CreationDate,2026-07-09T21:59:02-04:00*%
%TF.ProjectId,EasyDev,45617379-4465-4762-9e6b-696361645f70,rev?*%
%TF.SameCoordinates,Original*%
%TF.FileFunction,Copper,L1,Top*%
%TF.FilePolarity,Positive*%
%FSLAX46Y46*%
G04 Gerber Fmt 4.6, Leading zero omitted, Abs format (unit mm)*
G04 Created by KiCad (PCBNEW 9.0.6) date 2026-07-09 21:59:02*
%MOMM*%
%LPD*%
G01*
G04 APERTURE LIST*
G04 Aperture macros list*
%AMRoundRect*
0 Rectangle with rounded corners*
0 $1 Rounding radius*
0 $2 $3 $4 $5 $6 $7 $8 $9 X,Y pos of 4 corners*
0 Add a 4 corners polygon primitive as box body*
4,1,4,$2,$3,$4,$5,$6,$7,$8,$9,$2,$3,0*
0 Add four circle primitives for the rounded corners*
1,1,$1+$1,$2,$3*
1,1,$1+$1,$4,$5*
1,1,$1+$1,$6,$7*
1,1,$1+$1,$8,$9*
0 Add four rect primitives between the rounded corners*
20,1,$1+$1,$2,$3,$4,$5,0*
20,1,$1+$1,$4,$5,$6,$7,0*
20,1,$1+$1,$6,$7,$8,$9,0*
20,1,$1+$1,$8,$9,$2,$3,0*%
G04 Aperture macros list end*
%TA.AperFunction,SMDPad,CuDef*%
%ADD10RoundRect,0.140000X0.170000X-0.140000X0.170000X0.140000X-0.170000X0.140000X-0.170000X-0.140000X0*%
%TD*%
%TA.AperFunction,ComponentPad*%
%ADD11R,1.700000X1.700000*%
%TD*%
%TA.AperFunction,ComponentPad*%
%ADD12C,1.700000*%
%TD*%
%TA.AperFunction,SMDPad,CuDef*%
%ADD13RoundRect,0.135000X-0.185000X0.135000X-0.185000X-0.135000X0.185000X-0.135000X0.185000X0.135000X0*%
%TD*%
%TA.AperFunction,SMDPad,CuDef*%
%ADD14RoundRect,0.250000X0.450000X0.350000X-0.450000X0.350000X-0.450000X-0.350000X0.450000X-0.350000X0*%
%TD*%
%TA.AperFunction,SMDPad,CuDef*%
%ADD15RoundRect,0.140000X0.140000X0.170000X-0.140000X0.170000X-0.140000X-0.170000X0.140000X-0.170000X0*%
%TD*%
%TA.AperFunction,SMDPad,CuDef*%
%ADD16RoundRect,0.140000X-0.140000X-0.170000X0.140000X-0.170000X0.140000X0.170000X-0.140000X0.170000X0*%
%TD*%
%TA.AperFunction,SMDPad,CuDef*%
%ADD17RoundRect,0.140000X-0.170000X0.140000X-0.170000X-0.140000X0.170000X-0.140000X0.170000X0.140000X0*%
%TD*%
%TA.AperFunction,SMDPad,CuDef*%
%ADD18R,0.600000X1.450000*%
%TD*%
%TA.AperFunction,SMDPad,CuDef*%
%ADD19R,0.300000X1.450000*%
%TD*%
%TA.AperFunction,HeatsinkPad*%
%ADD20O,1.000000X2.100000*%
%TD*%
%TA.AperFunction,HeatsinkPad*%
%ADD21O,1.000000X1.600000*%
%TD*%
%TA.AperFunction,SMDPad,CuDef*%
%ADD22RoundRect,0.135000X-0.135000X-0.185000X0.135000X-0.185000X0.135000X0.185000X-0.135000X0.185000X0*%
%TD*%
%TA.AperFunction,SMDPad,CuDef*%
%ADD23RoundRect,0.050000X-0.387500X-0.050000X0.387500X-0.050000X0.387500X0.050000X-0.387500X0.050000X0*%
%TD*%
%TA.AperFunction,SMDPad,CuDef*%
%ADD24RoundRect,0.050000X-0.050000X-0.387500X0.050000X-0.387500X0.050000X0.387500X-0.050000X0.387500X0*%
%TD*%
%TA.AperFunction,HeatsinkPad*%
%ADD25R,3.200000X3.200000*%
%TD*%
%TA.AperFunction,SMDPad,CuDef*%
%ADD26RoundRect,0.135000X0.135000X0.185000X-0.135000X0.185000X-0.135000X-0.185000X0.135000X-0.185000X0*%
%TD*%
%TA.AperFunction,SMDPad,CuDef*%
%ADD27RoundRect,0.200000X-0.200000X-0.800000X0.200000X-0.800000X0.200000X0.800000X-0.200000X0.800000X0*%
%TD*%
%TA.AperFunction,SMDPad,CuDef*%
%ADD28RoundRect,0.225000X-0.250000X0.225000X-0.250000X-0.225000X0.250000X-0.225000X0.250000X0.225000X0*%
%TD*%
%TA.AperFunction,SMDPad,CuDef*%
%ADD29RoundRect,0.375000X-0.375000X0.625000X-0.375000X-0.625000X0.375000X-0.625000X0.375000X0.625000X0*%
%TD*%
%TA.AperFunction,SMDPad,CuDef*%
%ADD30RoundRect,0.500000X-1.400000X0.500000X-1.400000X-0.500000X1.400000X-0.500000X1.400000X0.500000X0*%
%TD*%
%TA.AperFunction,SMDPad,CuDef*%
%ADD31RoundRect,0.062500X-0.387500X-0.062500X0.387500X-0.062500X0.387500X0.062500X-0.387500X0.062500X0*%
%TD*%
%TA.AperFunction,HeatsinkPad*%
%ADD32R,0.200000X1.600000*%
%TD*%
%TA.AperFunction,ViaPad*%
%ADD33C,0.600000*%
%TD*%
%TA.AperFunction,ViaPad*%
%ADD34C,0.400000*%
%TD*%
%TA.AperFunction,ViaPad*%
%ADD35C,0.300000*%
%TD*%
%TA.AperFunction,Conductor*%
%ADD36C,0.200000*%
%TD*%
%TA.AperFunction,Conductor*%
%ADD37C,0.160000*%
%TD*%
%TA.AperFunction,Conductor*%
%ADD38C,0.120000*%
%TD*%
G04 APERTURE END LIST*
D10*
%TO.P,C7,1*%
%TO.N,+3V3*%
X164240059Y-75931954D03*
%TO.P,C7,2*%
%TO.N,GND*%
X164240059Y-74971954D03*
%TD*%
%TO.P,C8,1*%
%TO.N,+3V3*%
X167029762Y-79521389D03*
%TO.P,C8,2*%
%TO.N,GND*%
X167029762Y-78561389D03*
%TD*%
D11*
%TO.P,J3,1,Pin_1*%
%TO.N,VBUS*%
X172005625Y-55641875D03*
D12*
%TO.P,J3,2,Pin_2*%
%TO.N,GPIO29_ADC3*%
X172005625Y-58181875D03*
%TO.P,J3,3,Pin_3*%
%TO.N,GND*%
X172005625Y-60721875D03*
%TO.P,J3,4,Pin_4*%
%TO.N,GPIO28_ADC2*%
X172005625Y-63261875D03*
%TO.P,J3,5,Pin_5*%
%TO.N,+3V3*%
X172005625Y-65801875D03*
%TO.P,J3,6,Pin_6*%
%TO.N,GPIO27_ADC1*%
X172005625Y-68341875D03*
%TO.P,J3,7,Pin_7*%
%TO.N,GPIO26_ADC0*%
X172005625Y-70881875D03*
%TO.P,J3,8,Pin_8*%
%TO.N,GND*%
X172005625Y-73421875D03*
%TO.P,J3,9,Pin_9*%
%TO.N,GPIO24*%
X172005625Y-75961875D03*
%TO.P,J3,10,Pin_10*%
%TO.N,GPIO23*%
X172005625Y-78501875D03*
%TO.P,J3,11,Pin_11*%
%TO.N,RUN*%
X172005625Y-81041875D03*
%TO.P,J3,12,Pin_12*%
%TO.N,GPIO22*%
X172005625Y-83581875D03*
%TO.P,J3,13,Pin_13*%
%TO.N,GND*%
X172005625Y-86121875D03*
%TO.P,J3,14,Pin_14*%
%TO.N,GPIO21*%
X172005625Y-88661875D03*
%TO.P,J3,15,Pin_15*%
%TO.N,GPIO20*%
X172005625Y-91201875D03*
%TO.P,J3,16,Pin_16*%
%TO.N,GPIO19*%
X172005625Y-93741875D03*
%TO.P,J3,17,Pin_17*%
%TO.N,GPIO18*%
X172005625Y-96281875D03*
%TO.P,J3,18,Pin_18*%
%TO.N,GND*%
X172005625Y-98821875D03*
%TO.P,J3,19,Pin_19*%
%TO.N,GPIO17*%
X172005625Y-101361875D03*
%TO.P,J3,20,Pin_20*%
%TO.N,GPIO16*%
X172005625Y-103901875D03*
%TD*%
D13*
%TO.P,R4,1*%
%TO.N,D-*%
X164780607Y-77921261D03*
%TO.P,R4,2*%
%TO.N,Net-(U1-USB_DM)*%
X164780607Y-78941261D03*
%TD*%
D10*
%TO.P,C16,1*%
%TO.N,GND*%
X165134333Y-91618788D03*
%TO.P,C16,2*%
%TO.N,Net-(C16-Pad2)*%
X165134333Y-90658788D03*
%TD*%
D14*
%TO.P,Y1,1,1*%
%TO.N,Net-(C16-Pad2)*%
X163546271Y-90269341D03*
%TO.P,Y1,2,2*%
%TO.N,GND*%
X161346271Y-90269341D03*
%TO.P,Y1,3,3*%
%TO.N,XIN*%
X161346271Y-91969341D03*
%TO.P,Y1,4,4*%
%TO.N,GND*%
X163546271Y-91969341D03*
%TD*%
D15*
%TO.P,C17,1*%
%TO.N,+3V3*%
X160272875Y-74418061D03*
%TO.P,C17,2*%
%TO.N,GND*%
X159312875Y-74418061D03*
%TD*%
D16*
%TO.P,C4,1*%
%TO.N,+3V3*%
X167888721Y-84788945D03*
%TO.P,C4,2*%
%TO.N,GND*%
X168848721Y-84788945D03*
%TD*%
D10*
%TO.P,C12,1*%
%TO.N,+1V1*%
X162328472Y-75939162D03*
%TO.P,C12,2*%
%TO.N,GND*%
X162328472Y-74979162D03*
%TD*%
%TO.P,C9,1*%
%TO.N,+3V3*%
X163314044Y-75929777D03*
%TO.P,C9,2*%
%TO.N,GND*%
X163314044Y-74969777D03*
%TD*%
%TO.P,C11,1*%
%TO.N,+1V1*%
X165937724Y-79020642D03*
%TO.P,C11,2*%
%TO.N,GND*%
X165937724Y-78060642D03*
%TD*%
D17*
%TO.P,C15,1*%
%TO.N,GND*%
X159777743Y-90649262D03*
%TO.P,C15,2*%
%TO.N,XIN*%
X159777743Y-91609262D03*
%TD*%
D18*
%TO.P,J1,A1,GND*%
%TO.N,GND*%
X166365625Y-60816875D03*
%TO.P,J1,A4,VBUS*%
%TO.N,VBUS*%
X165565625Y-60816875D03*
D19*
%TO.P,J1,A5,CC1*%
%TO.N,Net-(J1-CC1)*%
X164365625Y-60816875D03*
%TO.P,J1,A6,D+*%
%TO.N,D+*%
X163365625Y-60816875D03*
%TO.P,J1,A7,D-*%
%TO.N,D-*%
X162865625Y-60816875D03*
%TO.P,J1,A8*%
%TO.N,N/C*%
X161865625Y-60816875D03*
D18*
%TO.P,J1,A9,VBUS*%
%TO.N,VBUS*%
X160665625Y-60816875D03*
%TO.P,J1,A12,GND*%
%TO.N,GND*%
X159865625Y-60816875D03*
%TO.P,J1,B1,GND*%
X159865625Y-60816875D03*
%TO.P,J1,B4,VBUS*%
%TO.N,VBUS*%
X160665625Y-60816875D03*
D19*
%TO.P,J1,B5,CC2*%
%TO.N,Net-(J1-CC2)*%
X161365625Y-60816875D03*
%TO.P,J1,B6,D+*%
%TO.N,D+*%
X162365625Y-60816875D03*
%TO.P,J1,B7,D-*%
%TO.N,D-*%
X163865625Y-60816875D03*
%TO.P,J1,B8*%
%TO.N,N/C*%
X164865625Y-60816875D03*
D18*
%TO.P,J1,B9,VBUS*%
%TO.N,VBUS*%
X165565625Y-60816875D03*
%TO.P,J1,B12,GND*%
%TO.N,GND*%
X166365625Y-60816875D03*
D20*
%TO.P,J1,S1,SHIELD*%
X167435625Y-59901875D03*
D21*
X167435625Y-55721875D03*
D20*
X158795625Y-59901875D03*
D21*
X158795625Y-55721875D03*
%TD*%
D22*
%TO.P,R5,1*%
%TO.N,Net-(C16-Pad2)*%
X162142626Y-88870549D03*
%TO.P,R5,2*%
%TO.N,XOUT*%
X163162626Y-88870549D03*
%TD*%
D16*
%TO.P,C5,1*%
%TO.N,+3V3*%
X167797812Y-80837647D03*
%TO.P,C5,2*%
%TO.N,GND*%
X168757812Y-80837647D03*
%TD*%
D23*
%TO.P,U1,1,IOVDD*%
%TO.N,+3V3*%
X159678125Y-81171875D03*
%TO.P,U1,2,GPIO0*%
%TO.N,GPIO0*%
X159678125Y-81571875D03*
%TO.P,U1,3,GPIO1*%
%TO.N,GPIO1*%
X159678125Y-81971875D03*
%TO.P,U1,4,GPIO2*%
%TO.N,GPIO2*%
X159678125Y-82371875D03*
%TO.P,U1,5,GPIO3*%
%TO.N,GPIO3*%
X159678125Y-82771875D03*
%TO.P,U1,6,GPIO4*%
%TO.N,GPIO4*%
X159678125Y-83171875D03*
%TO.P,U1,7,GPIO5*%
%TO.N,GPIO5*%
X159678125Y-83571875D03*
%TO.P,U1,8,GPIO6*%
%TO.N,GPIO6*%
X159678125Y-83971875D03*
%TO.P,U1,9,GPIO7*%
%TO.N,GPIO7*%
X159678125Y-84371875D03*
%TO.P,U1,10,IOVDD*%
%TO.N,+3V3*%
X159678125Y-84771875D03*
%TO.P,U1,11,GPIO8*%
%TO.N,GPIO8*%
X159678125Y-85171875D03*
%TO.P,U1,12,GPIO9*%
%TO.N,GPIO9*%
X159678125Y-85571875D03*
%TO.P,U1,13,GPIO10*%
%TO.N,GPIO10*%
X159678125Y-85971875D03*
%TO.P,U1,14,GPIO11*%
%TO.N,GPIO11*%
X159678125Y-86371875D03*
D24*
%TO.P,U1,15,GPIO12*%
%TO.N,GPIO12*%
X160515625Y-87209375D03*
%TO.P,U1,16,GPIO13*%
%TO.N,GPIO13*%
X160915625Y-87209375D03*
%TO.P,U1,17,GPIO14*%
%TO.N,GPIO14*%
X161315625Y-87209375D03*
%TO.P,U1,18,GPIO15*%
%TO.N,GPIO15*%
X161715625Y-87209375D03*
%TO.P,U1,19,TESTEN*%
%TO.N,GND*%
X162115625Y-87209375D03*
%TO.P,U1,20,XIN*%
%TO.N,XIN*%
X162515625Y-87209375D03*
%TO.P,U1,21,XOUT*%
%TO.N,XOUT*%
X162915625Y-87209375D03*
%TO.P,U1,22,IOVDD*%
%TO.N,+3V3*%
X163315625Y-87209375D03*
%TO.P,U1,23,DVDD*%
%TO.N,+1V1*%
X163715625Y-87209375D03*
%TO.P,U1,24,SWCLK*%
%TO.N,SWCLK*%
X164115625Y-87209375D03*
%TO.P,U1,25,SWD*%
%TO.N,SWD*%
X164515625Y-87209375D03*
%TO.P,U1,26,RUN*%
%TO.N,RUN*%
X164915625Y-87209375D03*
%TO.P,U1,27,GPIO16*%
%TO.N,GPIO16*%
X165315625Y-87209375D03*
%TO.P,U1,28,GPIO17*%
%TO.N,GPIO17*%
X165715625Y-87209375D03*
D23*
%TO.P,U1,29,GPIO18*%
%TO.N,GPIO18*%
X166553125Y-86371875D03*
%TO.P,U1,30,GPIO19*%
%TO.N,GPIO19*%
X166553125Y-85971875D03*
%TO.P,U1,31,GPIO20*%
%TO.N,GPIO20*%
X166553125Y-85571875D03*
%TO.P,U1,32,GPIO21*%
%TO.N,GPIO21*%
X166553125Y-85171875D03*
%TO.P,U1,33,IOVDD*%
%TO.N,+3V3*%
X166553125Y-84771875D03*
%TO.P,U1,34,GPIO22*%
%TO.N,GPIO22*%
X166553125Y-84371875D03*
%TO.P,U1,35,GPIO23*%
%TO.N,GPIO23*%
X166553125Y-83971875D03*
%TO.P,U1,36,GPIO24*%
%TO.N,GPIO24*%
X166553125Y-83571875D03*
%TO.P,U1,37,GPIO25*%
%TO.N,unconnected-(U1-GPIO25-Pad37)*%
X166553125Y-83171875D03*
%TO.P,U1,38,GPIO26_ADC0*%
%TO.N,GPIO26_ADC0*%
X166553125Y-82771875D03*
%TO.P,U1,39,GPIO27_ADC1*%
%TO.N,GPIO27_ADC1*%
X166553125Y-82371875D03*
%TO.P,U1,40,GPIO28_ADC2*%
%TO.N,GPIO28_ADC2*%
X166553125Y-81971875D03*
%TO.P,U1,41,GPIO29_ADC3*%
%TO.N,GPIO29_ADC3*%
X166553125Y-81571875D03*
%TO.P,U1,42,IOVDD*%
%TO.N,+3V3*%
X166553125Y-81171875D03*
D24*
%TO.P,U1,43,ADC_AVDD*%
X165715625Y-80334375D03*
%TO.P,U1,44,VREG_IN*%
X165315625Y-80334375D03*
%TO.P,U1,45,VREG_VOUT*%
%TO.N,+1V1*%
X164915625Y-80334375D03*
%TO.P,U1,46,USB_DM*%
%TO.N,Net-(U1-USB_DM)*%
X164515625Y-80334375D03*
%TO.P,U1,47,USB_DP*%
%TO.N,Net-(U1-USB_DP)*%
X164115625Y-80334375D03*
%TO.P,U1,48,USB_VDD*%
%TO.N,+3V3*%
X163715625Y-80334375D03*
%TO.P,U1,49,IOVDD*%
X163315625Y-80334375D03*
%TO.P,U1,50,DVDD*%
%TO.N,+1V1*%
X162915625Y-80334375D03*
%TO.P,U1,51,QSPI_SD3*%
%TO.N,SD3*%
X162515625Y-80334375D03*
%TO.P,U1,52,QSPI_SCLK*%
%TO.N,SCLK*%
X162115625Y-80334375D03*
%TO.P,U1,53,QSPI_SD0*%
%TO.N,SD0*%
X161715625Y-80334375D03*
%TO.P,U1,54,QSPI_SD2*%
%TO.N,SD2*%
X161315625Y-80334375D03*
%TO.P,U1,55,QSPI_SD1*%
%TO.N,SD1*%
X160915625Y-80334375D03*
%TO.P,U1,56,QSPI_SS*%
%TO.N,SS*%
X160515625Y-80334375D03*
D25*
%TO.P,U1,57,GND*%
%TO.N,GND*%
X163115625Y-83771875D03*
%TD*%
D13*
%TO.P,R1,1*%
%TO.N,Net-(J1-CC1)*%
X164394777Y-62548838D03*
%TO.P,R1,2*%
%TO.N,GND*%
X164394777Y-63568838D03*
%TD*%
D15*
%TO.P,C3,1*%
%TO.N,+3V3*%
X158859481Y-80206715D03*
%TO.P,C3,2*%
%TO.N,GND*%
X157899481Y-80206715D03*
%TD*%
D11*
%TO.P,J4,1,Pin_1*%
%TO.N,SWCLK*%
X160575625Y-103661875D03*
D12*
%TO.P,J4,2,Pin_2*%
%TO.N,GND*%
X163115625Y-103661875D03*
%TO.P,J4,3,Pin_3*%
%TO.N,SWD*%
X165655625Y-103661875D03*
%TD*%
D26*
%TO.P,R7,1*%
%TO.N,+3V3*%
X158246536Y-74379629D03*
%TO.P,R7,2*%
%TO.N,SS*%
X157226536Y-74379629D03*
%TD*%
D10*
%TO.P,C1,1*%
%TO.N,+3V3*%
X168094790Y-79886673D03*
%TO.P,C1,2*%
%TO.N,GND*%
X168094790Y-78926673D03*
%TD*%
D27*
%TO.P,SW1,1,1*%
%TO.N,GND*%
X161015625Y-98469375D03*
%TO.P,SW1,2,2*%
%TO.N,Net-(R6-Pad1)*%
X165215625Y-98469375D03*
%TD*%
D17*
%TO.P,C2,1*%
%TO.N,+3V3*%
X165140138Y-88845087D03*
%TO.P,C2,2*%
%TO.N,GND*%
X165140138Y-89805087D03*
%TD*%
D28*
%TO.P,C14,1*%
%TO.N,+3V3*%
X165649569Y-68735029D03*
%TO.P,C14,2*%
%TO.N,GND*%
X165649569Y-70285029D03*
%TD*%
D22*
%TO.P,R6,1*%
%TO.N,Net-(R6-Pad1)*%
X162605625Y-93918125D03*
%TO.P,R6,2*%
%TO.N,SS*%
X163625625Y-93918125D03*
%TD*%
D11*
%TO.P,J2,1,Pin_1*%
%TO.N,GPIO0*%
X154225625Y-55641875D03*
D12*
%TO.P,J2,2,Pin_2*%
%TO.N,GPIO1*%
X154225625Y-58181875D03*
%TO.P,J2,3,Pin_3*%
%TO.N,GND*%
X154225625Y-60721875D03*
%TO.P,J2,4,Pin_4*%
%TO.N,GPIO2*%
X154225625Y-63261875D03*
%TO.P,J2,5,Pin_5*%
%TO.N,GPIO3*%
X154225625Y-65801875D03*
%TO.P,J2,6,Pin_6*%
%TO.N,GPIO4*%
X154225625Y-68341875D03*
%TO.P,J2,7,Pin_7*%
%TO.N,GPIO5*%
X154225625Y-70881875D03*
%TO.P,J2,8,Pin_8*%
%TO.N,GND*%
X154225625Y-73421875D03*
%TO.P,J2,9,Pin_9*%
%TO.N,GPIO6*%
X154225625Y-75961875D03*
%TO.P,J2,10,Pin_10*%
%TO.N,GPIO7*%
X154225625Y-78501875D03*
%TO.P,J2,11,Pin_11*%
%TO.N,GPIO8*%
X154225625Y-81041875D03*
%TO.P,J2,12,Pin_12*%
%TO.N,GPIO9*%
X154225625Y-83581875D03*
%TO.P,J2,13,Pin_13*%
%TO.N,GND*%
X154225625Y-86121875D03*
%TO.P,J2,14,Pin_14*%
%TO.N,GPIO10*%
X154225625Y-88661875D03*
%TO.P,J2,15,Pin_15*%
%TO.N,GPIO11*%
X154225625Y-91201875D03*
%TO.P,J2,16,Pin_16*%
%TO.N,GPIO12*%
X154225625Y-93741875D03*
%TO.P,J2,17,Pin_17*%
%TO.N,GPIO13*%
X154225625Y-96281875D03*
%TO.P,J2,18,Pin_18*%
%TO.N,GND*%
X154225625Y-98821875D03*
%TO.P,J2,19,Pin_19*%
%TO.N,GPIO14*%
X154225625Y-101361875D03*
%TO.P,J2,20,Pin_20*%
%TO.N,GPIO15*%
X154225625Y-103901875D03*
%TD*%
D28*
%TO.P,C13,1*%
%TO.N,VBUS*%
X156786707Y-68935370D03*
%TO.P,C13,2*%
%TO.N,GND*%
X156786707Y-70485370D03*
%TD*%
D29*
%TO.P,U2,1,GND*%
%TO.N,GND*%
X163463319Y-66276151D03*
%TO.P,U2,2,VO*%
%TO.N,+3V3*%
X161163319Y-66276151D03*
D30*
X161163319Y-72576151D03*
D29*
%TO.P,U2,3,VI*%
%TO.N,VBUS*%
X158863319Y-66276151D03*
%TD*%
D13*
%TO.P,R2,1*%
%TO.N,Net-(J1-CC2)*%
X161373806Y-62572210D03*
%TO.P,R2,2*%
%TO.N,GND*%
X161373806Y-63592210D03*
%TD*%
D17*
%TO.P,C10,1*%
%TO.N,+1V1*%
X166258185Y-88811561D03*
%TO.P,C10,2*%
%TO.N,GND*%
X166258185Y-89771561D03*
%TD*%
D15*
%TO.P,C6,1*%
%TO.N,+3V3*%
X158057919Y-85032096D03*
%TO.P,C6,2*%
%TO.N,GND*%
X157097919Y-85032096D03*
%TD*%
D13*
%TO.P,R3,1*%
%TO.N,D+*%
X163840607Y-77921261D03*
%TO.P,R3,2*%
%TO.N,Net-(U1-USB_DP)*%
X163840607Y-78941261D03*
%TD*%
D31*
%TO.P,U3,1,~{CS}*%
%TO.N,SS*%
X157458718Y-75408379D03*
%TO.P,U3,2,DO/IO_{1}*%
%TO.N,SD1*%
X157458718Y-75908379D03*
%TO.P,U3,3,~{WP}/IO_{2}*%
%TO.N,SD2*%
X157458718Y-76408379D03*
%TO.P,U3,4,GND*%
%TO.N,GND*%
X157458718Y-76908379D03*
%TO.P,U3,5,DI/IO_{0}*%
%TO.N,SD0*%
X160308718Y-76908379D03*
%TO.P,U3,6,CLK*%
%TO.N,SCLK*%
X160308718Y-76408379D03*
%TO.P,U3,7,~{HOLD}/~{RESET}/IO_{3}*%
%TO.N,SD3*%
X160308718Y-75908379D03*
%TO.P,U3,8,VCC*%
%TO.N,+3V3*%
X160308718Y-75408379D03*
D32*
%TO.P,U3,9*%
%TO.N,N/C*%
X158883718Y-76158379D03*
%TD*%
D33*
%TO.N,GND*%
X163440698Y-62519032D03*
X157272669Y-103398883D03*
D34*
X159312875Y-74418061D03*
X157495210Y-93807374D03*
X162884704Y-81788269D03*
X157139434Y-90120960D03*
X155248916Y-75243975D03*
X160976438Y-82023513D03*
D33*
X163453052Y-63532352D03*
X166312567Y-62151458D03*
D34*
X162121531Y-70327155D03*
X162328472Y-74948805D03*
X161346271Y-90269341D03*
X170208634Y-99934252D03*
X161636642Y-85172876D03*
X158033669Y-92482359D03*
X155859446Y-88106250D03*
X162177565Y-86439327D03*
X165937724Y-78060642D03*
X158256405Y-94473881D03*
X164650241Y-95548255D03*
X159769093Y-80555735D03*
X169750060Y-87284152D03*
X157090010Y-85079673D03*
X160496868Y-96360587D03*
D35*
X155386434Y-89806189D03*
D34*
X167029762Y-78561389D03*
X170208634Y-96514598D03*
X165140138Y-89805087D03*
X168757812Y-80837647D03*
X168789238Y-76910851D03*
X163903420Y-68112897D03*
X166916826Y-73157379D03*
X168059886Y-97631250D03*
X166720377Y-71332683D03*
X163065625Y-95250000D03*
X166571036Y-95948355D03*
X159983129Y-68560590D03*
X169126556Y-72691967D03*
X164234454Y-81931860D03*
X166687571Y-97631179D03*
X159983823Y-78205655D03*
X166544407Y-99217637D03*
X167112166Y-100257072D03*
X165134333Y-91618788D03*
X156580977Y-74027887D03*
X161636642Y-85172876D03*
X161282995Y-93897388D03*
D33*
X161883539Y-64669698D03*
D34*
X161859489Y-100199509D03*
D35*
X156712500Y-97631250D03*
D34*
X159974394Y-70097906D03*
X169645243Y-90153517D03*
X159527311Y-93622243D03*
D33*
X163463319Y-66276151D03*
D34*
X157820517Y-97083872D03*
D33*
X163546271Y-91969341D03*
X165064844Y-100182456D03*
X159543750Y-100012500D03*
X161373806Y-63592210D03*
D34*
X159553515Y-97723208D03*
X159777743Y-90649262D03*
X164217871Y-71424397D03*
X158033669Y-92482359D03*
D33*
X164394777Y-63568838D03*
D34*
X164981125Y-82664171D03*
%TO.N,+3V3*%
X165140138Y-88933848D03*
X167994375Y-95865886D03*
X169068750Y-90487500D03*
D33*
X166687500Y-73818750D03*
D34*
X166239442Y-97157320D03*
X161977707Y-81163204D03*
D33*
X163515625Y-77166666D03*
D35*
X163365625Y-80334375D03*
D33*
X169068750Y-78581250D03*
X161925000Y-69056250D03*
D34*
%TO.N,+1V1*%
X166258185Y-88811561D03*
X164517288Y-81267986D03*
%TO.N,GPIO5*%
X155876625Y-78700490D03*
%TO.N,GPIO15*%
X161236540Y-86272875D03*
D33*
%TO.N,GPIO2*%
X157974002Y-82136985D03*
%TO.N,GPIO0*%
X158740625Y-81194452D03*
D34*
%TO.N,GPIO10*%
X160504859Y-85423430D03*
D33*
%TO.N,GPIO6*%
X156948894Y-83978673D03*
D34*
%TO.N,GPIO7*%
X160415011Y-84306559D03*
D33*
%TO.N,GPIO1*%
X157943116Y-81257569D03*
%TO.N,GPIO29_ADC3*%
X169069750Y-69564735D03*
X165703717Y-81623195D03*
D34*
%TO.N,RUN*%
X164645525Y-85899622D03*
%TO.N,GPIO24*%
X165615625Y-83958866D03*
%TO.N,GPIO16*%
X165415625Y-86437565D03*
D33*
%TO.N,GPIO28_ADC2*%
X170503595Y-68307394D03*
X169452625Y-79377365D03*
D34*
%TO.N,GPIO21*%
X165719325Y-85159866D03*
%TO.N,SWCLK*%
X162766787Y-86301608D03*
%TO.N,SWD*%
X161023217Y-85107477D03*
%TO.N,SS*%
X156029101Y-86481497D03*
X157966352Y-78948911D03*
X158743707Y-87245250D03*
X159241370Y-92810943D03*
X156040116Y-81170268D03*
X154861213Y-84807464D03*
X157197304Y-89398021D03*
X156237759Y-79231490D03*
%TD*%
D36*
%TO.N,GND*%
X157272669Y-102283581D02*
X157272669Y-103398883D01*
D37*
X159177745Y-79615715D02*
X158490481Y-79615715D01*
X163115625Y-83771875D02*
X161714624Y-85172876D01*
D38*
X166687642Y-97631250D02*
X166687571Y-97631179D01*
D37*
X156786707Y-73822157D02*
X156786707Y-70485370D01*
D38*
X164351986Y-95250000D02*
X163065625Y-95250000D01*
D37*
X156781500Y-97631250D02*
X156712500Y-97631250D01*
X156580977Y-74027887D02*
X156786707Y-73822157D01*
X155971875Y-98821875D02*
X156781500Y-98012250D01*
X162115625Y-87209375D02*
X162115625Y-86501267D01*
D36*
X165064844Y-100182456D02*
X165064844Y-101712656D01*
D37*
X166720377Y-71332683D02*
X166720377Y-72960930D01*
X161714624Y-85172876D02*
X161636642Y-85172876D01*
X162115625Y-86501267D02*
X162177565Y-86439327D01*
X156772894Y-90487500D02*
X157139434Y-90120960D01*
X154225625Y-86121875D02*
X155859446Y-87755696D01*
X164240059Y-74971954D02*
X162335680Y-74971954D01*
X159983823Y-78205655D02*
X159587431Y-77809263D01*
D36*
X165064844Y-101712656D02*
X163115625Y-103661875D01*
X163440698Y-62519032D02*
X163440698Y-62614759D01*
X164394777Y-63568838D02*
X163489538Y-63568838D01*
D37*
X158490481Y-79615715D02*
X157899481Y-80206715D01*
D36*
X163489538Y-63568838D02*
X163453052Y-63532352D01*
X163440698Y-62614759D02*
X164394777Y-63568838D01*
D37*
X155859446Y-87755696D02*
X155859446Y-88106250D01*
X166720377Y-72960930D02*
X166916826Y-73157379D01*
D38*
X164650241Y-95548255D02*
X164351986Y-95250000D01*
D36*
X167029762Y-78561389D02*
X167729506Y-78561389D01*
D37*
X154225625Y-98821875D02*
X155971875Y-98821875D01*
D38*
X168059886Y-97631250D02*
X166687642Y-97631250D01*
D37*
X159769093Y-80207063D02*
X159177745Y-79615715D01*
D36*
X166312567Y-62151458D02*
X166312567Y-60869933D01*
X159543750Y-100012500D02*
X157272669Y-102283581D01*
D37*
X156781500Y-98012250D02*
X156781500Y-97631250D01*
D36*
X167729506Y-78561389D02*
X168094790Y-78926673D01*
D37*
X159769093Y-80555735D02*
X159769093Y-80207063D01*
X156067745Y-90487500D02*
X156772894Y-90487500D01*
X155386434Y-89806189D02*
X156067745Y-90487500D01*
X158359602Y-77809263D02*
X157458718Y-76908379D01*
X154225625Y-74220684D02*
X155248916Y-75243975D01*
X159587431Y-77809263D02*
X158359602Y-77809263D01*
X154225625Y-73421875D02*
X154225625Y-74220684D01*
D36*
X166312567Y-60869933D02*
X166365625Y-60816875D01*
D37*
X162335680Y-74971954D02*
X162328472Y-74979162D01*
D36*
%TO.N,+3V3*%
X158752696Y-84771875D02*
X159678125Y-84771875D01*
X163315625Y-88088063D02*
X164072649Y-88845087D01*
X158859481Y-80353231D02*
X159678125Y-81171875D01*
X169068750Y-78581250D02*
X169068750Y-78912713D01*
D38*
X160515438Y-83484929D02*
X160515438Y-81832560D01*
D36*
X158859481Y-80206715D02*
X158859481Y-80353231D01*
X163314044Y-76965085D02*
X163515625Y-77166666D01*
X159678125Y-81171875D02*
X161969036Y-81171875D01*
X165315625Y-80334375D02*
X165715625Y-80334375D01*
X169068750Y-78912713D02*
X168094790Y-79886673D01*
X159661875Y-73807061D02*
X158819104Y-73807061D01*
X165004441Y-68735029D02*
X161163319Y-72576151D01*
D38*
X160706866Y-84771875D02*
X160876011Y-84602730D01*
D36*
X158191852Y-84880695D02*
X158477187Y-84595360D01*
X161163319Y-72576151D02*
X159932409Y-73807061D01*
X165444901Y-72576151D02*
X166687500Y-73818750D01*
X168094790Y-80729163D02*
X167986306Y-80837647D01*
D38*
X159678125Y-84771875D02*
X160706866Y-84771875D01*
D36*
X166528611Y-79521389D02*
X165715625Y-80334375D01*
X158576181Y-84595360D02*
X158752696Y-84771875D01*
D38*
X166239442Y-97157320D02*
X167161430Y-97157320D01*
D36*
X161969036Y-81171875D02*
X161977707Y-81163204D01*
X167395046Y-79886673D02*
X167029762Y-79521389D01*
D38*
X167161430Y-97157320D02*
X167994375Y-96324375D01*
X160876011Y-84602730D02*
X160876011Y-83845502D01*
D36*
X167871651Y-84771875D02*
X167888721Y-84788945D01*
X166641369Y-81083631D02*
X166553125Y-81171875D01*
D38*
X160876011Y-83845502D02*
X160515438Y-83484929D01*
D36*
X160272875Y-74418061D02*
X159661875Y-73807061D01*
X164240059Y-75931954D02*
X163316221Y-75931954D01*
X161163319Y-69056250D02*
X161925000Y-69056250D01*
X158477187Y-84595360D02*
X158576181Y-84595360D01*
X167797812Y-80837647D02*
X167551828Y-81083631D01*
X163314044Y-75929777D02*
X163314044Y-76965085D01*
X163715625Y-80334375D02*
X163365625Y-80334375D01*
X165286286Y-75219964D02*
X164574296Y-75931954D01*
X158819104Y-73807061D02*
X158246536Y-74379629D01*
X168094790Y-79886673D02*
X168094790Y-80729163D01*
X161163319Y-72576151D02*
X165444901Y-72576151D01*
D38*
X161184794Y-81163204D02*
X161977707Y-81163204D01*
D36*
X167551828Y-81083631D02*
X166641369Y-81083631D01*
D38*
X167994375Y-96324375D02*
X167994375Y-95865886D01*
D36*
X160308718Y-74453904D02*
X160272875Y-74418061D01*
X167029762Y-79521389D02*
X166528611Y-79521389D01*
X161163319Y-69056250D02*
X161163319Y-72576151D01*
X168094790Y-79886673D02*
X167395046Y-79886673D01*
D38*
X169068750Y-85968974D02*
X169068750Y-90487500D01*
X160515438Y-81832560D02*
X161184794Y-81163204D01*
D36*
X161163319Y-72576151D02*
X164136659Y-72576151D01*
X165286286Y-73725778D02*
X165286286Y-75219964D01*
X158057919Y-85032096D02*
X158191852Y-84898163D01*
D38*
X167888721Y-84788945D02*
X169068750Y-85968974D01*
D36*
X159932409Y-73807061D02*
X159661875Y-73807061D01*
X158191852Y-84898163D02*
X158191852Y-84880695D01*
X160308718Y-75408379D02*
X160308718Y-74453904D01*
X166553125Y-84771875D02*
X167871651Y-84771875D01*
X164136659Y-72576151D02*
X165286286Y-73725778D01*
X164072649Y-88845087D02*
X165140138Y-88845087D01*
X165649569Y-68735029D02*
X165004441Y-68735029D01*
X167986306Y-80837647D02*
X167797812Y-80837647D01*
X164574296Y-75931954D02*
X164240059Y-75931954D01*
X161163319Y-66276151D02*
X161163319Y-69056250D01*
X163315625Y-87209375D02*
X163315625Y-88088063D01*
X163316221Y-75931954D02*
X163314044Y-75929777D01*
%TO.N,+1V1*%
X162915625Y-80334375D02*
X162915625Y-77099771D01*
X164062733Y-88165190D02*
X164712135Y-88165190D01*
X166098430Y-88811561D02*
X166258185Y-88811561D01*
X165027871Y-79525896D02*
X164915625Y-79638142D01*
X163715625Y-87209375D02*
X163715625Y-87818082D01*
X162915625Y-80955885D02*
X163227726Y-81267986D01*
X165415065Y-79448701D02*
X165201276Y-79448701D01*
X163227726Y-81267986D02*
X164517288Y-81267986D01*
X165472198Y-88185329D02*
X166098430Y-88811561D01*
X162328472Y-76512618D02*
X162328472Y-75939162D01*
X164915625Y-79638142D02*
X164915625Y-80334375D01*
X164712135Y-88165190D02*
X164732274Y-88185329D01*
X164915625Y-80869649D02*
X164517288Y-81267986D01*
X165201276Y-79448701D02*
X165124081Y-79525896D01*
X164732274Y-88185329D02*
X165472198Y-88185329D01*
X165124081Y-79525896D02*
X165027871Y-79525896D01*
X162915625Y-80334375D02*
X162915625Y-80955885D01*
X164915625Y-80334375D02*
X164915625Y-80869649D01*
X165843124Y-79020642D02*
X165415065Y-79448701D01*
X165937724Y-79020642D02*
X165843124Y-79020642D01*
X163715625Y-87818082D02*
X164062733Y-88165190D01*
X162915625Y-77099771D02*
X162328472Y-76512618D01*
%TO.N,VBUS*%
X158863319Y-66276151D02*
X156786707Y-68352763D01*
X167155500Y-57150000D02*
X164915625Y-59389875D01*
X172005625Y-55641875D02*
X170497500Y-57150000D01*
X158863319Y-66276151D02*
X160665625Y-64473845D01*
X160665625Y-64473845D02*
X160665625Y-60816875D01*
X160665625Y-60039875D02*
X161315625Y-59389875D01*
X156786707Y-68352763D02*
X156786707Y-68935370D01*
X160665625Y-60816875D02*
X160665625Y-60039875D01*
X161315625Y-59389875D02*
X164915625Y-59389875D01*
X164915625Y-59389875D02*
X165565625Y-60039875D01*
X170497500Y-57150000D02*
X167155500Y-57150000D01*
X165565625Y-60039875D02*
X165565625Y-60816875D01*
%TO.N,XIN*%
X161823286Y-88249549D02*
X161571626Y-88501209D01*
X159166743Y-90998262D02*
X159777743Y-91609262D01*
X159929137Y-90068262D02*
X159421193Y-90068262D01*
X160986192Y-91609262D02*
X161346271Y-91969341D01*
X161571626Y-89138448D02*
X161485883Y-89224191D01*
X162515625Y-87829105D02*
X162095181Y-88249549D01*
X159421193Y-90068262D02*
X159166743Y-90322712D01*
X162095181Y-88249549D02*
X161823286Y-88249549D01*
X162515625Y-87209375D02*
X162515625Y-87829105D01*
X161571626Y-88501209D02*
X161571626Y-89138448D01*
X159777743Y-91609262D02*
X160986192Y-91609262D01*
X161485883Y-89224191D02*
X160773208Y-89224191D01*
X159166743Y-90322712D02*
X159166743Y-90998262D01*
X160773208Y-89224191D02*
X159929137Y-90068262D01*
%TO.N,Net-(C16-Pad2)*%
X163546271Y-90269341D02*
X163935718Y-90658788D01*
X163935718Y-90658788D02*
X165134333Y-90658788D01*
X162142626Y-88870549D02*
X162147479Y-88870549D01*
X162147479Y-88870549D02*
X163546271Y-90269341D01*
%TO.N,D+*%
X162365625Y-60816875D02*
X162365625Y-59839875D01*
X162365625Y-59839875D02*
X162414625Y-59790875D01*
X167745295Y-68512948D02*
X167745295Y-75483565D01*
X167253860Y-75975000D02*
X165786868Y-75975000D01*
X162365625Y-60816875D02*
X162365625Y-61904376D01*
X162414625Y-59790875D02*
X162865014Y-59790875D01*
X165786868Y-75975000D02*
X163840607Y-77921261D01*
X163083512Y-64588838D02*
X163821185Y-64588838D01*
X162390625Y-63895951D02*
X163083512Y-64588838D01*
X162390625Y-61929376D02*
X162390625Y-63895951D01*
X162365625Y-61904376D02*
X162390625Y-61929376D01*
X163365625Y-59839875D02*
X163365625Y-60816875D01*
X162865014Y-59790875D02*
X163316625Y-59790875D01*
X163316625Y-59790875D02*
X163365625Y-59839875D01*
X163821185Y-64588838D02*
X167745295Y-68512948D01*
X167745295Y-75483565D02*
X167253860Y-75975000D01*
%TO.N,D-*%
X163816625Y-61842875D02*
X163706384Y-61842875D01*
X162840625Y-63778851D02*
X162840625Y-63151080D01*
X162865625Y-60816875D02*
X162865625Y-61904376D01*
X168000533Y-76092299D02*
X167703661Y-76092299D01*
X162865625Y-61904376D02*
X162840625Y-61929376D01*
X164780607Y-77617658D02*
X164780607Y-77921261D01*
X167703661Y-76092299D02*
X167419960Y-76376000D01*
X168195295Y-75897537D02*
X168000533Y-76092299D01*
X162914625Y-61842875D02*
X162865625Y-61793875D01*
X168195295Y-69002716D02*
X168195295Y-73646095D01*
X163249612Y-64187838D02*
X162840625Y-63778851D01*
X165973265Y-76425000D02*
X164780607Y-77617658D01*
X163865625Y-61793875D02*
X163816625Y-61842875D01*
X168195295Y-73646095D02*
X168195295Y-73879809D01*
X167419960Y-76376000D02*
X165973265Y-76376000D01*
X165973265Y-76376000D02*
X165973265Y-76425000D01*
X163865625Y-60816875D02*
X163865625Y-61793875D01*
X163706384Y-61842875D02*
X162914625Y-61842875D01*
X162840625Y-62990078D02*
X162840625Y-63151080D01*
X162840625Y-61929376D02*
X162840625Y-62990078D01*
X168195295Y-69002716D02*
X168195295Y-68395848D01*
X163987285Y-64187838D02*
X163249612Y-64187838D01*
X162865625Y-61793875D02*
X162865625Y-60816875D01*
X168195295Y-73879809D02*
X168195295Y-75897537D01*
X168195295Y-68395848D02*
X163987285Y-64187838D01*
%TO.N,Net-(J1-CC1)*%
X164394777Y-60846027D02*
X164365625Y-60816875D01*
X164394777Y-62548838D02*
X164394777Y-60846027D01*
%TO.N,Net-(J1-CC2)*%
X161373806Y-60825056D02*
X161365625Y-60816875D01*
X161373806Y-62572210D02*
X161373806Y-60825056D01*
%TO.N,GPIO11*%
X154781250Y-90646250D02*
X154225625Y-91201875D01*
X156359446Y-88385281D02*
X156288936Y-88385281D01*
X156288936Y-88385281D02*
X156066967Y-88607250D01*
X157948859Y-87332992D02*
X157155426Y-87332992D01*
X155898240Y-88607250D02*
X155651925Y-88853565D01*
X158978800Y-86371875D02*
X158944388Y-86337463D01*
X156066967Y-88607250D02*
X155898240Y-88607250D01*
X158944388Y-86337463D02*
X157948859Y-87332992D01*
X159678125Y-86371875D02*
X158978800Y-86371875D01*
X156761500Y-87983227D02*
X156359446Y-88385281D01*
X154781250Y-89734010D02*
X154781250Y-90646250D01*
X156761500Y-87726918D02*
X156761500Y-87983227D01*
X155651925Y-88853565D02*
X155651925Y-88863335D01*
X157155426Y-87332992D02*
X156761500Y-87726918D01*
X155651925Y-88863335D02*
X154781250Y-89734010D01*
%TO.N,GPIO14*%
X160967621Y-88304131D02*
X160711402Y-88560350D01*
X157532669Y-92284795D02*
X156848443Y-92284795D01*
X157162500Y-95551138D02*
X157162500Y-98425000D01*
X160607108Y-88823191D02*
X159763037Y-89667262D01*
X157826148Y-91981359D02*
X157532669Y-92274838D01*
X158765743Y-90156612D02*
X158765743Y-91164362D01*
X161315625Y-88114674D02*
X161126168Y-88304131D01*
X159255093Y-89667262D02*
X158765743Y-90156612D01*
X157532669Y-92274838D02*
X157532669Y-92284795D01*
X158765743Y-91164362D02*
X158816315Y-91214935D01*
X160711402Y-88823191D02*
X160607108Y-88823191D01*
X160711402Y-88560350D02*
X160711402Y-88823191D01*
X159763037Y-89667262D02*
X159255093Y-89667262D01*
X156342981Y-94731619D02*
X157162500Y-95551138D01*
X156848443Y-92284795D02*
X156342981Y-92790257D01*
X157162500Y-98425000D02*
X154225625Y-101361875D01*
X158049891Y-91981359D02*
X157826148Y-91981359D01*
X158816315Y-91214935D02*
X158049891Y-91981359D01*
X161126168Y-88304131D02*
X160967621Y-88304131D01*
X156342981Y-92790257D02*
X156342981Y-94731619D01*
X161315625Y-87209375D02*
X161315625Y-88114674D01*
%TO.N,GPIO5*%
X155296542Y-79058718D02*
X154781250Y-79574010D01*
X155876625Y-78700490D02*
X155518397Y-79058718D01*
X155357005Y-81538255D02*
X157390625Y-83571875D01*
X155518397Y-79058718D02*
X155296542Y-79058718D01*
X154781250Y-79574010D02*
X154781250Y-79969740D01*
X155376625Y-81518635D02*
X155357005Y-81538255D01*
X154781250Y-79969740D02*
X155376625Y-80565115D01*
X157390625Y-83571875D02*
X159678125Y-83571875D01*
X155376625Y-80565115D02*
X155376625Y-81518635D01*
%TO.N,GPIO13*%
X157852545Y-91579343D02*
X156980530Y-91579343D01*
X160594939Y-88100320D02*
X160152379Y-88100320D01*
X159629035Y-89200155D02*
X159094941Y-89200155D01*
X159094941Y-89200155D02*
X158252222Y-90042874D01*
X155941981Y-94565519D02*
X154225625Y-96281875D01*
X156447443Y-92109528D02*
X155941981Y-92614990D01*
X160099970Y-88152729D02*
X160099970Y-88729220D01*
X155941981Y-92614990D02*
X155941981Y-94565519D01*
X156980530Y-91579343D02*
X156450345Y-92109528D01*
X160152379Y-88100320D02*
X160099970Y-88152729D01*
X160915625Y-87209375D02*
X160915625Y-87779634D01*
X158252222Y-90042874D02*
X158252222Y-90591526D01*
X156450345Y-92109528D02*
X156447443Y-92109528D01*
X158306752Y-90646056D02*
X158306752Y-91125136D01*
X158252222Y-90591526D02*
X158306752Y-90646056D01*
X160099970Y-88729220D02*
X159629035Y-89200155D01*
X158306752Y-91125136D02*
X157852545Y-91579343D01*
X160915625Y-87779634D02*
X160594939Y-88100320D01*
%TO.N,GPIO8*%
X158878753Y-85171875D02*
X157987885Y-86062743D01*
X159678125Y-85171875D02*
X158878753Y-85171875D01*
X156382195Y-85591067D02*
X156382195Y-84788920D01*
X156347894Y-84754619D02*
X156347894Y-83164144D01*
X156347894Y-83164144D02*
X154225625Y-81041875D01*
X157987885Y-86062743D02*
X156853871Y-86062743D01*
X156853871Y-86062743D02*
X156382195Y-85591067D01*
X156382195Y-84788920D02*
X156347894Y-84754619D01*
%TO.N,GPIO15*%
X161357830Y-86272875D02*
X161715625Y-86630670D01*
X161715625Y-86630670D02*
X161715625Y-87209375D01*
X161236540Y-86272875D02*
X161357830Y-86272875D01*
D37*
%TO.N,GPIO12*%
X160440625Y-87209375D02*
X159543750Y-88106250D01*
X157871222Y-90128585D02*
X157844600Y-90128585D01*
X159543750Y-88106250D02*
X159543750Y-88746624D01*
X157844600Y-90128585D02*
X154231310Y-93741875D01*
X158937125Y-88819155D02*
X157871222Y-89885059D01*
X159543750Y-88746624D02*
X159471219Y-88819155D01*
D36*
X154231310Y-93741875D02*
X154225625Y-93741875D01*
D37*
X159471219Y-88819155D02*
X158937125Y-88819155D01*
D36*
X160515625Y-87209375D02*
X160440625Y-87209375D01*
D37*
X157871222Y-89885059D02*
X157871222Y-90128585D01*
D36*
%TO.N,GPIO2*%
X158208892Y-82371875D02*
X157974002Y-82136985D01*
X159678125Y-82371875D02*
X158208892Y-82371875D01*
%TO.N,GPIO4*%
X156737759Y-82325877D02*
X156737759Y-78854518D01*
X156737759Y-78854518D02*
X155432040Y-77548799D01*
X159678125Y-83171875D02*
X157583757Y-83171875D01*
X155611051Y-69727301D02*
X154225625Y-68341875D01*
X155432040Y-75767959D02*
X155768276Y-75431723D01*
X155611051Y-74750032D02*
X155611051Y-69727301D01*
X157583757Y-83171875D02*
X156737759Y-82325877D01*
X155768276Y-75431723D02*
X155768276Y-74907257D01*
X155768276Y-74907257D02*
X155611051Y-74750032D01*
X155432040Y-77548799D02*
X155432040Y-75767959D01*
%TO.N,GPIO0*%
X159118048Y-81571875D02*
X158740625Y-81194452D01*
X159678125Y-81571875D02*
X159118048Y-81571875D01*
%TO.N,GPIO10*%
X160615625Y-85526502D02*
X160615625Y-85840522D01*
X160504859Y-85423430D02*
X160512553Y-85423430D01*
X160512553Y-85423430D02*
X160615625Y-85526502D01*
X160615625Y-85840522D02*
X160484272Y-85971875D01*
X160484272Y-85971875D02*
X159678125Y-85971875D01*
D38*
%TO.N,GPIO9*%
X155948369Y-85722087D02*
X155948369Y-85569836D01*
D36*
X156917927Y-86691645D02*
X156632591Y-86406309D01*
X157554931Y-86691645D02*
X156917927Y-86691645D01*
X155429845Y-84317593D02*
X154961343Y-84317593D01*
X155948369Y-84836117D02*
X155429845Y-84317593D01*
X157560329Y-86697043D02*
X157554931Y-86691645D01*
X155948369Y-85569836D02*
X155948369Y-84836117D01*
X159678125Y-85571875D02*
X159081832Y-85571875D01*
D38*
X156632591Y-86406309D02*
X155948369Y-85722087D01*
D36*
X157956664Y-86697043D02*
X157560329Y-86697043D01*
X159081832Y-85571875D02*
X157956664Y-86697043D01*
X154961343Y-84317593D02*
X154225625Y-83581875D01*
%TO.N,GPIO3*%
X157176859Y-78726518D02*
X155833040Y-77382699D01*
X156010707Y-74523976D02*
X156010707Y-67586957D01*
X155833040Y-75934059D02*
X156385117Y-75381982D01*
X155833040Y-77382699D02*
X155833040Y-75934059D01*
X157176859Y-82194776D02*
X157176859Y-78726518D01*
X156385117Y-75381982D02*
X156385117Y-74898386D01*
X159678125Y-82771875D02*
X157753958Y-82771875D01*
X156385117Y-74898386D02*
X156010707Y-74523976D01*
X157753958Y-82771875D02*
X157176859Y-82194776D01*
X156010707Y-67586957D02*
X154225625Y-65801875D01*
%TO.N,GPIO6*%
X156948894Y-83978673D02*
X156955692Y-83971875D01*
X156955692Y-83971875D02*
X159678125Y-83971875D01*
%TO.N,GPIO7*%
X160415011Y-84306559D02*
X160349695Y-84371875D01*
X160349695Y-84371875D02*
X159678125Y-84371875D01*
%TO.N,GPIO1*%
X159678125Y-81971875D02*
X158657422Y-81971875D01*
X158657422Y-81971875D02*
X157943116Y-81257569D01*
%TO.N,GPIO29_ADC3*%
X165755037Y-81571875D02*
X165703717Y-81623195D01*
X166553125Y-81571875D02*
X165755037Y-81571875D01*
X169069750Y-69564735D02*
X169069750Y-61117750D01*
X169069750Y-61117750D02*
X172005625Y-58181875D01*
%TO.N,GPIO18*%
X167271730Y-87090480D02*
X167271730Y-90749850D01*
X170973750Y-95250000D02*
X172005625Y-96281875D01*
X166180442Y-93986699D02*
X167443743Y-95250000D01*
X167443743Y-95250000D02*
X170973750Y-95250000D01*
X166553125Y-86371875D02*
X167271730Y-87090480D01*
X167271730Y-90749850D02*
X166180442Y-91841138D01*
X166180442Y-91841138D02*
X166180442Y-93986699D01*
%TO.N,GPIO20*%
X168571124Y-91201875D02*
X172005625Y-91201875D01*
X168073730Y-86386056D02*
X168073730Y-90704481D01*
X167259548Y-85571875D02*
X168073730Y-86386056D01*
X168073730Y-90704481D02*
X168571124Y-91201875D01*
X166553125Y-85571875D02*
X167259548Y-85571875D01*
%TO.N,GPIO22*%
X170133895Y-83581875D02*
X172005625Y-83581875D01*
X167344266Y-84371875D02*
X167538196Y-84177945D01*
X169537825Y-84177945D02*
X170133895Y-83581875D01*
X166553125Y-84371875D02*
X167344266Y-84371875D01*
X167538196Y-84177945D02*
X169537825Y-84177945D01*
%TO.N,RUN*%
X164915625Y-86169721D02*
X164915625Y-87209375D01*
X164645525Y-85899622D02*
X164915625Y-86169721D01*
%TO.N,GPIO19*%
X167672730Y-86557067D02*
X167672730Y-90915950D01*
X166664463Y-92824049D02*
X167582289Y-93741875D01*
X167087538Y-85971875D02*
X167672730Y-86557067D01*
X167672730Y-90915950D02*
X166664463Y-91924217D01*
X166664463Y-91924217D02*
X166664463Y-92824049D01*
X167582289Y-93741875D02*
X172005625Y-93741875D01*
X166553125Y-85971875D02*
X167087538Y-85971875D01*
%TO.N,GPIO24*%
X166553125Y-83571875D02*
X166002616Y-83571875D01*
X166002616Y-83571875D02*
X165615625Y-83958866D01*
D38*
%TO.N,GPIO16*%
X165315625Y-87209375D02*
X165315625Y-87688081D01*
X165415625Y-86437565D02*
X165315625Y-86537565D01*
X165315625Y-86537565D02*
X165315625Y-87209375D01*
%TO.N,GPIO17*%
X170148078Y-101361875D02*
X166878453Y-98092250D01*
X166878453Y-98092250D02*
X166498102Y-98092250D01*
D36*
X166224039Y-87209375D02*
X166870730Y-87856066D01*
X166870730Y-87856066D02*
X166870730Y-90583750D01*
X166870730Y-90583750D02*
X165779442Y-91675038D01*
X165715625Y-87209375D02*
X166224039Y-87209375D01*
D38*
X165779442Y-97373590D02*
X165779442Y-91675038D01*
X166498102Y-98092250D02*
X165779442Y-97373590D01*
X172005625Y-101361875D02*
X170148078Y-101361875D01*
D36*
%TO.N,GPIO26_ADC0*%
X169809695Y-82771875D02*
X170453625Y-82127945D01*
X170453625Y-82127945D02*
X170453625Y-72433875D01*
X166553125Y-82771875D02*
X169809695Y-82771875D01*
X170453625Y-72433875D02*
X172005625Y-70881875D01*
%TO.N,GPIO28_ADC2*%
X169651625Y-80962500D02*
X169651625Y-79576365D01*
X169651625Y-79576365D02*
X169452625Y-79377365D01*
X166553125Y-81971875D02*
X169471470Y-81971875D01*
X169651625Y-81791720D02*
X169651625Y-81632588D01*
X170503595Y-64763905D02*
X172005625Y-63261875D01*
X169471470Y-81971875D02*
X169651625Y-81791720D01*
X170503595Y-68307394D02*
X170503595Y-64763905D01*
X169651625Y-81632588D02*
X169651625Y-80962500D01*
%TO.N,GPIO27_ADC1*%
X170052625Y-70294875D02*
X172005625Y-68341875D01*
X166553125Y-82371875D02*
X169638570Y-82371875D01*
X170052625Y-81957820D02*
X170052625Y-70294875D01*
X169638570Y-82371875D02*
X170052625Y-81957820D01*
%TO.N,GPIO23*%
X170854625Y-82294045D02*
X170854625Y-79652875D01*
X169371725Y-83776945D02*
X170854625Y-82294045D01*
X167165553Y-83971875D02*
X167360483Y-83776945D01*
X170854625Y-79652875D02*
X172005625Y-78501875D01*
X166553125Y-83971875D02*
X167165553Y-83971875D01*
X167360483Y-83776945D02*
X169371725Y-83776945D01*
%TO.N,GPIO21*%
X165729857Y-85159866D02*
X165741866Y-85171875D01*
X165741866Y-85171875D02*
X166553125Y-85171875D01*
X165719325Y-85159866D02*
X165729857Y-85159866D01*
%TO.N,SWCLK*%
X164115625Y-86657572D02*
X164115625Y-87209375D01*
X163744651Y-86286598D02*
X164115625Y-86657572D01*
X162781797Y-86286598D02*
X163744651Y-86286598D01*
X162766787Y-86301608D02*
X162781797Y-86286598D01*
%TO.N,SWD*%
X161128114Y-85212374D02*
X161128114Y-85586364D01*
X161726933Y-85672875D02*
X161842875Y-85788817D01*
X164515625Y-86476828D02*
X164515625Y-87209375D01*
X161214625Y-85672875D02*
X161726933Y-85672875D01*
X163799534Y-85760737D02*
X164515625Y-86476828D01*
X161870955Y-85760737D02*
X163799534Y-85760737D01*
X161128114Y-85586364D02*
X161214625Y-85672875D01*
X161023217Y-85107477D02*
X161128114Y-85212374D01*
X161842875Y-85788817D02*
X161870955Y-85760737D01*
%TO.N,XOUT*%
X162915625Y-88623548D02*
X163162626Y-88870549D01*
X162915625Y-87209375D02*
X162915625Y-88623548D01*
D38*
%TO.N,SS*%
X163625625Y-93918125D02*
X162868743Y-93161243D01*
X162868743Y-93161243D02*
X159591670Y-93161243D01*
D36*
X156234040Y-77216599D02*
X156234040Y-76100159D01*
X157226536Y-74379629D02*
X157226536Y-75176197D01*
X156925820Y-75408379D02*
X157458718Y-75408379D01*
D38*
X159591670Y-93161243D02*
X159241370Y-92810943D01*
D36*
X159776965Y-79487842D02*
X159238034Y-78948911D01*
D38*
X155587369Y-86039765D02*
X155587369Y-85533620D01*
D36*
X160515625Y-80334375D02*
X159776965Y-79595715D01*
D38*
X155587369Y-85533620D02*
X154861213Y-84807464D01*
X156237759Y-79231490D02*
X156185908Y-79231490D01*
X157197304Y-89398021D02*
X158743707Y-87851618D01*
X156040116Y-79377282D02*
X156040116Y-81170268D01*
X158743707Y-87851618D02*
X158743707Y-87245250D01*
D36*
X157966352Y-78948911D02*
X156234040Y-77216599D01*
X156234040Y-76100159D02*
X156925820Y-75408379D01*
X159238034Y-78948911D02*
X157966352Y-78948911D01*
D38*
X156185908Y-79231490D02*
X156040116Y-79377282D01*
X156029101Y-86481497D02*
X155587369Y-86039765D01*
D36*
X159776965Y-79595715D02*
X159776965Y-79487842D01*
X157226536Y-75176197D02*
X157458718Y-75408379D01*
D38*
%TO.N,Net-(R6-Pad1)*%
X162605625Y-95859375D02*
X162605625Y-93918125D01*
X165215625Y-98469375D02*
X162605625Y-95859375D01*
D36*
%TO.N,SD2*%
X161315625Y-80334375D02*
X161315625Y-79190625D01*
X158209718Y-76838265D02*
X158209718Y-76693581D01*
X161066932Y-78941932D02*
X161066932Y-78738475D01*
X161066932Y-78738475D02*
X160717542Y-78389085D01*
X158799716Y-77428263D02*
X158209718Y-76838265D01*
X160717542Y-78389085D02*
X160717542Y-77952348D01*
X157924516Y-76408379D02*
X157458718Y-76408379D01*
X160717542Y-77952348D02*
X160193457Y-77428263D01*
X161315625Y-79190625D02*
X161066932Y-78941932D01*
X158209718Y-76693581D02*
X157924516Y-76408379D01*
X160193457Y-77428263D02*
X158799716Y-77428263D01*
%TO.N,SD1*%
X159944750Y-78982250D02*
X159543750Y-78581250D01*
X156635040Y-76266259D02*
X156992920Y-75908379D01*
X158895959Y-78190263D02*
X158740811Y-78345411D01*
X160915625Y-80334375D02*
X160915625Y-79450026D01*
X159123620Y-78190263D02*
X158895959Y-78190263D01*
X157314601Y-77730060D02*
X156635040Y-77050499D01*
X156635040Y-77050499D02*
X156635040Y-76266259D01*
X159514607Y-78581250D02*
X159123620Y-78190263D01*
X160447849Y-78982250D02*
X159944750Y-78982250D01*
X156992920Y-75908379D02*
X157458718Y-75908379D01*
X158740811Y-78345411D02*
X157957362Y-78345411D01*
X159543750Y-78581250D02*
X159514607Y-78581250D01*
X157342011Y-77730060D02*
X157314601Y-77730060D01*
X160915625Y-79450026D02*
X160447849Y-78982250D01*
X157957362Y-78345411D02*
X157342011Y-77730060D01*
%TO.N,SCLK*%
X162115625Y-77749488D02*
X160774516Y-76408379D01*
X162115625Y-80334375D02*
X162115625Y-77749488D01*
X160774516Y-76408379D02*
X160308718Y-76408379D01*
%TO.N,SD3*%
X161077728Y-75908379D02*
X160308718Y-75908379D01*
X162515625Y-77346276D02*
X161077728Y-75908379D01*
X162515625Y-80334375D02*
X162515625Y-77346276D01*
%TO.N,SD0*%
X161715625Y-80334375D02*
X161715625Y-78315286D01*
X161715625Y-78315286D02*
X160308718Y-76908379D01*
%TO.N,Net-(U1-USB_DP)*%
X164115625Y-79216279D02*
X163840607Y-78941261D01*
X164115625Y-80334375D02*
X164115625Y-79216279D01*
%TO.N,Net-(U1-USB_DM)*%
X164515625Y-80334375D02*
X164515625Y-79206243D01*
X164515625Y-79206243D02*
X164780607Y-78941261D01*
%TD*%
%TA.AperFunction,Conductor*%
%TO.N,GND*%
G36*
X158516590Y-92489013D02*
G01*
X158559780Y-92543935D01*
X158566420Y-92613489D01*
X158566278Y-92614210D01*
X158540870Y-92741945D01*
X158540870Y-92741950D01*
X158540870Y-92879936D01*
X158540870Y-92879938D01*
X158540869Y-92879938D01*
X158567788Y-93015265D01*
X158567791Y-93015275D01*
X158620591Y-93142747D01*
X158620598Y-93142760D01*
X158697255Y-93257484D01*
X158697258Y-93257488D01*
X158794824Y-93355054D01*
X158794828Y-93355057D01*
X158909552Y-93431714D01*
X158909565Y-93431721D01*
X158986048Y-93463401D01*
X159037042Y-93484523D01*
X159106556Y-93498350D01*
X159168465Y-93530732D01*
X159170045Y-93532285D01*
X159247515Y-93609755D01*
X159375325Y-93683546D01*
X159517878Y-93721743D01*
X159517879Y-93721743D01*
X161711125Y-93721743D01*
X161778164Y-93741428D01*
X161823919Y-93794232D01*
X161835125Y-93845743D01*
X161835125Y-94167294D01*
X161835126Y-94167316D01*
X161837960Y-94203330D01*
X161882754Y-94357513D01*
X161882756Y-94357518D01*
X161964488Y-94495720D01*
X161964494Y-94495728D01*
X162008805Y-94540038D01*
X162042291Y-94601361D01*
X162045125Y-94627720D01*
X162045125Y-95785583D01*
X162045125Y-95933167D01*
X162060790Y-95991629D01*
X162076455Y-96050092D01*
X162076455Y-96050093D01*
X162083320Y-96075716D01*
X162083321Y-96075718D01*
X162083322Y-96075720D01*
X162154949Y-96199782D01*
X162157114Y-96203531D01*
X162268535Y-96314952D01*
X162268541Y-96314957D01*
X164278806Y-98325222D01*
X164312291Y-98386545D01*
X164315125Y-98412903D01*
X164315125Y-99325991D01*
X164317048Y-99347153D01*
X164321538Y-99396567D01*
X164372147Y-99558981D01*
X164460155Y-99704563D01*
X164580436Y-99824844D01*
X164580438Y-99824845D01*
X164580440Y-99824847D01*
X164726019Y-99912853D01*
X164888429Y-99963461D01*
X164959009Y-99969875D01*
X164959012Y-99969875D01*
X165472238Y-99969875D01*
X165472241Y-99969875D01*
X165542821Y-99963461D01*
X165705231Y-99912853D01*
X165850810Y-99824847D01*
X165971097Y-99704560D01*
X166059103Y-99558981D01*
X166109711Y-99396571D01*
X166116125Y-99325991D01*
X166116125Y-98731524D01*
X166135810Y-98664485D01*
X166188614Y-98618730D01*
X166257772Y-98608786D01*
X166273714Y-98613162D01*
X166273906Y-98612449D01*
X166281755Y-98614552D01*
X166281757Y-98614553D01*
X166424311Y-98652750D01*
X166571894Y-98652750D01*
X166594925Y-98652750D01*
X166661964Y-98672435D01*
X166682606Y-98689069D01*
X169695225Y-101701688D01*
X169695235Y-101701699D01*
X169699565Y-101706029D01*
X169699566Y-101706030D01*
X169803923Y-101810387D01*
X169924991Y-101880285D01*
X169924993Y-101880287D01*
X169931731Y-101884177D01*
X169931733Y-101884178D01*
X170074286Y-101922375D01*
X170074287Y-101922375D01*
X170699525Y-101922375D01*
X170766564Y-101942060D01*
X170810010Y-101990080D01*
X170850576Y-102069694D01*
X170975515Y-102241661D01*
X171125838Y-102391984D01*
X171297807Y-102516925D01*
X171306571Y-102521391D01*
X171357367Y-102569366D01*
X171374161Y-102637187D01*
X171351623Y-102703322D01*
X171306571Y-102742359D01*
X171297807Y-102746824D01*
X171125838Y-102871765D01*
X170975515Y-103022088D01*
X170850576Y-103194054D01*
X170754069Y-103383460D01*
X170688378Y-103585635D01*
X170686729Y-103596049D01*
X170655125Y-103795588D01*
X170655125Y-104008162D01*
X170688379Y-104218118D01*
X170737628Y-104369691D01*
X170754069Y-104420289D01*
X170841091Y-104591080D01*
X170853987Y-104659750D01*
X170827711Y-104724490D01*
X170770604Y-104764747D01*
X170730606Y-104771375D01*
X166755383Y-104771375D01*
X166688344Y-104751690D01*
X166642589Y-104698886D01*
X166632645Y-104629728D01*
X166661670Y-104566172D01*
X166667702Y-104559694D01*
X166685729Y-104541667D01*
X166685731Y-104541663D01*
X166685734Y-104541661D01*
X166810673Y-104369695D01*
X166810675Y-104369692D01*
X166810676Y-104369691D01*
X166907182Y-104180287D01*
X166972871Y-103978118D01*
X167006125Y-103768162D01*
X167006125Y-103555588D01*
X166972871Y-103345632D01*
X166907182Y-103143463D01*
X166810676Y-102954059D01*
X166810674Y-102954056D01*
X166810673Y-102954054D01*
X166685734Y-102782088D01*
X166535411Y-102631765D01*
X166363445Y-102506826D01*
X166174039Y-102410319D01*
X166174038Y-102410318D01*
X166174037Y-102410318D01*
X165971868Y-102344629D01*
X165971866Y-102344628D01*
X165971865Y-102344628D01*
X165810582Y-102319083D01*
X165761912Y-102311375D01*
X165549338Y-102311375D01*
X165500667Y-102319083D01*
X165339385Y-102344628D01*
X165137210Y-102410319D01*
X164947804Y-102506826D01*
X164775838Y-102631765D01*
X164625515Y-102782088D01*
X164500574Y-102954057D01*
X164495827Y-102963374D01*
X164447852Y-103014168D01*
X164380030Y-103030962D01*
X164313896Y-103008423D01*
X164274859Y-102963370D01*
X164270251Y-102954327D01*
X164230895Y-102900157D01*
X164230894Y-102900157D01*
X163598587Y-103532465D01*
X163581550Y-103468882D01*
X163515724Y-103354868D01*
X163422632Y-103261776D01*
X163308618Y-103195950D01*
X163245034Y-103178912D01*
X163877341Y-102546603D01*
X163823175Y-102507250D01*
X163633842Y-102410779D01*
X163431754Y-102345117D01*
X163221871Y-102311875D01*
X163009379Y-102311875D01*
X162799497Y-102345117D01*
X162799494Y-102345117D01*
X162597407Y-102410779D01*
X162408064Y-102507255D01*
X162353907Y-102546602D01*
X162353907Y-102546603D01*
X162986216Y-103178912D01*
X162922632Y-103195950D01*
X162808618Y-103261776D01*
X162715526Y-103354868D01*
X162649700Y-103468882D01*
X162632662Y-103532466D01*
X161962443Y-102862247D01*
X161928958Y-102800924D01*
X161928955Y-102800911D01*
X161926124Y-102787890D01*
X161926124Y-102764003D01*
X161919716Y-102704392D01*
X161885790Y-102613432D01*
X161869423Y-102569548D01*
X161869418Y-102569539D01*
X161783172Y-102454330D01*
X161783169Y-102454327D01*
X161667960Y-102368081D01*
X161667953Y-102368077D01*
X161533107Y-102317783D01*
X161533108Y-102317783D01*
X161473508Y-102311376D01*
X161473506Y-102311375D01*
X161473498Y-102311375D01*
X161473489Y-102311375D01*
X159677754Y-102311375D01*
X159677748Y-102311376D01*
X159618141Y-102317783D01*
X159483296Y-102368077D01*
X159483289Y-102368081D01*
X159368080Y-102454327D01*
X159368077Y-102454330D01*
X159281831Y-102569539D01*
X159281827Y-102569546D01*
X159231533Y-102704392D01*
X159225126Y-102763991D01*
X159225125Y-102764010D01*
X159225125Y-104559745D01*
X159225126Y-104559751D01*
X159232363Y-104627071D01*
X159230967Y-104627220D01*
X159227675Y-104688631D01*
X159186807Y-104745302D01*
X159121788Y-104770882D01*
X159110739Y-104771375D01*
X155500644Y-104771375D01*
X155433605Y-104751690D01*
X155387850Y-104698886D01*
X155377906Y-104629728D01*
X155390159Y-104591080D01*
X155415339Y-104541661D01*
X155477182Y-104420287D01*
X155542871Y-104218118D01*
X155576125Y-104008162D01*
X155576125Y-103795588D01*
X155542871Y-103585632D01*
X155477182Y-103383463D01*
X155380676Y-103194059D01*
X155380674Y-103194056D01*
X155380673Y-103194054D01*
X155255734Y-103022088D01*
X155105411Y-102871765D01*
X154933445Y-102746826D01*
X154932740Y-102746466D01*
X154924679Y-102742360D01*
X154873884Y-102694387D01*
X154857088Y-102626567D01*
X154879624Y-102560431D01*
X154924679Y-102521390D01*
X154933441Y-102516926D01*
X155019602Y-102454327D01*
X155105411Y-102391984D01*
X155105413Y-102391981D01*
X155105417Y-102391979D01*
X155255729Y-102241667D01*
X155255731Y-102241663D01*
X155255734Y-102241661D01*
X155380673Y-102069695D01*
X155380674Y-102069694D01*
X155380676Y-102069691D01*
X155477182Y-101880287D01*
X155542871Y-101678118D01*
X155576125Y-101468162D01*
X155576125Y-101255588D01*
X155542871Y-101045632D01*
X155529131Y-101003348D01*
X155527137Y-100933510D01*
X155559380Y-100877353D01*
X157110777Y-99325957D01*
X160115626Y-99325957D01*
X160122033Y-99396477D01*
X160122034Y-99396482D01*
X160172606Y-99558771D01*
X160260552Y-99704252D01*
X160380747Y-99824447D01*
X160526229Y-99912394D01*
X160526228Y-99912394D01*
X160688519Y-99962965D01*
X160688518Y-99962965D01*
X160759033Y-99969373D01*
X160759051Y-99969374D01*
X161265625Y-99969374D01*
X161272206Y-99969374D01*
X161342727Y-99962966D01*
X161342732Y-99962965D01*
X161505021Y-99912393D01*
X161650502Y-99824447D01*
X161770697Y-99704252D01*
X161858644Y-99558770D01*
X161909215Y-99396481D01*
X161915625Y-99325947D01*
X161915625Y-98719375D01*
X161265625Y-98719375D01*
X161265625Y-99969374D01*
X160759051Y-99969374D01*
X160765624Y-99969373D01*
X160765625Y-99969373D01*
X160765625Y-98719375D01*
X160115626Y-98719375D01*
X160115626Y-99325957D01*
X157110777Y-99325957D01*
X157521006Y-98915728D01*
X157521011Y-98915724D01*
X157531214Y-98905520D01*
X157531216Y-98905520D01*
X157643020Y-98793716D01*
X157722077Y-98656784D01*
X157763000Y-98504057D01*
X157763000Y-97612802D01*
X160115625Y-97612802D01*
X160115625Y-98219375D01*
X160765625Y-98219375D01*
X161265625Y-98219375D01*
X161915624Y-98219375D01*
X161915624Y-97612792D01*
X161909216Y-97542272D01*
X161909215Y-97542267D01*
X161858643Y-97379978D01*
X161770697Y-97234497D01*
X161650502Y-97114302D01*
X161505020Y-97026355D01*
X161505021Y-97026355D01*
X161342730Y-96975784D01*
X161342731Y-96975784D01*
X161272197Y-96969375D01*
X161265625Y-96969375D01*
X161265625Y-98219375D01*
X160765625Y-98219375D01*
X160765625Y-96969375D01*
X160765624Y-96969374D01*
X160759061Y-96969375D01*
X160759042Y-96969376D01*
X160688522Y-96975783D01*
X160688517Y-96975784D01*
X160526228Y-97026356D01*
X160380747Y-97114302D01*
X160260552Y-97234497D01*
X160172605Y-97379979D01*
X160122034Y-97542268D01*
X160115625Y-97612802D01*
X157763000Y-97612802D01*
X157763000Y-95640197D01*
X157763001Y-95640184D01*
X157763001Y-95472083D01*
X157763001Y-95472081D01*
X157722077Y-95319353D01*
X157679213Y-95245111D01*
X157643020Y-95182422D01*
X157531216Y-95070618D01*
X157526885Y-95066287D01*
X157526874Y-95066277D01*
X156979800Y-94519203D01*
X156946315Y-94457880D01*
X156943481Y-94431522D01*
X156943481Y-93090354D01*
X156952125Y-93060913D01*
X156958649Y-93030927D01*
X156962403Y-93025911D01*
X156963166Y-93023315D01*
X156979800Y-93002673D01*
X157060859Y-92921614D01*
X157122182Y-92888129D01*
X157148540Y-92885295D01*
X157611724Y-92885295D01*
X157611726Y-92885295D01*
X157764453Y-92844372D01*
X157901385Y-92765315D01*
X158013189Y-92653511D01*
X158018628Y-92644088D01*
X158038525Y-92618215D01*
X158038756Y-92617984D01*
X158100154Y-92584636D01*
X158126243Y-92581860D01*
X158128945Y-92581860D01*
X158128948Y-92581860D01*
X158281676Y-92540936D01*
X158341107Y-92506623D01*
X158382665Y-92482629D01*
X158450564Y-92466160D01*
X158516590Y-92489013D01*
G37*
%TD.AperFunction*%
%TA.AperFunction,Conductor*%
G36*
X164230895Y-104423592D02*
G01*
X164230895Y-104423591D01*
X164270247Y-104369430D01*
X164274857Y-104360382D01*
X164322830Y-104309584D01*
X164390650Y-104292787D01*
X164456786Y-104315322D01*
X164495829Y-104360379D01*
X164500574Y-104369692D01*
X164625515Y-104541661D01*
X164643548Y-104559694D01*
X164677033Y-104621017D01*
X164672049Y-104690709D01*
X164630177Y-104746642D01*
X164564713Y-104771059D01*
X164555867Y-104771375D01*
X163922933Y-104771375D01*
X163855894Y-104751690D01*
X163835252Y-104735056D01*
X163245033Y-104144837D01*
X163308618Y-104127800D01*
X163422632Y-104061974D01*
X163515724Y-103968882D01*
X163581550Y-103854868D01*
X163598587Y-103791283D01*
X164230895Y-104423592D01*
G37*
%TD.AperFunction*%
%TA.AperFunction,Conductor*%
G36*
X170628468Y-95870185D02*
G01*
X170674223Y-95922989D01*
X170684167Y-95992147D01*
X170683902Y-95993898D01*
X170655125Y-96175588D01*
X170655125Y-96388162D01*
X170665007Y-96450555D01*
X170687724Y-96593986D01*
X170688379Y-96598118D01*
X170748483Y-96783099D01*
X170754069Y-96800289D01*
X170850576Y-96989695D01*
X170975515Y-97161661D01*
X171125838Y-97311984D01*
X171297804Y-97436923D01*
X171297806Y-97436924D01*
X171297809Y-97436926D01*
X171307118Y-97441669D01*
X171357915Y-97489641D01*
X171374712Y-97557462D01*
X171352177Y-97623597D01*
X171307130Y-97662635D01*
X171298071Y-97667251D01*
X171298065Y-97667255D01*
X171243907Y-97706602D01*
X171243907Y-97706603D01*
X171876216Y-98338912D01*
X171812632Y-98355950D01*
X171698618Y-98421776D01*
X171605526Y-98514868D01*
X171539700Y-98628882D01*
X171522662Y-98692466D01*
X170890353Y-98060157D01*
X170890352Y-98060157D01*
X170851005Y-98114314D01*
X170754529Y-98303657D01*
X170688867Y-98505744D01*
X170688867Y-98505747D01*
X170655625Y-98715628D01*
X170655625Y-98928121D01*
X170688867Y-99138002D01*
X170688867Y-99138005D01*
X170754529Y-99340092D01*
X170851000Y-99529425D01*
X170890353Y-99583591D01*
X171522662Y-98951283D01*
X171539700Y-99014868D01*
X171605526Y-99128882D01*
X171698618Y-99221974D01*
X171812632Y-99287800D01*
X171876215Y-99304837D01*
X171243907Y-99937144D01*
X171243907Y-99937145D01*
X171298077Y-99976501D01*
X171298076Y-99976501D01*
X171307120Y-99981109D01*
X171357917Y-100029083D01*
X171374712Y-100096904D01*
X171352175Y-100163039D01*
X171307124Y-100202077D01*
X171297807Y-100206824D01*
X171125838Y-100331765D01*
X170975515Y-100482088D01*
X170850576Y-100654055D01*
X170810010Y-100733670D01*
X170762035Y-100784466D01*
X170699525Y-100801375D01*
X170431606Y-100801375D01*
X170364567Y-100781690D01*
X170343925Y-100765056D01*
X167416420Y-97837551D01*
X167382935Y-97776228D01*
X167387919Y-97706536D01*
X167429791Y-97650603D01*
X167442079Y-97642496D01*
X167505585Y-97605832D01*
X167609942Y-97501475D01*
X167609942Y-97501473D01*
X167620146Y-97491270D01*
X167620150Y-97491265D01*
X168328320Y-96783095D01*
X168328325Y-96783091D01*
X168338528Y-96772887D01*
X168338530Y-96772887D01*
X168442887Y-96668530D01*
X168516678Y-96540720D01*
X168554875Y-96398166D01*
X168554875Y-96325519D01*
X168574560Y-96258480D01*
X168575773Y-96256628D01*
X168615150Y-96197697D01*
X168667955Y-96070214D01*
X168691806Y-95950309D01*
X168724191Y-95888398D01*
X168784906Y-95853824D01*
X168813423Y-95850500D01*
X170561429Y-95850500D01*
X170628468Y-95870185D01*
G37*
%TD.AperFunction*%
%TA.AperFunction,Conductor*%
G36*
X173078806Y-99541502D02*
G01*
X173112291Y-99602825D01*
X173115125Y-99629183D01*
X173115125Y-100262117D01*
X173095440Y-100329156D01*
X173042636Y-100374911D01*
X172973478Y-100384855D01*
X172909922Y-100355830D01*
X172903444Y-100349798D01*
X172885411Y-100331765D01*
X172713442Y-100206824D01*
X172704129Y-100202079D01*
X172653332Y-100154105D01*
X172636537Y-100086284D01*
X172659074Y-100020149D01*
X172704132Y-99981107D01*
X172713180Y-99976497D01*
X172767341Y-99937145D01*
X172767342Y-99937145D01*
X172135033Y-99304837D01*
X172198618Y-99287800D01*
X172312632Y-99221974D01*
X172405724Y-99128882D01*
X172471550Y-99014868D01*
X172488587Y-98951283D01*
X173078806Y-99541502D01*
G37*
%TD.AperFunction*%
%TA.AperFunction,Conductor*%
G36*
X153759700Y-99014868D02*
G01*
X153825526Y-99128882D01*
X153918618Y-99221974D01*
X154032632Y-99287800D01*
X154096215Y-99304837D01*
X153463907Y-99937144D01*
X153463907Y-99937145D01*
X153518077Y-99976501D01*
X153518076Y-99976501D01*
X153527120Y-99981109D01*
X153577917Y-100029083D01*
X153594712Y-100096904D01*
X153572175Y-100163039D01*
X153527124Y-100202077D01*
X153517807Y-100206824D01*
X153345838Y-100331765D01*
X153345834Y-100331769D01*
X153327806Y-100349798D01*
X153266483Y-100383283D01*
X153196791Y-100378299D01*
X153140858Y-100336427D01*
X153116441Y-100270963D01*
X153116125Y-100262117D01*
X153116125Y-99629183D01*
X153135810Y-99562144D01*
X153152444Y-99541502D01*
X153742662Y-98951283D01*
X153759700Y-99014868D01*
G37*
%TD.AperFunction*%
%TA.AperFunction,Conductor*%
G36*
X156102764Y-95356483D02*
G01*
X156147111Y-95384984D01*
X156525681Y-95763554D01*
X156559166Y-95824877D01*
X156562000Y-95851235D01*
X156562000Y-98124902D01*
X156542315Y-98191941D01*
X156525681Y-98212583D01*
X155787306Y-98950958D01*
X155725983Y-98984443D01*
X155656291Y-98979459D01*
X155600358Y-98937587D01*
X155575941Y-98872123D01*
X155575625Y-98863277D01*
X155575625Y-98715628D01*
X155542382Y-98505747D01*
X155542382Y-98505744D01*
X155476720Y-98303657D01*
X155380249Y-98114324D01*
X155340895Y-98060157D01*
X155340894Y-98060157D01*
X154708587Y-98692465D01*
X154691550Y-98628882D01*
X154625724Y-98514868D01*
X154532632Y-98421776D01*
X154418618Y-98355950D01*
X154355034Y-98338912D01*
X154987341Y-97706603D01*
X154933172Y-97667248D01*
X154933172Y-97667247D01*
X154924125Y-97662638D01*
X154873331Y-97614663D01*
X154856537Y-97546841D01*
X154879076Y-97480707D01*
X154924133Y-97441668D01*
X154933441Y-97436926D01*
X155021721Y-97372787D01*
X155105411Y-97311984D01*
X155105413Y-97311981D01*
X155105417Y-97311979D01*
X155255729Y-97161667D01*
X155255731Y-97161663D01*
X155255734Y-97161661D01*
X155380673Y-96989695D01*
X155380672Y-96989695D01*
X155380676Y-96989691D01*
X155477182Y-96800287D01*
X155542871Y-96598118D01*
X155576125Y-96388162D01*
X155576125Y-96175588D01*
X155542871Y-95965632D01*
X155529131Y-95923348D01*
X155527137Y-95853510D01*
X155559380Y-95797353D01*
X155971753Y-95384981D01*
X156033072Y-95351499D01*
X156102764Y-95356483D01*
G37*
%TD.AperFunction*%
%TA.AperFunction,Conductor*%
G36*
X153321328Y-97287920D02*
G01*
X153327806Y-97293952D01*
X153345838Y-97311984D01*
X153517804Y-97436923D01*
X153517806Y-97436924D01*
X153517809Y-97436926D01*
X153527118Y-97441669D01*
X153577915Y-97489641D01*
X153594712Y-97557462D01*
X153572177Y-97623597D01*
X153527130Y-97662635D01*
X153518071Y-97667251D01*
X153518065Y-97667255D01*
X153463907Y-97706602D01*
X153463907Y-97706603D01*
X154096216Y-98338912D01*
X154032632Y-98355950D01*
X153918618Y-98421776D01*
X153825526Y-98514868D01*
X153759700Y-98628882D01*
X153742662Y-98692466D01*
X153152444Y-98102248D01*
X153118959Y-98040925D01*
X153116125Y-98014567D01*
X153116125Y-97381633D01*
X153135810Y-97314594D01*
X153188614Y-97268839D01*
X153257772Y-97258895D01*
X153321328Y-97287920D01*
G37*
%TD.AperFunction*%
%TA.AperFunction,Conductor*%
G36*
X173034459Y-97265451D02*
G01*
X173090392Y-97307323D01*
X173114809Y-97372787D01*
X173115125Y-97381633D01*
X173115125Y-98014567D01*
X173095440Y-98081606D01*
X173078806Y-98102248D01*
X172488587Y-98692466D01*
X172471550Y-98628882D01*
X172405724Y-98514868D01*
X172312632Y-98421776D01*
X172198618Y-98355950D01*
X172135034Y-98338912D01*
X172767341Y-97706603D01*
X172713172Y-97667248D01*
X172713172Y-97667247D01*
X172704125Y-97662638D01*
X172653331Y-97614663D01*
X172636537Y-97546841D01*
X172659076Y-97480707D01*
X172704133Y-97441668D01*
X172713441Y-97436926D01*
X172801721Y-97372787D01*
X172885411Y-97311984D01*
X172885413Y-97311981D01*
X172885417Y-97311979D01*
X172903444Y-97293952D01*
X172964767Y-97260467D01*
X173034459Y-97265451D01*
G37*
%TD.AperFunction*%
%TA.AperFunction,Conductor*%
G36*
X165083313Y-91446331D02*
G01*
X165108137Y-91449299D01*
X165116259Y-91456005D01*
X165126366Y-91458973D01*
X165142735Y-91477864D01*
X165162016Y-91493783D01*
X165165223Y-91503817D01*
X165172121Y-91511777D01*
X165175678Y-91536520D01*
X165183292Y-91560335D01*
X165181390Y-91576241D01*
X165182065Y-91580935D01*
X165179102Y-91595379D01*
X165178941Y-91595976D01*
X165178941Y-91595981D01*
X165178941Y-91754095D01*
X165191878Y-91802375D01*
X165214717Y-91887610D01*
X165218942Y-91919704D01*
X165218942Y-96844875D01*
X165199257Y-96911914D01*
X165146453Y-96957669D01*
X165094942Y-96968875D01*
X164959009Y-96968875D01*
X164939770Y-96970623D01*
X164888432Y-96975288D01*
X164886840Y-96975784D01*
X164726019Y-97025897D01*
X164726017Y-97025897D01*
X164726017Y-97025898D01*
X164708684Y-97036376D01*
X164641129Y-97054211D01*
X164574656Y-97032692D01*
X164556855Y-97017939D01*
X163202444Y-95663527D01*
X163168959Y-95602204D01*
X163166125Y-95575846D01*
X163166125Y-94835778D01*
X163185810Y-94768739D01*
X163238614Y-94722984D01*
X163307772Y-94713040D01*
X163324715Y-94716700D01*
X163390421Y-94735790D01*
X163426444Y-94738625D01*
X163824805Y-94738624D01*
X163860829Y-94735790D01*
X164015018Y-94690994D01*
X164153223Y-94609260D01*
X164266760Y-94495723D01*
X164348494Y-94357518D01*
X164393290Y-94203329D01*
X164396125Y-94167306D01*
X164396124Y-93668945D01*
X164393290Y-93632921D01*
X164348494Y-93478732D01*
X164266760Y-93340527D01*
X164266758Y-93340525D01*
X164266755Y-93340521D01*
X164168023Y-93241789D01*
X164134538Y-93180466D01*
X164139522Y-93110774D01*
X164181394Y-93054841D01*
X164216700Y-93036402D01*
X164315390Y-93003699D01*
X164315395Y-93003697D01*
X164464616Y-92911656D01*
X164588586Y-92787686D01*
X164680627Y-92638465D01*
X164680630Y-92638458D01*
X164733033Y-92480315D01*
X164772805Y-92422870D01*
X164837321Y-92396046D01*
X164860463Y-92395700D01*
X164884333Y-92397577D01*
X164884333Y-91563288D01*
X164904018Y-91496249D01*
X164956822Y-91450494D01*
X165008333Y-91439288D01*
X165059327Y-91439288D01*
X165083313Y-91446331D01*
G37*
%TD.AperFunction*%
%TA.AperFunction,Conductor*%
G36*
X166545145Y-95201083D02*
G01*
X166551623Y-95207115D01*
X166958882Y-95614374D01*
X166958892Y-95614385D01*
X166963222Y-95618715D01*
X166963223Y-95618716D01*
X167075027Y-95730520D01*
X167075029Y-95730521D01*
X167075033Y-95730524D01*
X167195151Y-95799873D01*
X167211959Y-95809577D01*
X167211967Y-95809579D01*
X167217321Y-95811797D01*
X167271727Y-95855635D01*
X167291221Y-95900845D01*
X167293875Y-95913466D01*
X167293875Y-95934879D01*
X167320795Y-96070214D01*
X167333061Y-96099829D01*
X167335435Y-96111115D01*
X167333566Y-96134914D01*
X167336118Y-96158651D01*
X167330882Y-96169109D01*
X167329967Y-96180771D01*
X167315527Y-96199782D01*
X167304842Y-96221129D01*
X167301771Y-96224312D01*
X166965581Y-96560502D01*
X166904260Y-96593986D01*
X166877902Y-96596820D01*
X166699076Y-96596820D01*
X166632037Y-96577135D01*
X166630185Y-96575922D01*
X166571258Y-96536548D01*
X166571246Y-96536541D01*
X166443774Y-96483741D01*
X166443764Y-96483738D01*
X166439750Y-96482940D01*
X166377839Y-96450555D01*
X166343265Y-96389839D01*
X166339942Y-96361323D01*
X166339942Y-95294796D01*
X166359627Y-95227757D01*
X166412431Y-95182002D01*
X166481589Y-95172058D01*
X166545145Y-95201083D01*
G37*
%TD.AperFunction*%
%TA.AperFunction,Conductor*%
G36*
X156455865Y-89159817D02*
G01*
X156499056Y-89214737D01*
X156505700Y-89284290D01*
X156505558Y-89285016D01*
X156496804Y-89329028D01*
X156496804Y-89467014D01*
X156496804Y-89467016D01*
X156496803Y-89467016D01*
X156523722Y-89602343D01*
X156523725Y-89602353D01*
X156576525Y-89729825D01*
X156576532Y-89729838D01*
X156653189Y-89844562D01*
X156653192Y-89844566D01*
X156750758Y-89942132D01*
X156750762Y-89942135D01*
X156865486Y-90018792D01*
X156865495Y-90018797D01*
X156883505Y-90026257D01*
X156937908Y-90070098D01*
X156959973Y-90136392D01*
X156942694Y-90204091D01*
X156923733Y-90228499D01*
X155787806Y-91364427D01*
X155726483Y-91397912D01*
X155656791Y-91392928D01*
X155600858Y-91351056D01*
X155576441Y-91285592D01*
X155576125Y-91276746D01*
X155576125Y-91095588D01*
X155542871Y-90885635D01*
X155542871Y-90885632D01*
X155477182Y-90683463D01*
X155465437Y-90660412D01*
X155395265Y-90522689D01*
X155381750Y-90466395D01*
X155381750Y-90034106D01*
X155401435Y-89967067D01*
X155418065Y-89946429D01*
X156020638Y-89343856D01*
X156020641Y-89343855D01*
X156132445Y-89232051D01*
X156132445Y-89232050D01*
X156137177Y-89227319D01*
X156137190Y-89227311D01*
X156192762Y-89195226D01*
X156298752Y-89166827D01*
X156321939Y-89153439D01*
X156389837Y-89136966D01*
X156455865Y-89159817D01*
G37*
%TD.AperFunction*%
%TA.AperFunction,Conductor*%
G36*
X170734508Y-84186662D02*
G01*
X170749713Y-84186011D01*
X170767351Y-84196306D01*
X170786945Y-84202060D01*
X170797841Y-84214103D01*
X170810055Y-84221233D01*
X170830390Y-84250080D01*
X170850572Y-84289689D01*
X170850573Y-84289690D01*
X170975515Y-84461661D01*
X171125838Y-84611984D01*
X171297804Y-84736923D01*
X171297806Y-84736924D01*
X171297809Y-84736926D01*
X171307118Y-84741669D01*
X171357915Y-84789641D01*
X171374712Y-84857462D01*
X171352177Y-84923597D01*
X171307130Y-84962635D01*
X171298071Y-84967251D01*
X171298065Y-84967255D01*
X171243907Y-85006602D01*
X171243907Y-85006603D01*
X171876216Y-85638912D01*
X171812632Y-85655950D01*
X171698618Y-85721776D01*
X171605526Y-85814868D01*
X171539700Y-85928882D01*
X171522662Y-85992466D01*
X170890353Y-85360157D01*
X170890352Y-85360157D01*
X170851005Y-85414314D01*
X170754529Y-85603657D01*
X170688867Y-85805744D01*
X170688867Y-85805747D01*
X170655625Y-86015628D01*
X170655625Y-86228121D01*
X170688867Y-86438002D01*
X170688867Y-86438005D01*
X170754529Y-86640092D01*
X170851000Y-86829425D01*
X170890353Y-86883591D01*
X171522662Y-86251283D01*
X171539700Y-86314868D01*
X171605526Y-86428882D01*
X171698618Y-86521974D01*
X171812632Y-86587800D01*
X171876215Y-86604837D01*
X171243907Y-87237144D01*
X171243907Y-87237145D01*
X171298077Y-87276501D01*
X171298076Y-87276501D01*
X171307120Y-87281109D01*
X171357917Y-87329083D01*
X171374712Y-87396904D01*
X171352175Y-87463039D01*
X171307124Y-87502077D01*
X171297807Y-87506824D01*
X171125838Y-87631765D01*
X170975515Y-87782088D01*
X170850576Y-87954054D01*
X170754069Y-88143460D01*
X170688378Y-88345635D01*
X170655125Y-88555588D01*
X170655125Y-88768161D01*
X170688037Y-88975964D01*
X170688379Y-88978118D01*
X170749694Y-89166826D01*
X170754069Y-89180289D01*
X170850576Y-89369695D01*
X170975515Y-89541661D01*
X171125838Y-89691984D01*
X171297807Y-89816925D01*
X171306571Y-89821391D01*
X171357367Y-89869366D01*
X171374161Y-89937187D01*
X171351623Y-90003322D01*
X171306571Y-90042359D01*
X171297807Y-90046824D01*
X171125838Y-90171765D01*
X170975515Y-90322088D01*
X170850573Y-90494059D01*
X170850572Y-90494060D01*
X170830390Y-90533670D01*
X170782416Y-90584466D01*
X170719906Y-90601375D01*
X169893250Y-90601375D01*
X169826211Y-90581690D01*
X169780456Y-90528886D01*
X169769250Y-90477375D01*
X169769250Y-90418504D01*
X169742331Y-90283177D01*
X169742330Y-90283176D01*
X169742330Y-90283172D01*
X169719684Y-90228499D01*
X169689528Y-90155695D01*
X169689521Y-90155682D01*
X169650148Y-90096756D01*
X169629270Y-90030078D01*
X169629250Y-90027865D01*
X169629250Y-86012767D01*
X169629250Y-85895183D01*
X169628616Y-85892818D01*
X169591053Y-85752629D01*
X169567719Y-85712213D01*
X169517262Y-85624819D01*
X169460284Y-85567841D01*
X169426799Y-85506518D01*
X169431783Y-85436826D01*
X169460285Y-85392478D01*
X169498435Y-85354328D01*
X169498442Y-85354319D01*
X169580752Y-85215140D01*
X169580754Y-85215135D01*
X169625865Y-85059863D01*
X169625866Y-85059857D01*
X169627511Y-85038945D01*
X168982749Y-85038945D01*
X168953308Y-85030300D01*
X168923322Y-85023777D01*
X168918306Y-85020022D01*
X168915710Y-85019260D01*
X168895068Y-85002626D01*
X168885040Y-84992598D01*
X168851555Y-84931275D01*
X168848721Y-84904917D01*
X168848721Y-84902445D01*
X168855193Y-84880403D01*
X168856539Y-84861583D01*
X168863417Y-84852394D01*
X168868406Y-84835406D01*
X168890406Y-84816342D01*
X168898411Y-84805650D01*
X168906022Y-84802811D01*
X168921210Y-84789651D01*
X168972721Y-84778445D01*
X169451156Y-84778445D01*
X169451172Y-84778446D01*
X169458768Y-84778446D01*
X169616879Y-84778446D01*
X169616882Y-84778446D01*
X169769610Y-84737522D01*
X169858313Y-84686309D01*
X169906541Y-84658465D01*
X170018345Y-84546661D01*
X170018345Y-84546659D01*
X170028546Y-84536459D01*
X170028549Y-84536454D01*
X170346312Y-84218691D01*
X170407634Y-84185209D01*
X170433992Y-84182375D01*
X170719906Y-84182375D01*
X170734508Y-84186662D01*
G37*
%TD.AperFunction*%
%TA.AperFunction,Conductor*%
G36*
X165822951Y-89538828D02*
G01*
X165831790Y-89544055D01*
X165831793Y-89544055D01*
X165831795Y-89544057D01*
X165987187Y-89589203D01*
X165987190Y-89589203D01*
X165987192Y-89589204D01*
X166023495Y-89592061D01*
X166134185Y-89592061D01*
X166142870Y-89594611D01*
X166151832Y-89593323D01*
X166175872Y-89604301D01*
X166201224Y-89611746D01*
X166207151Y-89618586D01*
X166215388Y-89622348D01*
X166229677Y-89644582D01*
X166246979Y-89664550D01*
X166249266Y-89675064D01*
X166253162Y-89681126D01*
X166258185Y-89716061D01*
X166258185Y-89897561D01*
X166238500Y-89964600D01*
X166185696Y-90010355D01*
X166134185Y-90021561D01*
X166077816Y-90021561D01*
X166021608Y-90052253D01*
X165995250Y-90055087D01*
X165797799Y-90055087D01*
X165730760Y-90035402D01*
X165710118Y-90018768D01*
X165700025Y-90008675D01*
X165700017Y-90008669D01*
X165587514Y-89942135D01*
X165560728Y-89926294D01*
X165560727Y-89926293D01*
X165560726Y-89926293D01*
X165560723Y-89926292D01*
X165405330Y-89881145D01*
X165405324Y-89881144D01*
X165369030Y-89878288D01*
X165369023Y-89878288D01*
X165264138Y-89878288D01*
X165255452Y-89875737D01*
X165246491Y-89877026D01*
X165222450Y-89866047D01*
X165197099Y-89858603D01*
X165191171Y-89851762D01*
X165182935Y-89848001D01*
X165168645Y-89825766D01*
X165151344Y-89805799D01*
X165149056Y-89795284D01*
X165145161Y-89789223D01*
X165140138Y-89754288D01*
X165140138Y-89749835D01*
X165159823Y-89682796D01*
X165212627Y-89637041D01*
X165239979Y-89628211D01*
X165241243Y-89627960D01*
X165265387Y-89625587D01*
X165374820Y-89625587D01*
X165374828Y-89625587D01*
X165411131Y-89622730D01*
X165411133Y-89622729D01*
X165411135Y-89622729D01*
X165481282Y-89602349D01*
X165566533Y-89577581D01*
X165632059Y-89538828D01*
X165647960Y-89534478D01*
X165660245Y-89526584D01*
X165695180Y-89521561D01*
X165759833Y-89521561D01*
X165822951Y-89538828D01*
G37*
%TD.AperFunction*%
%TA.AperFunction,Conductor*%
G36*
X155340894Y-86883591D02*
G01*
X155377458Y-86880714D01*
X155445835Y-86895078D01*
X155483042Y-86925669D01*
X155484991Y-86928044D01*
X155582555Y-87025608D01*
X155582559Y-87025611D01*
X155697283Y-87102268D01*
X155697296Y-87102275D01*
X155824768Y-87155075D01*
X155824773Y-87155077D01*
X155824777Y-87155077D01*
X155824778Y-87155078D01*
X155960105Y-87181997D01*
X155960108Y-87181997D01*
X156098095Y-87181997D01*
X156119015Y-87177835D01*
X156151222Y-87171429D01*
X156169336Y-87173049D01*
X156187199Y-87169607D01*
X156203416Y-87176099D01*
X156220813Y-87177656D01*
X156235176Y-87188813D01*
X156252064Y-87195574D01*
X156262195Y-87209802D01*
X156275991Y-87220518D01*
X156282042Y-87237672D01*
X156292593Y-87252488D01*
X156293424Y-87269934D01*
X156299236Y-87286408D01*
X156295053Y-87304110D01*
X156295919Y-87322278D01*
X156283329Y-87353727D01*
X156283169Y-87354405D01*
X156282802Y-87355044D01*
X156250891Y-87410318D01*
X156243194Y-87423650D01*
X156201923Y-87495133D01*
X156160999Y-87647861D01*
X156160999Y-87647863D01*
X156160999Y-87683129D01*
X156152354Y-87712569D01*
X156145831Y-87742556D01*
X156142076Y-87747571D01*
X156141314Y-87750168D01*
X156124680Y-87770810D01*
X156096161Y-87799329D01*
X156063794Y-87820957D01*
X156064189Y-87821642D01*
X156057154Y-87825703D01*
X156057152Y-87825704D01*
X155990082Y-87864426D01*
X155920217Y-87904762D01*
X155841375Y-87983603D01*
X155833056Y-87989023D01*
X155829249Y-87994245D01*
X155811902Y-88002806D01*
X155798487Y-88011548D01*
X155792243Y-88013966D01*
X155666455Y-88047673D01*
X155632211Y-88067444D01*
X155587374Y-88093330D01*
X155578446Y-88096789D01*
X155552781Y-88098949D01*
X155527752Y-88105021D01*
X155518538Y-88101832D01*
X155508823Y-88102650D01*
X155486065Y-88090593D01*
X155461726Y-88082169D01*
X155454627Y-88073936D01*
X155447083Y-88069940D01*
X155439396Y-88056275D01*
X155423169Y-88037457D01*
X155409968Y-88011548D01*
X155380676Y-87954059D01*
X155380674Y-87954056D01*
X155380673Y-87954054D01*
X155255734Y-87782088D01*
X155105411Y-87631765D01*
X154933442Y-87506824D01*
X154924129Y-87502079D01*
X154873332Y-87454105D01*
X154856537Y-87386284D01*
X154879074Y-87320149D01*
X154924132Y-87281107D01*
X154933180Y-87276497D01*
X154987341Y-87237145D01*
X154987342Y-87237145D01*
X154355033Y-86604837D01*
X154418618Y-86587800D01*
X154532632Y-86521974D01*
X154625724Y-86428882D01*
X154691550Y-86314868D01*
X154708587Y-86251283D01*
X155340894Y-86883591D01*
G37*
%TD.AperFunction*%
%TA.AperFunction,Conductor*%
G36*
X173078806Y-86841502D02*
G01*
X173112291Y-86902825D01*
X173115125Y-86929183D01*
X173115125Y-87562117D01*
X173095440Y-87629156D01*
X173042636Y-87674911D01*
X172973478Y-87684855D01*
X172909922Y-87655830D01*
X172903444Y-87649798D01*
X172885411Y-87631765D01*
X172713442Y-87506824D01*
X172704129Y-87502079D01*
X172653332Y-87454105D01*
X172636537Y-87386284D01*
X172659074Y-87320149D01*
X172704132Y-87281107D01*
X172713180Y-87276497D01*
X172767341Y-87237145D01*
X172767342Y-87237145D01*
X172135033Y-86604837D01*
X172198618Y-86587800D01*
X172312632Y-86521974D01*
X172405724Y-86428882D01*
X172471550Y-86314868D01*
X172488587Y-86251283D01*
X173078806Y-86841502D01*
G37*
%TD.AperFunction*%
%TA.AperFunction,Conductor*%
G36*
X153759700Y-86314868D02*
G01*
X153825526Y-86428882D01*
X153918618Y-86521974D01*
X154032632Y-86587800D01*
X154096215Y-86604837D01*
X153463907Y-87237144D01*
X153463907Y-87237145D01*
X153518077Y-87276501D01*
X153518076Y-87276501D01*
X153527120Y-87281109D01*
X153577917Y-87329083D01*
X153594712Y-87396904D01*
X153572175Y-87463039D01*
X153527124Y-87502077D01*
X153517807Y-87506824D01*
X153345838Y-87631765D01*
X153345834Y-87631769D01*
X153327806Y-87649798D01*
X153266483Y-87683283D01*
X153196791Y-87678299D01*
X153140858Y-87636427D01*
X153116441Y-87570963D01*
X153116125Y-87562117D01*
X153116125Y-86929183D01*
X153135810Y-86862144D01*
X153152444Y-86841502D01*
X153742662Y-86251283D01*
X153759700Y-86314868D01*
G37*
%TD.AperFunction*%
%TA.AperFunction,Conductor*%
G36*
X153321328Y-84587920D02*
G01*
X153327806Y-84593952D01*
X153345838Y-84611984D01*
X153517804Y-84736923D01*
X153517806Y-84736924D01*
X153517809Y-84736926D01*
X153527118Y-84741669D01*
X153577915Y-84789641D01*
X153594712Y-84857462D01*
X153572177Y-84923597D01*
X153527130Y-84962635D01*
X153518071Y-84967251D01*
X153518065Y-84967255D01*
X153463907Y-85006602D01*
X153463907Y-85006603D01*
X154096216Y-85638912D01*
X154032632Y-85655950D01*
X153918618Y-85721776D01*
X153825526Y-85814868D01*
X153759700Y-85928882D01*
X153742662Y-85992466D01*
X153152444Y-85402248D01*
X153118959Y-85340925D01*
X153116125Y-85314567D01*
X153116125Y-84681633D01*
X153135810Y-84614594D01*
X153188614Y-84568839D01*
X153257772Y-84558895D01*
X153321328Y-84587920D01*
G37*
%TD.AperFunction*%
%TA.AperFunction,Conductor*%
G36*
X173034459Y-84565451D02*
G01*
X173090392Y-84607323D01*
X173114809Y-84672787D01*
X173115125Y-84681633D01*
X173115125Y-85314567D01*
X173095440Y-85381606D01*
X173078806Y-85402248D01*
X172488587Y-85992466D01*
X172471550Y-85928882D01*
X172405724Y-85814868D01*
X172312632Y-85721776D01*
X172198618Y-85655950D01*
X172135034Y-85638912D01*
X172767341Y-85006603D01*
X172713172Y-84967248D01*
X172713172Y-84967247D01*
X172704125Y-84962638D01*
X172653331Y-84914663D01*
X172636537Y-84846841D01*
X172659076Y-84780707D01*
X172704133Y-84741668D01*
X172713441Y-84736926D01*
X172801721Y-84672787D01*
X172885411Y-84611984D01*
X172885413Y-84611981D01*
X172885417Y-84611979D01*
X172903444Y-84593952D01*
X172964767Y-84560467D01*
X173034459Y-84565451D01*
G37*
%TD.AperFunction*%
%TA.AperFunction,Conductor*%
G36*
X162631532Y-81565859D02*
G01*
X162652049Y-81565308D01*
X162666065Y-81573371D01*
X162679751Y-81576349D01*
X162708005Y-81597500D01*
X162742865Y-81632360D01*
X162742875Y-81632371D01*
X162747205Y-81636701D01*
X162747206Y-81636702D01*
X162859010Y-81748506D01*
X162859012Y-81748507D01*
X162859016Y-81748510D01*
X162969656Y-81812387D01*
X162995942Y-81827563D01*
X163098264Y-81854980D01*
X163148668Y-81868486D01*
X163148669Y-81868486D01*
X164117518Y-81868486D01*
X164179657Y-81886732D01*
X164180107Y-81885891D01*
X164184147Y-81888050D01*
X164184557Y-81888171D01*
X164185375Y-81888707D01*
X164185478Y-81888762D01*
X164312955Y-81941564D01*
X164312960Y-81941566D01*
X164312964Y-81941566D01*
X164312965Y-81941567D01*
X164448292Y-81968486D01*
X164448295Y-81968486D01*
X164586283Y-81968486D01*
X164677329Y-81950375D01*
X164721616Y-81941566D01*
X164818328Y-81901506D01*
X164887794Y-81894038D01*
X164950273Y-81925313D01*
X164980339Y-81968614D01*
X164994323Y-82002374D01*
X164994326Y-82002380D01*
X165081927Y-82133483D01*
X165081930Y-82133487D01*
X165193424Y-82244981D01*
X165193428Y-82244984D01*
X165324531Y-82332585D01*
X165324544Y-82332592D01*
X165392678Y-82360813D01*
X165470220Y-82392932D01*
X165521606Y-82403153D01*
X165543417Y-82414562D01*
X165566866Y-82422045D01*
X165573830Y-82430470D01*
X165583515Y-82435537D01*
X165595694Y-82456924D01*
X165611378Y-82475900D01*
X165615729Y-82492106D01*
X165618090Y-82496252D01*
X165620530Y-82509987D01*
X165626186Y-82557092D01*
X165626186Y-82586658D01*
X165624190Y-82603283D01*
X165615125Y-82678773D01*
X165615125Y-82864977D01*
X165620847Y-82912629D01*
X165626186Y-82957092D01*
X165626186Y-82986659D01*
X165615958Y-83071834D01*
X165588421Y-83136048D01*
X165580524Y-83144730D01*
X165522097Y-83203158D01*
X165522093Y-83203162D01*
X165473685Y-83251569D01*
X165416853Y-83282600D01*
X165417131Y-83283516D01*
X165412733Y-83284850D01*
X165412362Y-83285053D01*
X165411413Y-83285250D01*
X165411294Y-83285286D01*
X165283820Y-83338087D01*
X165283807Y-83338094D01*
X165169083Y-83414751D01*
X165169079Y-83414754D01*
X165071513Y-83512320D01*
X165071510Y-83512324D01*
X164994853Y-83627048D01*
X164994846Y-83627061D01*
X164942046Y-83754533D01*
X164942043Y-83754543D01*
X164915125Y-83889870D01*
X164915125Y-83889873D01*
X164915125Y-84027859D01*
X164915125Y-84027861D01*
X164915124Y-84027861D01*
X164942043Y-84163188D01*
X164942046Y-84163198D01*
X164994846Y-84290670D01*
X164994853Y-84290683D01*
X165071510Y-84405407D01*
X165071513Y-84405411D01*
X165169079Y-84502977D01*
X165169084Y-84502981D01*
X165173220Y-84505745D01*
X165218023Y-84559359D01*
X165226729Y-84628684D01*
X165196572Y-84691710D01*
X165192009Y-84696524D01*
X165175214Y-84713319D01*
X165175210Y-84713324D01*
X165098553Y-84828048D01*
X165098546Y-84828061D01*
X165045746Y-84955533D01*
X165045743Y-84955543D01*
X165018825Y-85090870D01*
X165018825Y-85110453D01*
X164999140Y-85177492D01*
X164946336Y-85223247D01*
X164877178Y-85233191D01*
X164855824Y-85227334D01*
X164855680Y-85227810D01*
X164849847Y-85226040D01*
X164714520Y-85199122D01*
X164714518Y-85199122D01*
X164576532Y-85199122D01*
X164576530Y-85199122D01*
X164441202Y-85226040D01*
X164441196Y-85226042D01*
X164313717Y-85278845D01*
X164313707Y-85278851D01*
X164308879Y-85282077D01*
X164293392Y-85286924D01*
X164280142Y-85296291D01*
X164260735Y-85297147D01*
X164242200Y-85302950D01*
X164225827Y-85298688D01*
X164210340Y-85299372D01*
X164188933Y-85289084D01*
X164177620Y-85286140D01*
X164169373Y-85281340D01*
X164168250Y-85280217D01*
X164068022Y-85222351D01*
X164067856Y-85222255D01*
X164067720Y-85222176D01*
X164031317Y-85201159D01*
X163975415Y-85186180D01*
X163878591Y-85160236D01*
X163720477Y-85160236D01*
X163712881Y-85160236D01*
X163712865Y-85160237D01*
X162073244Y-85160237D01*
X162057755Y-85156087D01*
X162044012Y-85156742D01*
X162011246Y-85143625D01*
X162003713Y-85139276D01*
X162003712Y-85139275D01*
X161958721Y-85113299D01*
X161958720Y-85113298D01*
X161847458Y-85083485D01*
X161805990Y-85072374D01*
X161805989Y-85072374D01*
X161800686Y-85070953D01*
X161741026Y-85034587D01*
X161711163Y-84975369D01*
X161699087Y-84914663D01*
X161696797Y-84903149D01*
X161682230Y-84867980D01*
X161643995Y-84775672D01*
X161643988Y-84775659D01*
X161567331Y-84660935D01*
X161567328Y-84660931D01*
X161472830Y-84566433D01*
X161439345Y-84505110D01*
X161436511Y-84478752D01*
X161436511Y-83771711D01*
X161433299Y-83759726D01*
X161432841Y-83758016D01*
X161398314Y-83629157D01*
X161397100Y-83627055D01*
X161324523Y-83501347D01*
X161220166Y-83396990D01*
X161220165Y-83396989D01*
X161215835Y-83392659D01*
X161215824Y-83392649D01*
X161112257Y-83289082D01*
X161078772Y-83227759D01*
X161075938Y-83201401D01*
X161075938Y-82116088D01*
X161095623Y-82049049D01*
X161112257Y-82028407D01*
X161331970Y-81808694D01*
X161393293Y-81775209D01*
X161419651Y-81772375D01*
X161593217Y-81772375D01*
X161640670Y-81781814D01*
X161645894Y-81783978D01*
X161645896Y-81783979D01*
X161773379Y-81836784D01*
X161773383Y-81836784D01*
X161773384Y-81836785D01*
X161908711Y-81863704D01*
X161908714Y-81863704D01*
X162046702Y-81863704D01*
X162137748Y-81845593D01*
X162182035Y-81836784D01*
X162309518Y-81783979D01*
X162424249Y-81707318D01*
X162521821Y-81609746D01*
X162521824Y-81609740D01*
X162524463Y-81606526D01*
X162536955Y-81598014D01*
X162546014Y-81585914D01*
X162565242Y-81578741D01*
X162582204Y-81567186D01*
X162597314Y-81566779D01*
X162611478Y-81561497D01*
X162631532Y-81565859D01*
G37*
%TD.AperFunction*%
%TA.AperFunction,Conductor*%
G36*
X169373525Y-70340562D02*
G01*
X169428702Y-70383424D01*
X169451947Y-70449314D01*
X169452125Y-70455952D01*
X169452125Y-77690231D01*
X169432440Y-77757270D01*
X169379636Y-77803025D01*
X169310478Y-77812969D01*
X169303934Y-77811848D01*
X169147595Y-77780750D01*
X169147592Y-77780750D01*
X168989908Y-77780750D01*
X168989905Y-77780750D01*
X168835260Y-77811511D01*
X168835248Y-77811514D01*
X168689577Y-77871852D01*
X168689564Y-77871859D01*
X168558461Y-77959460D01*
X168558457Y-77959463D01*
X168446967Y-78070954D01*
X168446959Y-78070962D01*
X168435697Y-78087816D01*
X168435685Y-78087835D01*
X168359356Y-78202071D01*
X168332272Y-78267456D01*
X168332270Y-78267461D01*
X168299013Y-78347751D01*
X168299010Y-78347761D01*
X168268250Y-78502403D01*
X168268250Y-78660090D01*
X168289146Y-78765145D01*
X168288438Y-78773050D01*
X168291212Y-78780485D01*
X168285369Y-78807348D01*
X168282918Y-78834737D01*
X168277670Y-78842745D01*
X168276362Y-78848759D01*
X168255212Y-78877014D01*
X168241875Y-78890351D01*
X168180555Y-78923838D01*
X168154192Y-78926673D01*
X167968790Y-78926673D01*
X167901751Y-78906988D01*
X167855996Y-78854184D01*
X167844790Y-78802673D01*
X167844790Y-78147883D01*
X167838048Y-78141651D01*
X167793084Y-78132205D01*
X167745000Y-78086072D01*
X167709481Y-78026011D01*
X167709476Y-78026005D01*
X167595145Y-77911674D01*
X167595136Y-77911667D01*
X167455957Y-77829357D01*
X167455952Y-77829355D01*
X167300680Y-77784244D01*
X167300674Y-77784243D01*
X167279762Y-77782598D01*
X167279762Y-78437389D01*
X167260077Y-78504428D01*
X167207273Y-78550183D01*
X167155762Y-78561389D01*
X166903762Y-78561389D01*
X166836723Y-78541704D01*
X166790968Y-78488900D01*
X166779762Y-78437389D01*
X166779762Y-77782599D01*
X166742605Y-77748252D01*
X166707699Y-77691789D01*
X166699755Y-77664446D01*
X166617445Y-77525267D01*
X166617438Y-77525258D01*
X166503107Y-77410927D01*
X166503098Y-77410920D01*
X166363919Y-77328610D01*
X166363914Y-77328608D01*
X166220422Y-77286920D01*
X166216419Y-77284363D01*
X166211683Y-77284025D01*
X166187255Y-77265739D01*
X166161536Y-77249314D01*
X166159551Y-77245000D01*
X166155749Y-77242154D01*
X166145085Y-77213563D01*
X166132330Y-77185842D01*
X166132992Y-77181138D01*
X166131333Y-77176689D01*
X166137819Y-77146870D01*
X166142076Y-77116655D01*
X166145454Y-77111774D01*
X166146185Y-77108416D01*
X166167330Y-77080169D01*
X166234683Y-77012816D01*
X166296005Y-76979334D01*
X166322362Y-76976500D01*
X167333291Y-76976500D01*
X167333307Y-76976501D01*
X167340903Y-76976501D01*
X167499014Y-76976501D01*
X167499017Y-76976501D01*
X167651745Y-76935577D01*
X167732593Y-76888899D01*
X167788676Y-76856520D01*
X167900480Y-76744716D01*
X167900480Y-76744715D01*
X167916077Y-76729119D01*
X167977400Y-76695634D01*
X168003758Y-76692800D01*
X168079587Y-76692800D01*
X168079590Y-76692800D01*
X168232318Y-76651876D01*
X168288826Y-76619251D01*
X168288827Y-76619251D01*
X168369242Y-76572823D01*
X168369241Y-76572823D01*
X168369249Y-76572819D01*
X168481053Y-76461015D01*
X168481053Y-76461013D01*
X168491256Y-76450811D01*
X168491260Y-76450805D01*
X168553801Y-76388265D01*
X168553806Y-76388261D01*
X168564009Y-76378057D01*
X168564011Y-76378057D01*
X168675815Y-76266253D01*
X168736258Y-76161562D01*
X168754872Y-76129322D01*
X168795795Y-75976594D01*
X168795795Y-75818480D01*
X168795795Y-73800752D01*
X168795795Y-73567038D01*
X168795795Y-70477519D01*
X168815480Y-70410480D01*
X168868284Y-70364725D01*
X168937442Y-70354781D01*
X168943987Y-70355902D01*
X168990905Y-70365235D01*
X168990908Y-70365235D01*
X169148594Y-70365235D01*
X169214126Y-70352199D01*
X169303247Y-70334472D01*
X169303249Y-70334470D01*
X169303933Y-70334335D01*
X169373525Y-70340562D01*
G37*
%TD.AperFunction*%
%TA.AperFunction,Conductor*%
G36*
X163903601Y-73196336D02*
G01*
X163924243Y-73212970D01*
X164649467Y-73938194D01*
X164664170Y-73965121D01*
X164680763Y-73990940D01*
X164681654Y-73997140D01*
X164682952Y-73999517D01*
X164685786Y-74025875D01*
X164685786Y-74080444D01*
X164666101Y-74147483D01*
X164613297Y-74193238D01*
X164544139Y-74203182D01*
X164527193Y-74199521D01*
X164510974Y-74194809D01*
X164510971Y-74194808D01*
X164490059Y-74193163D01*
X164490059Y-74847954D01*
X164470374Y-74914993D01*
X164417570Y-74960748D01*
X164366059Y-74971954D01*
X164114059Y-74971954D01*
X164047020Y-74952269D01*
X164001265Y-74899465D01*
X163990059Y-74847954D01*
X163990059Y-74193164D01*
X163990058Y-74193163D01*
X163969146Y-74194808D01*
X163815392Y-74239478D01*
X163746203Y-74239478D01*
X163584953Y-74192631D01*
X163584956Y-74192631D01*
X163564044Y-74190986D01*
X163564044Y-74845777D01*
X163544359Y-74912816D01*
X163491555Y-74958571D01*
X163440044Y-74969777D01*
X163314044Y-74969777D01*
X163314044Y-75025277D01*
X163294359Y-75092316D01*
X163241555Y-75138071D01*
X163190044Y-75149277D01*
X163079346Y-75149277D01*
X163043052Y-75152133D01*
X163043046Y-75152134D01*
X162887654Y-75197281D01*
X162887645Y-75197285D01*
X162876438Y-75203912D01*
X162808713Y-75221090D01*
X162762943Y-75207652D01*
X162762029Y-75209767D01*
X162754863Y-75206666D01*
X162599469Y-75161519D01*
X162599463Y-75161518D01*
X162563169Y-75158662D01*
X162563162Y-75158662D01*
X162093782Y-75158662D01*
X162093774Y-75158662D01*
X162057480Y-75161518D01*
X162057474Y-75161519D01*
X161902082Y-75206665D01*
X161902077Y-75206668D01*
X161893238Y-75211894D01*
X161830120Y-75229162D01*
X161523967Y-75229162D01*
X161522880Y-75230609D01*
X161522827Y-75248876D01*
X161527256Y-75271854D01*
X161522729Y-75283161D01*
X161522694Y-75295342D01*
X161509986Y-75314991D01*
X161501288Y-75336719D01*
X161491365Y-75343784D01*
X161484751Y-75354012D01*
X161463437Y-75363671D01*
X161444373Y-75377247D01*
X161432205Y-75377826D01*
X161421112Y-75382854D01*
X161397957Y-75379457D01*
X161374583Y-75380570D01*
X161356674Y-75373400D01*
X161351983Y-75372712D01*
X161341817Y-75367452D01*
X161313710Y-75351224D01*
X161265495Y-75300657D01*
X161252772Y-75260025D01*
X161244727Y-75198907D01*
X161187997Y-75061950D01*
X161097754Y-74944343D01*
X161065712Y-74919756D01*
X161024510Y-74863331D01*
X161020355Y-74793585D01*
X161022115Y-74786815D01*
X161050518Y-74689054D01*
X161053375Y-74652751D01*
X161053375Y-74200650D01*
X161073060Y-74133611D01*
X161125864Y-74087856D01*
X161177375Y-74076650D01*
X161737276Y-74076650D01*
X161804315Y-74096335D01*
X161850070Y-74149139D01*
X161860014Y-74218297D01*
X161830989Y-74281853D01*
X161800397Y-74307382D01*
X161763096Y-74329441D01*
X161763088Y-74329447D01*
X161648757Y-74443778D01*
X161648750Y-74443787D01*
X161566440Y-74582966D01*
X161523968Y-74729162D01*
X162396436Y-74729162D01*
X162408433Y-74722611D01*
X162434791Y-74719777D01*
X163064044Y-74719777D01*
X163064044Y-74190987D01*
X163044918Y-74173307D01*
X163042937Y-74172891D01*
X162993187Y-74123833D01*
X162977858Y-74055665D01*
X163001817Y-73990032D01*
X163044187Y-73953739D01*
X163116726Y-73915849D01*
X163274428Y-73787260D01*
X163403017Y-73629558D01*
X163497228Y-73449200D01*
X163549493Y-73266538D01*
X163563846Y-73243862D01*
X163574996Y-73219448D01*
X163582249Y-73214786D01*
X163586860Y-73207502D01*
X163611194Y-73196184D01*
X163633774Y-73181674D01*
X163646254Y-73179879D01*
X163650214Y-73178038D01*
X163668709Y-73176651D01*
X163836562Y-73176651D01*
X163903601Y-73196336D01*
G37*
%TD.AperFunction*%
%TA.AperFunction,Conductor*%
G36*
X173078806Y-74141502D02*
G01*
X173112291Y-74202825D01*
X173115125Y-74229183D01*
X173115125Y-74862117D01*
X173095440Y-74929156D01*
X173042636Y-74974911D01*
X172973478Y-74984855D01*
X172909922Y-74955830D01*
X172903444Y-74949798D01*
X172885411Y-74931765D01*
X172713442Y-74806824D01*
X172704129Y-74802079D01*
X172653332Y-74754105D01*
X172636537Y-74686284D01*
X172659074Y-74620149D01*
X172704132Y-74581107D01*
X172713180Y-74576497D01*
X172767341Y-74537145D01*
X172767342Y-74537145D01*
X172135034Y-73904837D01*
X172198618Y-73887800D01*
X172312632Y-73821974D01*
X172405724Y-73728882D01*
X172471550Y-73614868D01*
X172488587Y-73551283D01*
X173078806Y-74141502D01*
G37*
%TD.AperFunction*%
%TA.AperFunction,Conductor*%
G36*
X153759700Y-73614868D02*
G01*
X153825526Y-73728882D01*
X153918618Y-73821974D01*
X154032632Y-73887800D01*
X154096214Y-73904837D01*
X153463907Y-74537144D01*
X153463907Y-74537145D01*
X153518077Y-74576501D01*
X153518076Y-74576501D01*
X153527120Y-74581109D01*
X153577917Y-74629083D01*
X153594712Y-74696904D01*
X153572175Y-74763039D01*
X153527124Y-74802077D01*
X153517807Y-74806824D01*
X153345838Y-74931765D01*
X153345834Y-74931769D01*
X153327806Y-74949798D01*
X153266483Y-74983283D01*
X153196791Y-74978299D01*
X153140858Y-74936427D01*
X153116441Y-74870963D01*
X153116125Y-74862117D01*
X153116125Y-74229183D01*
X153135810Y-74162144D01*
X153152444Y-74141502D01*
X153742662Y-73551283D01*
X153759700Y-73614868D01*
G37*
%TD.AperFunction*%
%TA.AperFunction,Conductor*%
G36*
X160103970Y-67447745D02*
G01*
X160109966Y-67454665D01*
X160165596Y-67523872D01*
X160165597Y-67523873D01*
X160314023Y-67643181D01*
X160314026Y-67643183D01*
X160490649Y-67730779D01*
X160489700Y-67732690D01*
X160537716Y-67768264D01*
X160562458Y-67833607D01*
X160562819Y-67843066D01*
X160562819Y-70951651D01*
X160543134Y-71018690D01*
X160490330Y-71064445D01*
X160438819Y-71075651D01*
X159705290Y-71075651D01*
X159705284Y-71075651D01*
X159705283Y-71075652D01*
X159693635Y-71076687D01*
X159585903Y-71086264D01*
X159390273Y-71142240D01*
X159334122Y-71171571D01*
X159209912Y-71236453D01*
X159209910Y-71236454D01*
X159209909Y-71236455D01*
X159052209Y-71365041D01*
X158923623Y-71522741D01*
X158829408Y-71703105D01*
X158812652Y-71761667D01*
X158777145Y-71885762D01*
X158773433Y-71898734D01*
X158773432Y-71898737D01*
X158762819Y-72018117D01*
X158762819Y-73105310D01*
X158743134Y-73172349D01*
X158690330Y-73218104D01*
X158670917Y-73225083D01*
X158587320Y-73247484D01*
X158587319Y-73247484D01*
X158587317Y-73247485D01*
X158587313Y-73247487D01*
X158450394Y-73326536D01*
X158450386Y-73326542D01*
X158338584Y-73438344D01*
X158338584Y-73438345D01*
X158338582Y-73438347D01*
X158289228Y-73487701D01*
X158254118Y-73522811D01*
X158192794Y-73556295D01*
X158166438Y-73559129D01*
X158047367Y-73559129D01*
X158047343Y-73559130D01*
X158011330Y-73561964D01*
X157857147Y-73606758D01*
X157857140Y-73606761D01*
X157799655Y-73640757D01*
X157731931Y-73657938D01*
X157673417Y-73640757D01*
X157615931Y-73606761D01*
X157615924Y-73606758D01*
X157461744Y-73561964D01*
X157461738Y-73561963D01*
X157425717Y-73559129D01*
X157027366Y-73559129D01*
X157027344Y-73559130D01*
X156991330Y-73561964D01*
X156837147Y-73606758D01*
X156837138Y-73606762D01*
X156798327Y-73629715D01*
X156730603Y-73646898D01*
X156664341Y-73624738D01*
X156620578Y-73570271D01*
X156611207Y-73522983D01*
X156611207Y-71435369D01*
X157036707Y-71435369D01*
X157085015Y-71435369D01*
X157085029Y-71435368D01*
X157184314Y-71425225D01*
X157345188Y-71371917D01*
X157345199Y-71371912D01*
X157489435Y-71282945D01*
X157489439Y-71282942D01*
X157609279Y-71163102D01*
X157609282Y-71163098D01*
X157698249Y-71018862D01*
X157698254Y-71018851D01*
X157751562Y-70857976D01*
X157761706Y-70758692D01*
X157761707Y-70758679D01*
X157761707Y-70735370D01*
X157036707Y-70735370D01*
X157036707Y-71435369D01*
X156611207Y-71435369D01*
X156611207Y-70609370D01*
X156630892Y-70542331D01*
X156683696Y-70496576D01*
X156735207Y-70485370D01*
X156786707Y-70485370D01*
X156786707Y-70359370D01*
X156806392Y-70292331D01*
X156859196Y-70246576D01*
X156910707Y-70235370D01*
X157761706Y-70235370D01*
X157761706Y-70212062D01*
X157761705Y-70212047D01*
X157751562Y-70112762D01*
X157698254Y-69951888D01*
X157698249Y-69951877D01*
X157609282Y-69807641D01*
X157609279Y-69807637D01*
X157600046Y-69798404D01*
X157566561Y-69737081D01*
X157571545Y-69667389D01*
X157600050Y-69623038D01*
X157609675Y-69613414D01*
X157698710Y-69469067D01*
X157752056Y-69308078D01*
X157762207Y-69208715D01*
X157762206Y-68662026D01*
X157752056Y-68562662D01*
X157698710Y-68401673D01*
X157698709Y-68401672D01*
X157696438Y-68394817D01*
X157698367Y-68394177D01*
X157689395Y-68335132D01*
X157717910Y-68271346D01*
X157724576Y-68264127D01*
X158196147Y-67792556D01*
X158257468Y-67759073D01*
X158313753Y-67759905D01*
X158369421Y-67773749D01*
X158369422Y-67773749D01*
X158369430Y-67773751D01*
X158412196Y-67776651D01*
X159314441Y-67776650D01*
X159357208Y-67773751D01*
X159542012Y-67727792D01*
X159712615Y-67643181D01*
X159861041Y-67523873D01*
X159916672Y-67454665D01*
X159974015Y-67414746D01*
X160043837Y-67412166D01*
X160103970Y-67447745D01*
G37*
%TD.AperFunction*%
%TA.AperFunction,Conductor*%
G36*
X153321328Y-71887920D02*
G01*
X153327806Y-71893952D01*
X153345838Y-71911984D01*
X153517804Y-72036923D01*
X153517806Y-72036924D01*
X153517809Y-72036926D01*
X153527118Y-72041669D01*
X153577915Y-72089641D01*
X153594712Y-72157462D01*
X153572177Y-72223597D01*
X153527130Y-72262635D01*
X153518071Y-72267251D01*
X153518065Y-72267255D01*
X153463907Y-72306602D01*
X153463907Y-72306603D01*
X154096216Y-72938912D01*
X154032632Y-72955950D01*
X153918618Y-73021776D01*
X153825526Y-73114868D01*
X153759700Y-73228882D01*
X153742662Y-73292466D01*
X153152444Y-72702248D01*
X153118959Y-72640925D01*
X153116125Y-72614567D01*
X153116125Y-71981633D01*
X153135810Y-71914594D01*
X153188614Y-71868839D01*
X153257772Y-71858895D01*
X153321328Y-71887920D01*
G37*
%TD.AperFunction*%
%TA.AperFunction,Conductor*%
G36*
X173034459Y-71865451D02*
G01*
X173090392Y-71907323D01*
X173114809Y-71972787D01*
X173115125Y-71981633D01*
X173115125Y-72614567D01*
X173095440Y-72681606D01*
X173078806Y-72702248D01*
X172488587Y-73292466D01*
X172471550Y-73228882D01*
X172405724Y-73114868D01*
X172312632Y-73021776D01*
X172198618Y-72955950D01*
X172135032Y-72938911D01*
X172767341Y-72306603D01*
X172713172Y-72267248D01*
X172713172Y-72267247D01*
X172704125Y-72262638D01*
X172653331Y-72214663D01*
X172636537Y-72146841D01*
X172659076Y-72080707D01*
X172704133Y-72041668D01*
X172713441Y-72036926D01*
X172824874Y-71955966D01*
X172885411Y-71911984D01*
X172885413Y-71911981D01*
X172885417Y-71911979D01*
X172903444Y-71893952D01*
X172964767Y-71860467D01*
X173034459Y-71865451D01*
G37*
%TD.AperFunction*%
%TA.AperFunction,Conductor*%
G36*
X166830271Y-68447605D02*
G01*
X166836749Y-68453637D01*
X167108476Y-68725364D01*
X167141961Y-68786687D01*
X167144795Y-68813045D01*
X167144795Y-72956134D01*
X167137904Y-72979599D01*
X167135222Y-73003909D01*
X167128235Y-73012529D01*
X167125110Y-73023173D01*
X167106629Y-73039186D01*
X167091228Y-73058189D01*
X167080689Y-73061663D01*
X167072306Y-73068928D01*
X167048100Y-73072408D01*
X167024872Y-73080067D01*
X167011611Y-73077655D01*
X167003148Y-73078872D01*
X166989791Y-73076195D01*
X166981371Y-73074020D01*
X166920997Y-73049013D01*
X166766342Y-73018250D01*
X166765401Y-73018250D01*
X166758837Y-73016555D01*
X166731728Y-73000367D01*
X166703738Y-72985726D01*
X166702160Y-72984175D01*
X165932491Y-72214506D01*
X165932489Y-72214503D01*
X165813618Y-72095632D01*
X165813617Y-72095631D01*
X165711936Y-72036926D01*
X165711935Y-72036925D01*
X165686130Y-72022027D01*
X165676686Y-72016574D01*
X165676685Y-72016573D01*
X165676684Y-72016573D01*
X165620782Y-72001594D01*
X165523958Y-71975650D01*
X165365844Y-71975650D01*
X165358248Y-71975650D01*
X165358232Y-71975651D01*
X164215720Y-71975651D01*
X164215716Y-71975650D01*
X164057602Y-71975650D01*
X164057598Y-71975651D01*
X163668709Y-71975651D01*
X163601670Y-71955966D01*
X163555915Y-71903162D01*
X163549495Y-71885768D01*
X163497228Y-71703102D01*
X163403017Y-71522744D01*
X163322422Y-71423902D01*
X163295313Y-71359505D01*
X163307322Y-71290676D01*
X163330840Y-71257863D01*
X164030352Y-70558351D01*
X164674570Y-70558351D01*
X164684713Y-70657636D01*
X164738021Y-70818510D01*
X164738026Y-70818521D01*
X164826993Y-70962757D01*
X164826996Y-70962761D01*
X164946836Y-71082601D01*
X164946840Y-71082604D01*
X165091076Y-71171571D01*
X165091087Y-71171576D01*
X165251962Y-71224884D01*
X165351252Y-71235028D01*
X165899569Y-71235028D01*
X165947877Y-71235028D01*
X165947891Y-71235027D01*
X166047176Y-71224884D01*
X166208050Y-71171576D01*
X166208061Y-71171571D01*
X166352297Y-71082604D01*
X166352301Y-71082601D01*
X166472141Y-70962761D01*
X166472144Y-70962757D01*
X166561111Y-70818521D01*
X166561116Y-70818510D01*
X166614424Y-70657635D01*
X166624568Y-70558351D01*
X166624569Y-70558338D01*
X166624569Y-70535029D01*
X165899569Y-70535029D01*
X165899569Y-71235028D01*
X165351252Y-71235028D01*
X165399568Y-71235027D01*
X165399569Y-71235027D01*
X165399569Y-70535029D01*
X164674570Y-70535029D01*
X164674570Y-70558351D01*
X164030352Y-70558351D01*
X164526444Y-70062259D01*
X164587763Y-70028777D01*
X164657455Y-70033761D01*
X164659428Y-70035029D01*
X166624568Y-70035029D01*
X166624568Y-70011721D01*
X166624567Y-70011706D01*
X166614424Y-69912421D01*
X166561116Y-69751547D01*
X166561111Y-69751536D01*
X166472144Y-69607300D01*
X166472141Y-69607296D01*
X166462908Y-69598063D01*
X166429423Y-69536740D01*
X166434407Y-69467048D01*
X166462912Y-69422697D01*
X166472537Y-69413073D01*
X166561572Y-69268726D01*
X166614918Y-69107737D01*
X166625069Y-69008374D01*
X166625068Y-68541317D01*
X166644752Y-68474279D01*
X166697556Y-68428524D01*
X166766715Y-68418580D01*
X166830271Y-68447605D01*
G37*
%TD.AperFunction*%
%TA.AperFunction,Conductor*%
G36*
X163656358Y-66295836D02*
G01*
X163702113Y-66348640D01*
X163713319Y-66400151D01*
X163713319Y-67776151D01*
X163914416Y-67776151D01*
X163957143Y-67773253D01*
X164141842Y-67727319D01*
X164312341Y-67642760D01*
X164312344Y-67642758D01*
X164460685Y-67523518D01*
X164460686Y-67523517D01*
X164579926Y-67375176D01*
X164579928Y-67375173D01*
X164664487Y-67204674D01*
X164710421Y-67019975D01*
X164713319Y-66977247D01*
X164713319Y-66629569D01*
X164733004Y-66562530D01*
X164785808Y-66516775D01*
X164854966Y-66506831D01*
X164918522Y-66535856D01*
X164924992Y-66541881D01*
X165449678Y-67066567D01*
X165955959Y-67572848D01*
X165989444Y-67634171D01*
X165984460Y-67703863D01*
X165942588Y-67759796D01*
X165877124Y-67784213D01*
X165868278Y-67784529D01*
X165351231Y-67784529D01*
X165351213Y-67784530D01*
X165251861Y-67794679D01*
X165251858Y-67794680D01*
X165090874Y-67848025D01*
X165090863Y-67848030D01*
X164946528Y-67937058D01*
X164826600Y-68056985D01*
X164759380Y-68165964D01*
X164715842Y-68208253D01*
X164635728Y-68254506D01*
X164635723Y-68254510D01*
X161975500Y-70914734D01*
X161914177Y-70948219D01*
X161844485Y-70943235D01*
X161788552Y-70901363D01*
X161764135Y-70835899D01*
X161763819Y-70827053D01*
X161763819Y-69980750D01*
X161783504Y-69913711D01*
X161836308Y-69867956D01*
X161887819Y-69856750D01*
X162003844Y-69856750D01*
X162003845Y-69856749D01*
X162158497Y-69825987D01*
X162304179Y-69765644D01*
X162435289Y-69678039D01*
X162546789Y-69566539D01*
X162634394Y-69435429D01*
X162694737Y-69289747D01*
X162725500Y-69135092D01*
X162725500Y-68977408D01*
X162725500Y-68977405D01*
X162725499Y-68977403D01*
X162715907Y-68929180D01*
X162694737Y-68822753D01*
X162669441Y-68761683D01*
X162634397Y-68677077D01*
X162634390Y-68677064D01*
X162546789Y-68545961D01*
X162546786Y-68545957D01*
X162435292Y-68434463D01*
X162435288Y-68434460D01*
X162304185Y-68346859D01*
X162304172Y-68346852D01*
X162158501Y-68286514D01*
X162158489Y-68286511D01*
X162003845Y-68255750D01*
X162003842Y-68255750D01*
X161887819Y-68255750D01*
X161820780Y-68236065D01*
X161775025Y-68183261D01*
X161763819Y-68131750D01*
X161763819Y-67843066D01*
X161783504Y-67776027D01*
X161836308Y-67730272D01*
X161840431Y-67728575D01*
X161842007Y-67727793D01*
X161842012Y-67727792D01*
X162012615Y-67643181D01*
X162161041Y-67523873D01*
X162216994Y-67454263D01*
X162274334Y-67414347D01*
X162344156Y-67411767D01*
X162404289Y-67447345D01*
X162410286Y-67454266D01*
X162465951Y-67523517D01*
X162465952Y-67523518D01*
X162614293Y-67642758D01*
X162614296Y-67642760D01*
X162784795Y-67727319D01*
X162969494Y-67773253D01*
X163012222Y-67776151D01*
X163213319Y-67776151D01*
X163213319Y-66400151D01*
X163233004Y-66333112D01*
X163285808Y-66287357D01*
X163337319Y-66276151D01*
X163589319Y-66276151D01*
X163656358Y-66295836D01*
G37*
%TD.AperFunction*%
%TA.AperFunction,Conductor*%
G36*
X167685625Y-61421737D02*
G01*
X167727315Y-61413444D01*
X167727317Y-61413444D01*
X167909296Y-61338067D01*
X167909309Y-61338060D01*
X168073087Y-61228626D01*
X168073091Y-61228623D01*
X168212373Y-61089341D01*
X168212376Y-61089337D01*
X168242147Y-61044783D01*
X168268141Y-61023058D01*
X168293736Y-61000880D01*
X168294875Y-61000716D01*
X168295759Y-60999978D01*
X168329359Y-60995757D01*
X168362895Y-60990936D01*
X168363942Y-60991414D01*
X168365084Y-60991271D01*
X168395625Y-61005883D01*
X168426451Y-61019960D01*
X168427073Y-61020928D01*
X168428111Y-61021425D01*
X168445908Y-61050236D01*
X168464226Y-61078738D01*
X168464441Y-61080237D01*
X168464831Y-61080868D01*
X168469249Y-61113673D01*
X168469249Y-61196807D01*
X168469249Y-61196809D01*
X168469250Y-61206803D01*
X168469250Y-67521206D01*
X168449565Y-67588245D01*
X168396761Y-67634000D01*
X168327603Y-67643944D01*
X168264047Y-67614919D01*
X168257569Y-67608887D01*
X165002842Y-64354160D01*
X164969357Y-64292837D01*
X164974341Y-64223145D01*
X165002842Y-64178797D01*
X165085511Y-64096128D01*
X165085515Y-64096123D01*
X165167181Y-63958032D01*
X165207621Y-63818838D01*
X164518883Y-63818838D01*
X164489442Y-63810193D01*
X164459456Y-63803670D01*
X164454440Y-63799915D01*
X164451844Y-63799153D01*
X164431202Y-63782519D01*
X164431096Y-63782413D01*
X164397611Y-63721090D01*
X164394777Y-63694732D01*
X164394777Y-63443337D01*
X164414462Y-63376298D01*
X164467266Y-63330543D01*
X164518775Y-63319337D01*
X164643957Y-63319337D01*
X164643970Y-63319336D01*
X164645445Y-63319220D01*
X164655170Y-63318838D01*
X165207621Y-63318838D01*
X165167181Y-63179643D01*
X165133358Y-63122450D01*
X165116175Y-63054726D01*
X165133359Y-62996207D01*
X165167644Y-62938234D01*
X165167646Y-62938231D01*
X165212442Y-62784042D01*
X165215277Y-62748019D01*
X165215276Y-62349658D01*
X165212442Y-62313634D01*
X165179710Y-62200969D01*
X165179909Y-62131099D01*
X165217851Y-62072429D01*
X165281490Y-62043586D01*
X165298773Y-62042374D01*
X165913497Y-62042374D01*
X165922336Y-62041423D01*
X165954719Y-62037943D01*
X165981231Y-62037943D01*
X166017791Y-62041874D01*
X166017807Y-62041875D01*
X166115625Y-62041875D01*
X166115676Y-62041823D01*
X166135310Y-61974959D01*
X166165311Y-61942734D01*
X166223171Y-61899421D01*
X166309421Y-61784206D01*
X166359716Y-61649358D01*
X166366125Y-61589748D01*
X166366124Y-60940873D01*
X166368674Y-60932188D01*
X166367386Y-60923228D01*
X166378363Y-60899191D01*
X166385808Y-60873836D01*
X166392650Y-60867907D01*
X166396411Y-60859672D01*
X166418642Y-60845385D01*
X166438612Y-60828081D01*
X166449127Y-60825793D01*
X166455189Y-60821898D01*
X166490124Y-60816875D01*
X166491625Y-60816875D01*
X166558664Y-60836560D01*
X166604419Y-60889364D01*
X166615625Y-60940875D01*
X166615625Y-62041875D01*
X166713453Y-62041875D01*
X166713469Y-62041874D01*
X166772997Y-62035473D01*
X166773004Y-62035471D01*
X166907711Y-61985229D01*
X166907718Y-61985225D01*
X167022812Y-61899065D01*
X167022815Y-61899062D01*
X167108975Y-61783968D01*
X167108979Y-61783961D01*
X167159221Y-61649254D01*
X167159223Y-61649247D01*
X167165624Y-61589719D01*
X167165625Y-61589702D01*
X167165625Y-61496798D01*
X167185310Y-61429759D01*
X167185625Y-61429405D01*
X167185625Y-60618863D01*
X167195565Y-60636080D01*
X167251420Y-60691935D01*
X167319829Y-60731431D01*
X167396129Y-60751875D01*
X167475121Y-60751875D01*
X167551421Y-60731431D01*
X167619830Y-60691935D01*
X167675685Y-60636080D01*
X167685625Y-60618863D01*
X167685625Y-61421737D01*
G37*
%TD.AperFunction*%
%TA.AperFunction,Conductor*%
G36*
X157863724Y-54792060D02*
G01*
X157909479Y-54844864D01*
X157919423Y-54914022D01*
X157911246Y-54943828D01*
X157834054Y-55130185D01*
X157834052Y-55130193D01*
X157795625Y-55323379D01*
X157795625Y-55471875D01*
X158495625Y-55471875D01*
X158495625Y-55971875D01*
X157795625Y-55971875D01*
X157795625Y-56120370D01*
X157834052Y-56313556D01*
X157834055Y-56313568D01*
X157909432Y-56495546D01*
X157909439Y-56495559D01*
X158018873Y-56659337D01*
X158018876Y-56659341D01*
X158158158Y-56798623D01*
X158158162Y-56798626D01*
X158321940Y-56908060D01*
X158321953Y-56908067D01*
X158503933Y-56983444D01*
X158545625Y-56991737D01*
X158545625Y-56188863D01*
X158555565Y-56206080D01*
X158611420Y-56261935D01*
X158679829Y-56301431D01*
X158756129Y-56321875D01*
X158835121Y-56321875D01*
X158911421Y-56301431D01*
X158979830Y-56261935D01*
X159035685Y-56206080D01*
X159045625Y-56188863D01*
X159045625Y-56991737D01*
X159087315Y-56983444D01*
X159087317Y-56983444D01*
X159269296Y-56908067D01*
X159269309Y-56908060D01*
X159433087Y-56798626D01*
X159433091Y-56798623D01*
X159572373Y-56659341D01*
X159572376Y-56659337D01*
X159681810Y-56495559D01*
X159681817Y-56495546D01*
X159757194Y-56313568D01*
X159757197Y-56313556D01*
X159795624Y-56120370D01*
X159795625Y-56120367D01*
X159795625Y-55971875D01*
X159095625Y-55971875D01*
X159095625Y-55471875D01*
X159795625Y-55471875D01*
X159795625Y-55323383D01*
X159795624Y-55323379D01*
X159757197Y-55130193D01*
X159757195Y-55130185D01*
X159680004Y-54943828D01*
X159672535Y-54874358D01*
X159703810Y-54811879D01*
X159763899Y-54776227D01*
X159794565Y-54772375D01*
X166436685Y-54772375D01*
X166503724Y-54792060D01*
X166549479Y-54844864D01*
X166559423Y-54914022D01*
X166551246Y-54943828D01*
X166474054Y-55130185D01*
X166474052Y-55130193D01*
X166435625Y-55323379D01*
X166435625Y-55471875D01*
X167135625Y-55471875D01*
X167135625Y-55971875D01*
X166435625Y-55971875D01*
X166435625Y-56120370D01*
X166474052Y-56313556D01*
X166474055Y-56313568D01*
X166549432Y-56495546D01*
X166549439Y-56495559D01*
X166657632Y-56657480D01*
X166678510Y-56724157D01*
X166660026Y-56791538D01*
X166642211Y-56814052D01*
X164703209Y-58753056D01*
X164641886Y-58786541D01*
X164615528Y-58789375D01*
X161402294Y-58789375D01*
X161402278Y-58789374D01*
X161394682Y-58789374D01*
X161236568Y-58789374D01*
X161129212Y-58818140D01*
X161083835Y-58830299D01*
X161083834Y-58830300D01*
X161033721Y-58859234D01*
X161033720Y-58859235D01*
X161016734Y-58869042D01*
X160946910Y-58909354D01*
X160946907Y-58909356D01*
X160849628Y-59006636D01*
X160788305Y-59040121D01*
X160718613Y-59035137D01*
X160674266Y-59006636D01*
X160578992Y-58911362D01*
X160578990Y-58911360D01*
X160513375Y-58873477D01*
X160447761Y-58835594D01*
X160374575Y-58815984D01*
X160301391Y-58796375D01*
X160149859Y-58796375D01*
X160003488Y-58835594D01*
X159872260Y-58911360D01*
X159865814Y-58916307D01*
X159863724Y-58913584D01*
X159815842Y-58939341D01*
X159746183Y-58933918D01*
X159690513Y-58891696D01*
X159684924Y-58882851D01*
X159572376Y-58714412D01*
X159572373Y-58714408D01*
X159433091Y-58575126D01*
X159433087Y-58575123D01*
X159269309Y-58465689D01*
X159269296Y-58465682D01*
X159087316Y-58390304D01*
X159087308Y-58390302D01*
X159045625Y-58382010D01*
X159045625Y-59184886D01*
X159035685Y-59167670D01*
X158979830Y-59111815D01*
X158911421Y-59072319D01*
X158835121Y-59051875D01*
X158756129Y-59051875D01*
X158679829Y-59072319D01*
X158611420Y-59111815D01*
X158555565Y-59167670D01*
X158545625Y-59184886D01*
X158545625Y-58382011D01*
X158545624Y-58382010D01*
X158503941Y-58390302D01*
X158503933Y-58390304D01*
X158321953Y-58465682D01*
X158321940Y-58465689D01*
X158158162Y-58575123D01*
X158158158Y-58575126D01*
X158018876Y-58714408D01*
X158018873Y-58714412D01*
X157909439Y-58878190D01*
X157909432Y-58878203D01*
X157834055Y-59060181D01*
X157834052Y-59060193D01*
X157795625Y-59253379D01*
X157795625Y-59651875D01*
X158495625Y-59651875D01*
X158495625Y-60151875D01*
X157795625Y-60151875D01*
X157795625Y-60550370D01*
X157834052Y-60743556D01*
X157834055Y-60743568D01*
X157909432Y-60925546D01*
X157909439Y-60925559D01*
X158018873Y-61089337D01*
X158018876Y-61089341D01*
X158158158Y-61228623D01*
X158158162Y-61228626D01*
X158321940Y-61338060D01*
X158321953Y-61338067D01*
X158503933Y-61413444D01*
X158545625Y-61421737D01*
X158545625Y-60618863D01*
X158555565Y-60636080D01*
X158611420Y-60691935D01*
X158679829Y-60731431D01*
X158756129Y-60751875D01*
X158835121Y-60751875D01*
X158911421Y-60731431D01*
X158979830Y-60691935D01*
X159035685Y-60636080D01*
X159075181Y-60567671D01*
X159075394Y-60566875D01*
X159741125Y-60566875D01*
X159808164Y-60586560D01*
X159853919Y-60639364D01*
X159865125Y-60690875D01*
X159865125Y-61589745D01*
X159865126Y-61589751D01*
X159871533Y-61649358D01*
X159921827Y-61784203D01*
X159921828Y-61784204D01*
X159921829Y-61784206D01*
X160008077Y-61899418D01*
X160008079Y-61899421D01*
X160015433Y-61904926D01*
X160057306Y-61960858D01*
X160065125Y-62004195D01*
X160065125Y-64173746D01*
X160045440Y-64240785D01*
X160028806Y-64261427D01*
X159530490Y-64759742D01*
X159469167Y-64793227D01*
X159412884Y-64792396D01*
X159357214Y-64778552D01*
X159357211Y-64778551D01*
X159357208Y-64778551D01*
X159314442Y-64775651D01*
X159314439Y-64775651D01*
X158412196Y-64775651D01*
X158412193Y-64775652D01*
X158369432Y-64778550D01*
X158369431Y-64778550D01*
X158184622Y-64824511D01*
X158014026Y-64909118D01*
X158014023Y-64909120D01*
X157865597Y-65028428D01*
X157865596Y-65028429D01*
X157746288Y-65176855D01*
X157746286Y-65176858D01*
X157661679Y-65347453D01*
X157615719Y-65532258D01*
X157612819Y-65575030D01*
X157612819Y-66626053D01*
X157593134Y-66693092D01*
X157576500Y-66713734D01*
X156799238Y-67490996D01*
X156793910Y-67493904D01*
X156790507Y-67498934D01*
X156763598Y-67510456D01*
X156737915Y-67524481D01*
X156731859Y-67524047D01*
X156726278Y-67526438D01*
X156697415Y-67521584D01*
X156668223Y-67519497D01*
X156663362Y-67515858D01*
X156657376Y-67514852D01*
X156635718Y-67495163D01*
X156612290Y-67477625D01*
X156609019Y-67470892D01*
X156605676Y-67467853D01*
X156591789Y-67435423D01*
X156591784Y-67435413D01*
X156576889Y-67379824D01*
X156570284Y-67355172D01*
X156541346Y-67305052D01*
X156491227Y-67218241D01*
X156379423Y-67106437D01*
X156379422Y-67106436D01*
X156375092Y-67102106D01*
X156375081Y-67102096D01*
X155559382Y-66286397D01*
X155525897Y-66225074D01*
X155529132Y-66160398D01*
X155542871Y-66118118D01*
X155576125Y-65908162D01*
X155576125Y-65695588D01*
X155542871Y-65485632D01*
X155477182Y-65283463D01*
X155380676Y-65094059D01*
X155380674Y-65094056D01*
X155380673Y-65094054D01*
X155255734Y-64922088D01*
X155105411Y-64771765D01*
X154933445Y-64646826D01*
X154932740Y-64646466D01*
X154924679Y-64642360D01*
X154873884Y-64594387D01*
X154857088Y-64526567D01*
X154879624Y-64460431D01*
X154924679Y-64421390D01*
X154933441Y-64416926D01*
X154974367Y-64387192D01*
X155105411Y-64291984D01*
X155105413Y-64291981D01*
X155105417Y-64291979D01*
X155255729Y-64141667D01*
X155255731Y-64141663D01*
X155255734Y-64141661D01*
X155380673Y-63969695D01*
X155380672Y-63969695D01*
X155380676Y-63969691D01*
X155477182Y-63780287D01*
X155542871Y-63578118D01*
X155576125Y-63368162D01*
X155576125Y-63155588D01*
X155542871Y-62945632D01*
X155477182Y-62743463D01*
X155380676Y-62554059D01*
X155380674Y-62554056D01*
X155380673Y-62554054D01*
X155255734Y-62382088D01*
X155105411Y-62231765D01*
X154933442Y-62106824D01*
X154924129Y-62102079D01*
X154873332Y-62054105D01*
X154856537Y-61986284D01*
X154879074Y-61920149D01*
X154924132Y-61881107D01*
X154933180Y-61876497D01*
X154987341Y-61837145D01*
X154987342Y-61837145D01*
X154355033Y-61204837D01*
X154418618Y-61187800D01*
X154532632Y-61121974D01*
X154625724Y-61028882D01*
X154691550Y-60914868D01*
X154708587Y-60851284D01*
X155340895Y-61483592D01*
X155340895Y-61483591D01*
X155373920Y-61438137D01*
X159045625Y-61438137D01*
X159059624Y-61458688D01*
X159065625Y-61496798D01*
X159065625Y-61589719D01*
X159072026Y-61649247D01*
X159072028Y-61649254D01*
X159122270Y-61783961D01*
X159122274Y-61783968D01*
X159208434Y-61899062D01*
X159208437Y-61899065D01*
X159323531Y-61985225D01*
X159323538Y-61985229D01*
X159458245Y-62035471D01*
X159458252Y-62035473D01*
X159517780Y-62041874D01*
X159517797Y-62041875D01*
X159615625Y-62041875D01*
X159615625Y-61066875D01*
X159045625Y-61066875D01*
X159045625Y-61438137D01*
X155373920Y-61438137D01*
X155380247Y-61429429D01*
X155476720Y-61240092D01*
X155542382Y-61038005D01*
X155542382Y-61038002D01*
X155575625Y-60828121D01*
X155575625Y-60615628D01*
X155542382Y-60405747D01*
X155542382Y-60405744D01*
X155476719Y-60203655D01*
X155452850Y-60156809D01*
X155452849Y-60156808D01*
X155380249Y-60014324D01*
X155340895Y-59960157D01*
X155340894Y-59960157D01*
X154708587Y-60592465D01*
X154691550Y-60528882D01*
X154625724Y-60414868D01*
X154532632Y-60321776D01*
X154418618Y-60255950D01*
X154355034Y-60238912D01*
X154987341Y-59606603D01*
X154933172Y-59567248D01*
X154933172Y-59567247D01*
X154924125Y-59562638D01*
X154873331Y-59514663D01*
X154856537Y-59446841D01*
X154879076Y-59380707D01*
X154924133Y-59341668D01*
X154933441Y-59336926D01*
X155048429Y-59253383D01*
X155105411Y-59211984D01*
X155105413Y-59211981D01*
X155105417Y-59211979D01*
X155255729Y-59061667D01*
X155255731Y-59061663D01*
X155255734Y-59061661D01*
X155380673Y-58889695D01*
X155380672Y-58889695D01*
X155380676Y-58889691D01*
X155477182Y-58700287D01*
X155542871Y-58498118D01*
X155576125Y-58288162D01*
X155576125Y-58075588D01*
X155542871Y-57865632D01*
X155477182Y-57663463D01*
X155380676Y-57474059D01*
X155380674Y-57474056D01*
X155380673Y-57474054D01*
X155255734Y-57302088D01*
X155142194Y-57188548D01*
X155108709Y-57127225D01*
X155113693Y-57057533D01*
X155155565Y-57001600D01*
X155186540Y-56984685D01*
X155317956Y-56935671D01*
X155433171Y-56849421D01*
X155519421Y-56734206D01*
X155569716Y-56599358D01*
X155576125Y-56539748D01*
X155576124Y-55471875D01*
X155576124Y-54896375D01*
X155595808Y-54829336D01*
X155648612Y-54783581D01*
X155700124Y-54772375D01*
X157796685Y-54772375D01*
X157863724Y-54792060D01*
G37*
%TD.AperFunction*%
%TA.AperFunction,Conductor*%
G36*
X161566845Y-63611895D02*
G01*
X161612600Y-63664699D01*
X161623806Y-63716210D01*
X161623806Y-64362140D01*
X161658928Y-64359377D01*
X161658934Y-64359376D01*
X161812995Y-64314617D01*
X161812996Y-64314617D01*
X161822608Y-64308932D01*
X161850211Y-64301926D01*
X161876889Y-64291976D01*
X161883636Y-64293443D01*
X161890331Y-64291745D01*
X161917337Y-64300774D01*
X161945162Y-64306827D01*
X161953008Y-64312700D01*
X161956595Y-64313900D01*
X161973416Y-64327978D01*
X162021909Y-64376471D01*
X162021910Y-64376471D01*
X162028978Y-64383539D01*
X162483678Y-64838239D01*
X162517163Y-64899562D01*
X162512179Y-64969254D01*
X162473689Y-65022564D01*
X162465955Y-65028780D01*
X162465953Y-65028782D01*
X162410286Y-65098036D01*
X162352943Y-65137954D01*
X162283120Y-65140534D01*
X162222988Y-65104955D01*
X162216992Y-65098035D01*
X162161041Y-65028429D01*
X162161040Y-65028428D01*
X162012614Y-64909120D01*
X162012611Y-64909118D01*
X161842016Y-64824511D01*
X161657211Y-64778551D01*
X161631548Y-64776811D01*
X161614442Y-64775651D01*
X161614440Y-64775651D01*
X161368040Y-64775651D01*
X161301001Y-64755966D01*
X161255246Y-64703162D01*
X161245302Y-64634004D01*
X161248265Y-64619557D01*
X161249510Y-64614911D01*
X161266126Y-64552902D01*
X161266126Y-64394787D01*
X161266126Y-64387192D01*
X161266125Y-64387174D01*
X161266125Y-63716210D01*
X161268675Y-63707524D01*
X161267387Y-63698563D01*
X161278365Y-63674522D01*
X161285810Y-63649171D01*
X161292650Y-63643243D01*
X161296412Y-63635007D01*
X161318646Y-63620717D01*
X161338614Y-63603416D01*
X161349128Y-63601128D01*
X161355190Y-63597233D01*
X161390125Y-63592210D01*
X161499806Y-63592210D01*
X161566845Y-63611895D01*
G37*
%TD.AperFunction*%
%TA.AperFunction,Conductor*%
G36*
X170574958Y-60564288D02*
G01*
X170630892Y-60606160D01*
X170655309Y-60671624D01*
X170655625Y-60680470D01*
X170655625Y-60828121D01*
X170688867Y-61038002D01*
X170688867Y-61038005D01*
X170754529Y-61240092D01*
X170851000Y-61429425D01*
X170890353Y-61483591D01*
X171522662Y-60851283D01*
X171539700Y-60914868D01*
X171605526Y-61028882D01*
X171698618Y-61121974D01*
X171812632Y-61187800D01*
X171876215Y-61204837D01*
X171243907Y-61837144D01*
X171243907Y-61837145D01*
X171298077Y-61876501D01*
X171298076Y-61876501D01*
X171307120Y-61881109D01*
X171357917Y-61929083D01*
X171374712Y-61996904D01*
X171352175Y-62063039D01*
X171307124Y-62102077D01*
X171297807Y-62106824D01*
X171125838Y-62231765D01*
X170975515Y-62382088D01*
X170850576Y-62554054D01*
X170754069Y-62743460D01*
X170688378Y-62945635D01*
X170655125Y-63155588D01*
X170655125Y-63368161D01*
X170688379Y-63578119D01*
X170688379Y-63578122D01*
X170702116Y-63620398D01*
X170704111Y-63690239D01*
X170671866Y-63746397D01*
X170134881Y-64283383D01*
X170023076Y-64395187D01*
X170023074Y-64395190D01*
X169992776Y-64447667D01*
X169992772Y-64447675D01*
X169988239Y-64455528D01*
X169944018Y-64532120D01*
X169912166Y-64650988D01*
X169909521Y-64657662D01*
X169892258Y-64679764D01*
X169877660Y-64703715D01*
X169871042Y-64706929D01*
X169866514Y-64712728D01*
X169840039Y-64721990D01*
X169814813Y-64734244D01*
X169807508Y-64733370D01*
X169800564Y-64735800D01*
X169773283Y-64729278D01*
X169745437Y-64725949D01*
X169739764Y-64721265D01*
X169732609Y-64719555D01*
X169713187Y-64699321D01*
X169691559Y-64681464D01*
X169689318Y-64674455D01*
X169684225Y-64669149D01*
X169678825Y-64641628D01*
X169670285Y-64614911D01*
X169670250Y-64611961D01*
X169670250Y-61417846D01*
X169689935Y-61350807D01*
X169706564Y-61330170D01*
X170443947Y-60592787D01*
X170505267Y-60559304D01*
X170574958Y-60564288D01*
G37*
%TD.AperFunction*%
%TA.AperFunction,Conductor*%
G36*
X173078806Y-61441502D02*
G01*
X173112291Y-61502825D01*
X173115125Y-61529183D01*
X173115125Y-62162117D01*
X173095440Y-62229156D01*
X173042636Y-62274911D01*
X172973478Y-62284855D01*
X172909922Y-62255830D01*
X172903444Y-62249798D01*
X172885411Y-62231765D01*
X172713442Y-62106824D01*
X172704129Y-62102079D01*
X172653332Y-62054105D01*
X172636537Y-61986284D01*
X172659074Y-61920149D01*
X172704132Y-61881107D01*
X172713180Y-61876497D01*
X172767341Y-61837145D01*
X172767342Y-61837145D01*
X172135033Y-61204837D01*
X172198618Y-61187800D01*
X172312632Y-61121974D01*
X172405724Y-61028882D01*
X172471550Y-60914868D01*
X172488587Y-60851283D01*
X173078806Y-61441502D01*
G37*
%TD.AperFunction*%
%TA.AperFunction,Conductor*%
G36*
X153759700Y-60914868D02*
G01*
X153825526Y-61028882D01*
X153918618Y-61121974D01*
X154032632Y-61187800D01*
X154096215Y-61204837D01*
X153463907Y-61837144D01*
X153463907Y-61837145D01*
X153518077Y-61876501D01*
X153518076Y-61876501D01*
X153527120Y-61881109D01*
X153577917Y-61929083D01*
X153594712Y-61996904D01*
X153572175Y-62063039D01*
X153527124Y-62102077D01*
X153517807Y-62106824D01*
X153345838Y-62231765D01*
X153345834Y-62231769D01*
X153327806Y-62249798D01*
X153266483Y-62283283D01*
X153196791Y-62278299D01*
X153140858Y-62236427D01*
X153116441Y-62170963D01*
X153116125Y-62162117D01*
X153116125Y-61529183D01*
X153135810Y-61462144D01*
X153152444Y-61441502D01*
X153742662Y-60851283D01*
X153759700Y-60914868D01*
G37*
%TD.AperFunction*%
%TA.AperFunction,Conductor*%
G36*
X170410847Y-57750501D02*
G01*
X170561429Y-57750501D01*
X170628468Y-57770186D01*
X170674223Y-57822990D01*
X170684167Y-57892148D01*
X170683902Y-57893899D01*
X170655125Y-58075588D01*
X170655125Y-58288161D01*
X170688379Y-58498119D01*
X170688379Y-58498122D01*
X170702116Y-58540398D01*
X170704111Y-58610239D01*
X170671866Y-58666397D01*
X169686389Y-59651875D01*
X168701036Y-60637228D01*
X168701034Y-60637230D01*
X168666640Y-60671624D01*
X168637200Y-60701064D01*
X168575876Y-60734548D01*
X168506185Y-60729563D01*
X168450251Y-60687692D01*
X168425835Y-60622227D01*
X168427902Y-60589189D01*
X168435625Y-60550366D01*
X168435625Y-60151875D01*
X167735625Y-60151875D01*
X167735625Y-59651875D01*
X168435625Y-59651875D01*
X168435625Y-59253383D01*
X168435624Y-59253379D01*
X168397197Y-59060193D01*
X168397194Y-59060181D01*
X168321817Y-58878203D01*
X168321810Y-58878190D01*
X168212376Y-58714412D01*
X168212373Y-58714408D01*
X168073091Y-58575126D01*
X168073087Y-58575123D01*
X167909309Y-58465689D01*
X167909296Y-58465682D01*
X167727316Y-58390304D01*
X167727308Y-58390302D01*
X167685625Y-58382010D01*
X167685625Y-59184886D01*
X167675685Y-59167670D01*
X167619830Y-59111815D01*
X167551421Y-59072319D01*
X167475121Y-59051875D01*
X167396129Y-59051875D01*
X167319829Y-59072319D01*
X167251420Y-59111815D01*
X167195565Y-59167670D01*
X167185625Y-59184886D01*
X167185625Y-58382011D01*
X167185624Y-58382010D01*
X167143941Y-58390302D01*
X167143933Y-58390304D01*
X167072017Y-58420093D01*
X167002548Y-58427562D01*
X166940069Y-58396286D01*
X166904417Y-58336197D01*
X166906911Y-58266372D01*
X166936883Y-58217852D01*
X167367917Y-57786819D01*
X167429240Y-57753334D01*
X167455598Y-57750500D01*
X170410831Y-57750500D01*
X170410847Y-57750501D01*
G37*
%TD.AperFunction*%
%TA.AperFunction,Conductor*%
G36*
X153321328Y-59187920D02*
G01*
X153327806Y-59193952D01*
X153345838Y-59211984D01*
X153517804Y-59336923D01*
X153517806Y-59336924D01*
X153517809Y-59336926D01*
X153527118Y-59341669D01*
X153577915Y-59389641D01*
X153594712Y-59457462D01*
X153572177Y-59523597D01*
X153527130Y-59562635D01*
X153518071Y-59567251D01*
X153518065Y-59567255D01*
X153463907Y-59606602D01*
X153463907Y-59606603D01*
X154096216Y-60238912D01*
X154032632Y-60255950D01*
X153918618Y-60321776D01*
X153825526Y-60414868D01*
X153759700Y-60528882D01*
X153742662Y-60592466D01*
X153152444Y-60002248D01*
X153118959Y-59940925D01*
X153116125Y-59914567D01*
X153116125Y-59281633D01*
X153135810Y-59214594D01*
X153188614Y-59168839D01*
X153257772Y-59158895D01*
X153321328Y-59187920D01*
G37*
%TD.AperFunction*%
%TA.AperFunction,Conductor*%
G36*
X173034459Y-59165451D02*
G01*
X173090392Y-59207323D01*
X173114809Y-59272787D01*
X173115125Y-59281633D01*
X173115125Y-59914567D01*
X173095440Y-59981606D01*
X173078806Y-60002248D01*
X172488587Y-60592466D01*
X172471550Y-60528882D01*
X172405724Y-60414868D01*
X172312632Y-60321776D01*
X172198618Y-60255950D01*
X172135033Y-60238912D01*
X172767341Y-59606603D01*
X172713172Y-59567248D01*
X172713172Y-59567247D01*
X172704125Y-59562638D01*
X172653331Y-59514663D01*
X172636537Y-59446841D01*
X172659076Y-59380707D01*
X172704133Y-59341668D01*
X172713441Y-59336926D01*
X172828429Y-59253383D01*
X172885411Y-59211984D01*
X172885413Y-59211981D01*
X172885417Y-59211979D01*
X172903444Y-59193952D01*
X172964767Y-59160467D01*
X173034459Y-59165451D01*
G37*
%TD.AperFunction*%
%TA.AperFunction,Conductor*%
G36*
X170598164Y-54792060D02*
G01*
X170643919Y-54844864D01*
X170655125Y-54896375D01*
X170655125Y-56091777D01*
X170635440Y-56158816D01*
X170618806Y-56179458D01*
X170285084Y-56513181D01*
X170223761Y-56546666D01*
X170197403Y-56549500D01*
X168485047Y-56549500D01*
X168418008Y-56529815D01*
X168372253Y-56477011D01*
X168362309Y-56407853D01*
X168370486Y-56378047D01*
X168397195Y-56313564D01*
X168397197Y-56313556D01*
X168435624Y-56120370D01*
X168435625Y-56120367D01*
X168435625Y-55971875D01*
X167735625Y-55971875D01*
X167735625Y-55471875D01*
X168435625Y-55471875D01*
X168435625Y-55323383D01*
X168435624Y-55323379D01*
X168397197Y-55130193D01*
X168397195Y-55130185D01*
X168320004Y-54943828D01*
X168312535Y-54874358D01*
X168343810Y-54811879D01*
X168403899Y-54776227D01*
X168434565Y-54772375D01*
X170531125Y-54772375D01*
X170598164Y-54792060D01*
G37*
%TD.AperFunction*%
%TD*%
M02*
