%TF.GenerationSoftware,KiCad,Pcbnew,9.0.6*%
%TF.CreationDate,2026-07-09T21:59:02-04:00*%
%TF.ProjectId,EasyDev,45617379-4465-4762-9e6b-696361645f70,rev?*%
%TF.SameCoordinates,Original*%
%TF.FileFunction,Soldermask,Bot*%
%TF.FilePolarity,Negative*%
%FSLAX46Y46*%
G04 Gerber Fmt 4.6, Leading zero omitted, Abs format (unit mm)*
G04 Created by KiCad (PCBNEW 9.0.6) date 2026-07-09 21:59:02*
%MOMM*%
%LPD*%
G01*
G04 APERTURE LIST*
%ADD10R,1.700000X1.700000*%
%ADD11C,1.700000*%
%ADD12C,0.650000*%
%ADD13O,1.000000X2.100000*%
%ADD14O,1.000000X1.600000*%
G04 APERTURE END LIST*
D10*
%TO.C,J3*%
X172005625Y-55641875D03*
D11*
X172005625Y-58181875D03*
X172005625Y-60721875D03*
X172005625Y-63261875D03*
X172005625Y-65801875D03*
X172005625Y-68341875D03*
X172005625Y-70881875D03*
X172005625Y-73421875D03*
X172005625Y-75961875D03*
X172005625Y-78501875D03*
X172005625Y-81041875D03*
X172005625Y-83581875D03*
X172005625Y-86121875D03*
X172005625Y-88661875D03*
X172005625Y-91201875D03*
X172005625Y-93741875D03*
X172005625Y-96281875D03*
X172005625Y-98821875D03*
X172005625Y-101361875D03*
X172005625Y-103901875D03*
%TD*%
D12*
%TO.C,J1*%
X166005625Y-59371875D03*
X160225625Y-59371875D03*
D13*
X167435625Y-59901875D03*
D14*
X167435625Y-55721875D03*
D13*
X158795625Y-59901875D03*
D14*
X158795625Y-55721875D03*
%TD*%
D10*
%TO.C,J4*%
X160575625Y-103661875D03*
D11*
X163115625Y-103661875D03*
X165655625Y-103661875D03*
%TD*%
D10*
%TO.C,J2*%
X154225625Y-55641875D03*
D11*
X154225625Y-58181875D03*
X154225625Y-60721875D03*
X154225625Y-63261875D03*
X154225625Y-65801875D03*
X154225625Y-68341875D03*
X154225625Y-70881875D03*
X154225625Y-73421875D03*
X154225625Y-75961875D03*
X154225625Y-78501875D03*
X154225625Y-81041875D03*
X154225625Y-83581875D03*
X154225625Y-86121875D03*
X154225625Y-88661875D03*
X154225625Y-91201875D03*
X154225625Y-93741875D03*
X154225625Y-96281875D03*
X154225625Y-98821875D03*
X154225625Y-101361875D03*
X154225625Y-103901875D03*
%TD*%
M02*
