M48
; DRILL file {KiCad 9.0.6} date 2026-07-09T21:59:30-0400
; FORMAT={-:-/ absolute / metric / decimal}
; #@! TF.CreationDate,2026-07-09T21:59:30-04:00
; #@! TF.GenerationSoftware,Kicad,Pcbnew,9.0.6
; #@! TF.FileFunction,MixedPlating,1,2
FMAT,2
METRIC
; #@! TA.AperFunction,Plated,PTH,ViaDrill
T1C0.100
; #@! TA.AperFunction,Plated,PTH,ViaDrill
T2C0.200
; #@! TA.AperFunction,Plated,PTH,ViaDrill
T3C0.300
; #@! TA.AperFunction,Plated,PTH,ComponentDrill
T4C0.600
; #@! TA.AperFunction,Plated,PTH,ComponentDrill
T5C1.000
; #@! TA.AperFunction,NonPlated,NPTH,ComponentDrill
T6C0.650
%
G90
G05
T1
X155.386Y-89.806
X156.713Y-97.631
X163.366Y-80.334
T2
X154.861Y-84.807
X155.249Y-75.244
X155.859Y-88.106
X155.877Y-78.7
X156.029Y-86.481
X156.04Y-81.17
X156.238Y-79.231
X156.581Y-74.028
X157.09Y-85.08
X157.139Y-90.121
X157.197Y-89.398
X157.495Y-93.807
X157.821Y-97.084
X157.966Y-78.949
X158.034Y-92.482
X158.034Y-92.482
X158.256Y-94.474
X158.744Y-87.245
X159.241Y-92.811
X159.313Y-74.418
X159.527Y-93.622
X159.554Y-97.723
X159.769Y-80.556
X159.778Y-90.649
X159.974Y-70.098
X159.983Y-68.561
X159.984Y-78.206
X160.415Y-84.307
X160.497Y-96.361
X160.505Y-85.423
X160.976Y-82.024
X161.023Y-85.107
X161.237Y-86.273
X161.283Y-93.897
X161.346Y-90.269
X161.637Y-85.173
X161.637Y-85.173
X161.859Y-100.2
X161.978Y-81.163
X162.122Y-70.327
X162.178Y-86.439
X162.328Y-74.949
X162.767Y-86.302
X162.885Y-81.788
X163.066Y-95.25
X163.903Y-68.113
X164.218Y-71.424
X164.234Y-81.932
X164.517Y-81.268
X164.646Y-85.9
X164.65Y-95.548
X164.981Y-82.664
X165.134Y-91.619
X165.14Y-88.934
X165.14Y-89.805
X165.416Y-86.438
X165.616Y-83.959
X165.719Y-85.16
X165.938Y-78.061
X166.239Y-97.157
X166.258Y-88.812
X166.544Y-99.218
X166.571Y-95.948
X166.688Y-97.631
X166.72Y-71.333
X166.917Y-73.157
X167.03Y-78.561
X167.112Y-100.257
X167.994Y-95.866
X168.06Y-97.631
X168.758Y-80.838
X168.789Y-76.911
X169.069Y-90.487
X169.127Y-72.692
X169.645Y-90.154
X169.75Y-87.284
X170.209Y-96.515
X170.209Y-99.934
T3
X156.949Y-83.979
X157.273Y-103.399
X157.943Y-81.258
X157.974Y-82.137
X158.741Y-81.194
X159.544Y-100.012
X161.374Y-63.592
X161.884Y-64.67
X161.925Y-69.056
X163.441Y-62.519
X163.453Y-63.532
X163.463Y-66.276
X163.516Y-77.167
X163.546Y-91.969
X164.395Y-63.569
X165.065Y-100.182
X165.704Y-81.623
X166.313Y-62.151
X166.688Y-73.819
X169.069Y-78.581
X169.07Y-69.565
X169.453Y-79.377
X170.504Y-68.307
T5
X154.226Y-55.642
X154.226Y-58.182
X154.226Y-60.722
X154.226Y-63.262
X154.226Y-65.802
X154.226Y-68.342
X154.226Y-70.882
X154.226Y-73.422
X154.226Y-75.962
X154.226Y-78.502
X154.226Y-81.042
X154.226Y-83.582
X154.226Y-86.122
X154.226Y-88.662
X154.226Y-91.202
X154.226Y-93.742
X154.226Y-96.282
X154.226Y-98.822
X154.226Y-101.362
X154.226Y-103.902
X160.576Y-103.662
X163.116Y-103.662
X165.656Y-103.662
X172.006Y-55.642
X172.006Y-58.182
X172.006Y-60.722
X172.006Y-63.262
X172.006Y-65.802
X172.006Y-68.342
X172.006Y-70.882
X172.006Y-73.422
X172.006Y-75.962
X172.006Y-78.502
X172.006Y-81.042
X172.006Y-83.582
X172.006Y-86.122
X172.006Y-88.662
X172.006Y-91.202
X172.006Y-93.742
X172.006Y-96.282
X172.006Y-98.822
X172.006Y-101.362
X172.006Y-103.902
T6
X160.226Y-59.372
X166.006Y-59.372
T4
G00X158.796Y-56.022
M15
G01X158.796Y-55.422
M16
G05
G00X158.796Y-60.452
M15
G01X158.796Y-59.352
M16
G05
G00X167.436Y-56.022
M15
G01X167.436Y-55.422
M16
G05
G00X167.436Y-60.452
M15
G01X167.436Y-59.352
M16
G05
M30
